<mxfile host="app.diagrams.net" agent="Mozilla/5.0 (Windows NT 10.0; Win64; x64) AppleWebKit/537.36 (KHTML, like Gecko) Chrome/131.0.0.0 Safari/537.36 Edg/131.0.0.0" version="24.8.6">
  <diagram name="Page-1" id="gFrPWiU0HMoTc401NtRm">
    <mxGraphModel dx="2730" dy="2202" grid="1" gridSize="10" guides="1" tooltips="1" connect="1" arrows="1" fold="1" page="0" pageScale="1" pageWidth="850" pageHeight="1100" math="0" shadow="0">
      <root>
        <mxCell id="0" />
        <mxCell id="1" parent="0" />
        <mxCell id="Z11w9rOS_5Ds6-d-HtvD-1" value="" style="rounded=1;whiteSpace=wrap;html=1;dashed=1;" vertex="1" parent="1">
          <mxGeometry x="-240" y="-600" width="540" height="400" as="geometry" />
        </mxCell>
        <mxCell id="Z11w9rOS_5Ds6-d-HtvD-2" value="" style="shape=image;verticalLabelPosition=bottom;labelBackgroundColor=default;verticalAlign=top;aspect=fixed;imageAspect=0;image=https://static-00.iconduck.com/assets.00/google-cloud-icon-2048x1646-7admxejz.png;" vertex="1" parent="1">
          <mxGeometry x="-200" y="-550" width="87.13" height="70" as="geometry" />
        </mxCell>
        <mxCell id="Z11w9rOS_5Ds6-d-HtvD-3" value="" style="strokeColor=#dddddd;shadow=1;strokeWidth=1;rounded=1;absoluteArcSize=1;arcSize=2;" vertex="1" parent="1">
          <mxGeometry x="-200" y="-460" width="460" height="210" as="geometry" />
        </mxCell>
        <mxCell id="Z11w9rOS_5Ds6-d-HtvD-4" value="Compute&#xa;Engine" style="editableCssRules=.*;html=1;fontColor=#999999;shape=image;verticalLabelPosition=middle;verticalAlign=middle;labelPosition=right;align=left;spacingLeft=20;part=1;points=[];imageAspect=0;image=data:image/svg+xml,PHN2ZyB4bWxucz0iaHR0cDovL3d3dy53My5vcmcvMjAwMC9zdmciIHhtbG5zOnY9Imh0dHBzOi8vdmVjdGEuaW8vbmFubyIgd2lkdGg9IjIwIiBoZWlnaHQ9IjIwIiB2aWV3Qm94PSIwIDAgMjAgMjAiPiYjeGE7CTxzdHlsZSB0eXBlPSJ0ZXh0L2NzcyI+JiN4YTsJLnN0MHtmaWxsOiM0Mjg1ZjQ7fSYjeGE7CS5zdDF7ZmlsbDojNjY5ZGY2O30mI3hhOwkuc3Qye2ZpbGw6I2FlY2JmYTt9JiN4YTsJPC9zdHlsZT4mI3hhOwk8cGF0aCBjbGFzcz0ic3QyIiBkPSJNNyA3aDZ2Nkg3eiIvPiYjeGE7CTxwYXRoIGNsYXNzPSJzdDEiIGQ9Ik05IDBoMnY0SDl6TTUgMGgydjRINXptOCAwaDJ2NGgtMnoiLz4mI3hhOwk8cGF0aCBjbGFzcz0ic3QwIiBkPSJNOSAxNmgydjRIOXptLTQgMGgydjRINXptOCAwaDJ2NGgtMnptMy01VjloNHYyem0wIDR2LTJoNHYyem0wLThWNWg0djJ6Ii8+JiN4YTsJPHBhdGggY2xhc3M9InN0MSIgZD0iTTAgMTFWOWg0djJ6bTAgNHYtMmg0djJ6bTAtOFY1aDR2MnoiLz4mI3hhOwk8cGF0aCBjbGFzcz0ic3QyIiBkPSJNMyAzdjE0aDE0VjN6bTEyIDEySDVWNWgxMHoiLz4mI3hhOwk8cGF0aCBjbGFzcz0ic3QxIiBkPSJNMTAgMTBsLTMgM2g2eiIvPiYjeGE7CTxwYXRoIGNsYXNzPSJzdDAiIGQ9Ik0xMyA3bC0zIDMgMyAzeiIvPiYjeGE7PC9zdmc+;" vertex="1" parent="Z11w9rOS_5Ds6-d-HtvD-3">
          <mxGeometry width="30" height="30" relative="1" as="geometry">
            <mxPoint x="15" y="15" as="offset" />
          </mxGeometry>
        </mxCell>
        <mxCell id="Z11w9rOS_5Ds6-d-HtvD-6" value="Frontend" style="image;sketch=0;aspect=fixed;html=1;points=[];align=center;fontSize=12;image=img/lib/mscae/Docker.svg;" vertex="1" parent="Z11w9rOS_5Ds6-d-HtvD-3">
          <mxGeometry x="61" y="100" width="115.86" height="95" as="geometry" />
        </mxCell>
        <mxCell id="Z11w9rOS_5Ds6-d-HtvD-7" value="Backend" style="image;sketch=0;aspect=fixed;html=1;points=[];align=center;fontSize=12;image=img/lib/mscae/Docker.svg;" vertex="1" parent="Z11w9rOS_5Ds6-d-HtvD-3">
          <mxGeometry x="280" y="100" width="115.86" height="95" as="geometry" />
        </mxCell>
        <mxCell id="Z11w9rOS_5Ds6-d-HtvD-8" value="" style="outlineConnect=0;dashed=0;verticalLabelPosition=bottom;verticalAlign=top;align=center;html=1;shape=mxgraph.aws3.android;fillColor=#8CC64F;gradientColor=none;" vertex="1" parent="Z11w9rOS_5Ds6-d-HtvD-3">
          <mxGeometry x="312.93" y="69.99666666666667" width="50" height="58.333333333333336" as="geometry" />
        </mxCell>
        <mxCell id="Z11w9rOS_5Ds6-d-HtvD-12" value="" style="shape=image;verticalLabelPosition=bottom;labelBackgroundColor=default;verticalAlign=top;aspect=fixed;imageAspect=0;image=https://static-00.iconduck.com/assets.00/nextjs-icon-1024x617-rl2bcqfj.png;" vertex="1" parent="Z11w9rOS_5Ds6-d-HtvD-3">
          <mxGeometry x="91" y="70" width="69.93" height="42.13" as="geometry" />
        </mxCell>
        <mxCell id="Z11w9rOS_5Ds6-d-HtvD-30" value="" style="endArrow=classic;html=1;rounded=0;flowAnimation=1;strokeColor=#FF0000;strokeWidth=2;" edge="1" parent="Z11w9rOS_5Ds6-d-HtvD-3">
          <mxGeometry width="50" height="50" relative="1" as="geometry">
            <mxPoint x="190" y="104.71" as="sourcePoint" />
            <mxPoint x="280" y="104.71" as="targetPoint" />
          </mxGeometry>
        </mxCell>
        <mxCell id="Z11w9rOS_5Ds6-d-HtvD-31" value="" style="endArrow=classic;html=1;rounded=0;flowAnimation=1;strokeColor=#FF0000;strokeWidth=2;" edge="1" parent="Z11w9rOS_5Ds6-d-HtvD-3">
          <mxGeometry width="50" height="50" relative="1" as="geometry">
            <mxPoint x="280" y="128.33000000000004" as="sourcePoint" />
            <mxPoint x="190" y="128.33000000000004" as="targetPoint" />
          </mxGeometry>
        </mxCell>
        <mxCell id="Z11w9rOS_5Ds6-d-HtvD-13" value="Production Environment" style="text;html=1;align=center;verticalAlign=middle;resizable=0;points=[];autosize=1;strokeColor=none;fillColor=none;" vertex="1" parent="1">
          <mxGeometry x="-45" y="-590" width="150" height="30" as="geometry" />
        </mxCell>
        <mxCell id="Z11w9rOS_5Ds6-d-HtvD-14" value="" style="rounded=1;whiteSpace=wrap;html=1;dashed=1;" vertex="1" parent="1">
          <mxGeometry x="770" y="-590" width="540" height="400" as="geometry" />
        </mxCell>
        <mxCell id="Z11w9rOS_5Ds6-d-HtvD-16" value="" style="strokeColor=#dddddd;shadow=1;strokeWidth=1;rounded=1;absoluteArcSize=1;arcSize=2;" vertex="1" parent="1">
          <mxGeometry x="810" y="-450" width="460" height="210" as="geometry" />
        </mxCell>
        <mxCell id="Z11w9rOS_5Ds6-d-HtvD-17" value="EC2" style="editableCssRules=.*;html=1;fontColor=#999999;shape=image;verticalLabelPosition=middle;verticalAlign=middle;labelPosition=right;align=left;spacingLeft=20;part=1;points=[];imageAspect=0;image=data:image/svg+xml,PHN2ZyB4bWxucz0iaHR0cDovL3d3dy53My5vcmcvMjAwMC9zdmciIHhtbG5zOnY9Imh0dHBzOi8vdmVjdGEuaW8vbmFubyIgd2lkdGg9IjIwIiBoZWlnaHQ9IjIwIiB2aWV3Qm94PSIwIDAgMjAgMjAiPiYjeGE7CTxzdHlsZSB0eXBlPSJ0ZXh0L2NzcyI+JiN4YTsJLnN0MHtmaWxsOiM0Mjg1ZjQ7fSYjeGE7CS5zdDF7ZmlsbDojNjY5ZGY2O30mI3hhOwkuc3Qye2ZpbGw6I2FlY2JmYTt9JiN4YTsJPC9zdHlsZT4mI3hhOwk8cGF0aCBjbGFzcz0ic3QyIiBkPSJNNyA3aDZ2Nkg3eiIvPiYjeGE7CTxwYXRoIGNsYXNzPSJzdDEiIGQ9Ik05IDBoMnY0SDl6TTUgMGgydjRINXptOCAwaDJ2NGgtMnoiLz4mI3hhOwk8cGF0aCBjbGFzcz0ic3QwIiBkPSJNOSAxNmgydjRIOXptLTQgMGgydjRINXptOCAwaDJ2NGgtMnptMy01VjloNHYyem0wIDR2LTJoNHYyem0wLThWNWg0djJ6Ii8+JiN4YTsJPHBhdGggY2xhc3M9InN0MSIgZD0iTTAgMTFWOWg0djJ6bTAgNHYtMmg0djJ6bTAtOFY1aDR2MnoiLz4mI3hhOwk8cGF0aCBjbGFzcz0ic3QyIiBkPSJNMyAzdjE0aDE0VjN6bTEyIDEySDVWNWgxMHoiLz4mI3hhOwk8cGF0aCBjbGFzcz0ic3QxIiBkPSJNMTAgMTBsLTMgM2g2eiIvPiYjeGE7CTxwYXRoIGNsYXNzPSJzdDAiIGQ9Ik0xMyA3bC0zIDMgMyAzeiIvPiYjeGE7PC9zdmc+;" vertex="1" parent="Z11w9rOS_5Ds6-d-HtvD-16">
          <mxGeometry width="30" height="30" relative="1" as="geometry">
            <mxPoint x="15" y="15" as="offset" />
          </mxGeometry>
        </mxCell>
        <mxCell id="Z11w9rOS_5Ds6-d-HtvD-18" value="Frontend" style="image;sketch=0;aspect=fixed;html=1;points=[];align=center;fontSize=12;image=img/lib/mscae/Docker.svg;" vertex="1" parent="Z11w9rOS_5Ds6-d-HtvD-16">
          <mxGeometry x="61" y="100" width="115.86" height="95" as="geometry" />
        </mxCell>
        <mxCell id="Z11w9rOS_5Ds6-d-HtvD-19" value="Backend" style="image;sketch=0;aspect=fixed;html=1;points=[];align=center;fontSize=12;image=img/lib/mscae/Docker.svg;" vertex="1" parent="Z11w9rOS_5Ds6-d-HtvD-16">
          <mxGeometry x="280" y="100" width="115.86" height="95" as="geometry" />
        </mxCell>
        <mxCell id="Z11w9rOS_5Ds6-d-HtvD-20" value="" style="outlineConnect=0;dashed=0;verticalLabelPosition=bottom;verticalAlign=top;align=center;html=1;shape=mxgraph.aws3.android;fillColor=#8CC64F;gradientColor=none;" vertex="1" parent="Z11w9rOS_5Ds6-d-HtvD-16">
          <mxGeometry x="312.93" y="69.99666666666667" width="50" height="58.333333333333336" as="geometry" />
        </mxCell>
        <mxCell id="Z11w9rOS_5Ds6-d-HtvD-21" value="" style="shape=image;verticalLabelPosition=bottom;labelBackgroundColor=default;verticalAlign=top;aspect=fixed;imageAspect=0;image=https://static-00.iconduck.com/assets.00/nextjs-icon-1024x617-rl2bcqfj.png;" vertex="1" parent="Z11w9rOS_5Ds6-d-HtvD-16">
          <mxGeometry x="91" y="70" width="69.93" height="42.13" as="geometry" />
        </mxCell>
        <mxCell id="Z11w9rOS_5Ds6-d-HtvD-24" value="" style="sketch=0;points=[[0,0,0],[0.25,0,0],[0.5,0,0],[0.75,0,0],[1,0,0],[0,1,0],[0.25,1,0],[0.5,1,0],[0.75,1,0],[1,1,0],[0,0.25,0],[0,0.5,0],[0,0.75,0],[1,0.25,0],[1,0.5,0],[1,0.75,0]];outlineConnect=0;fontColor=#232F3E;fillColor=#ED7100;strokeColor=#ffffff;dashed=0;verticalLabelPosition=bottom;verticalAlign=top;align=center;html=1;fontSize=12;fontStyle=0;aspect=fixed;shape=mxgraph.aws4.resourceIcon;resIcon=mxgraph.aws4.ec2;" vertex="1" parent="Z11w9rOS_5Ds6-d-HtvD-16">
          <mxGeometry x="13" y="10" width="40" height="40" as="geometry" />
        </mxCell>
        <mxCell id="Z11w9rOS_5Ds6-d-HtvD-34" value="" style="endArrow=classic;html=1;rounded=0;flowAnimation=1;strokeColor=#FF0000;" edge="1" parent="Z11w9rOS_5Ds6-d-HtvD-16">
          <mxGeometry width="50" height="50" relative="1" as="geometry">
            <mxPoint x="185" y="110" as="sourcePoint" />
            <mxPoint x="275" y="110" as="targetPoint" />
          </mxGeometry>
        </mxCell>
        <mxCell id="Z11w9rOS_5Ds6-d-HtvD-35" value="" style="endArrow=classic;html=1;rounded=0;flowAnimation=1;strokeColor=#FF0000;" edge="1" parent="Z11w9rOS_5Ds6-d-HtvD-16">
          <mxGeometry width="50" height="50" relative="1" as="geometry">
            <mxPoint x="275" y="133.62000000000006" as="sourcePoint" />
            <mxPoint x="185" y="133.62000000000006" as="targetPoint" />
          </mxGeometry>
        </mxCell>
        <mxCell id="Z11w9rOS_5Ds6-d-HtvD-22" value="Development Environment" style="text;html=1;align=center;verticalAlign=middle;resizable=0;points=[];autosize=1;strokeColor=none;fillColor=none;" vertex="1" parent="1">
          <mxGeometry x="960" y="-580" width="160" height="30" as="geometry" />
        </mxCell>
        <mxCell id="Z11w9rOS_5Ds6-d-HtvD-23" value="" style="shape=image;verticalLabelPosition=bottom;labelBackgroundColor=default;verticalAlign=top;aspect=fixed;imageAspect=0;image=data:image/png,iVBORw0KGgoAAAANSUhEUgAACWAAAAlgCAMAAAA7k/xcAAAAZlBMVEX///8AAAAlLz4lLz4lLz4lLz4lLz4lLz4lLz4lLz4lLz4lLz4lLz4lLz4lLz4lLz4lLz4lLz7/mQD/mQD/mQD/mQD/mQD/mQD/mQD/mQD/mQD/mQD/mQD/mQD/mQD/mQD/mQD/mQBdxctHAAAAInRSTlMAACBAEDBQgL/v/69gcM/fn48QQCAwUIC/z//fcI/vn69gJre7XwAAo41JREFUeNrs3eeWIzmSNdqhdDKo3/9lZ2VWV3eJFCFIE8DeP7/bcyuDLnDcYAD+7/8AAAAAAAAAAAAAAAAAAAAAAAAAAAAAAAAAAAAAAAAAAAAAAAAAAAAAAAAAAAAAAAAAAAAAAAAAAAAAAAAAAAAAAAAAAAAAAAAAAAAAAAAAAAAAAAAAAAAAAAAAAAAAAAAAAAAAAAAAAAAAAAAAAAAAAAAAAAAAAAAAAAAAAAAAAAAAAAAAAAAAAAAAAAAAAAAAAAAAAAAAAAAAAAAAAAAAAAAAAAAAAAAAAAAAAAAAAAAAAAAAAAAAAAAAAAAAAAAAAAAAAAAAAAAAAAAAAAAAAAAAAAAAAAAAAAAAAAAAAAAAAAAAAAAAAAAAAAAAAAAAAAAAAAAAAAAAAAAAAAAAAAAAAAAAAAAAAAAAAAAAAAAAAAAAAAAAAAAAAAAAAAAAAAAAAAAAAAAAAAAAAAAAAAAAAAAAAAAAAAAAAAAAAAAAAAAAAAAAAAAAAAAAAAAAAAAAAAAAAAAAAAAAAAAAAAAAAAAAAAAAAAAAAAAAAAAAAAAAAAAAAAAAAAAAAAAAAAAAAAAAAAAAAAAAAAAAAAAAAAAAAAAAAAAAAAAAAAAAAAAAAAAAAAAAAAAAAAAAAAAAAAAAAAAAAAAAAAAAAAAAAAAAAAAAAAAAAAAAAAAAAAAAAAAAAAAAAAAAAAAAAAAAAAAAAAAAAAAAAAAAAAAAAAAAAAAAAAAAAAAAAAAAAAAAAAAAAAAAAAAAAAAAAAAAAAAAAAAAAAAAAAAAAAAAAAAAAAAAAAAAAAAAAAAAAAAAAAAAAAAAAAAAAAAAAAAAAAAAAAAAAAAAAAAAAAAAAAAAAAAAAAAAAAAAAAAAAAAAAAAAAAAAAAAAAAAAAAAAAAAAAAAAAAAAAAAAAAAAAAAAAAAAAAAAAAAAAAAAAAAAAAAAAAAAAAAAAAAAAAAAAAAAAAAAAAAAAAAAAAAAAAAAAAAAAAAAAAAAAAAAAAAAAAAAAAAAAAAAAAAAAAAAAAAAAAAAAAAAAAAAAAAAAAAAAAAAAAAAAAAAAAAAAAAAAAAAAAAAAAAAAAAAAAAAAAAAAAAAAAAAAAAAAAAAAAAAAAAAAAAAAAAAAAAAAAAAAAAAAAAAAAAAAAAAAAAAAAAAAAAAAAAAAAAAAAAAAAAAAAAAAAAAAAAAAAAAAAAAAAAAAAAAAAAAAAAAAAAAAAAAAAAAAAAAAAAAAAAAAAAAAAAAAAAAAAAAAAAAAAAAAAAAAAAAAAAAAAAAAAAAAAAAAAAAAAAAAAAAAAAAAAAAAAAAAAAAAAAAAAAAAAAAAAAAAAAAAAAAAAAAAAAAAAAAAAAAAAAAAAAAAAAAAAAAAAAAAAAAAAAAAAAAAAAAAAAAAAAAAAAAAAAAAAAAAAAAAAAAAAAAAAAAAAAAAAAAAAAAAAAAAAAAAAAAAAAAAAAAAAAAAAAAAAAAAAAAAAAAAAAAAAAAAAAAAAAAAAAAAAAAAAAAAAAAAAAAAAAAAAAAAAAAAAAAAAAAAAAAAAAAAAAAAAAAAAAAAAAAAAAAAAAAAGBkKwBgOOvNv239LC8gYAHAiHabzX5ZluXwzfHtHb7/L0/f/m/2m83GLyhgDWH7x3fEefmrw3+c/vb/uv/jf+o3A+AfNpvL98Hj7Smuh8OyXNS4BKxmeerynwh1+9rN/z1+nSUugHntNpfl/qXh5Dduh/ty3qz90gJW0Qdgvyz3wwsfAR8bAJMNLMvjlcHq30HrsWx2fncBq4TNZllOh+tbqOO3qLWXtABGHVvOS2Sy+lfOuqhnCVhpN/9+eUTnqh8VtR7L3vQhwDDW++V0e6vgcFr2ylkCVmiyur9vxUZkReuuqgvQPVudH9WGl7e362nZq2YJWC+13VwK3vr/fAzELICGI8x+KT3AHO4XbSkC1ozRymMA0Ldwdb+1GF6Oh+XsK17AetZ9v0/sM/xKi+JpkbIAqttdTsdm48u3r3gBS8D60m1/fhzeWrudPAUAdStX7cLV377iZ+7MErC+Urc6vo3h8NgrZQHUst0/bu3Hl+NhmXWAEbA+Y3M53d4Gc7ufrQEBKGJ3OYwzwFyn/IoXsD78RbEc3kYlZAFU+Ip/DPcRP2HIErA+FK4e17fRXR97Vxogb6S5Hw0wApZwNabDRSELIGGoOZ+GH2CWWVZWCVjC1Y9nCxWyAKSrlzS+n6b4ihewhKufPwJnawsBYuzvc33F34dvyRKwfmUzcEP7+8hYAK+3G7fv6lctWcvQe74LWD+93S+zhysZCyDAerlNO8Ic7+MOMQLWD+/285QfE7NnrM15WQ5Pd1qWZblsNtYNPOnh3Gy+/aL3p1ycx7f/X503jox6pu1mc1mW5fHc5+jbQzTqZTpP/zF/vYxZyBKw/mXepqtffmQM3vMe0Vx6OzycS/SVovJ5Obzs2byelr0M/OVotZxemhWuj/HG4fXD1/wf66oGfDkKWH+/1y8nN/pP7/9xx5/tEveOO1wcNP+JcBVy2O3tZKfdTz9DQV+mh7GGYcWrob/jBaz/GXHr3Cd/Pw46VbgP/oS8LYbxD6WryCfzquewZgH4fx0Lw1yg9aJ4NXY/ioD15wtC19X7PjEGLL88En7Iu4j13kfzcgu/yV2cj+WE4JfncYyX0MZ0yfAZS8D6PjGoTPuRL/zBLn/S3jMPhZKCY7eL84lLFP+dN0DCOmv1/VXGGmSuUMDa6Wn/8OttqG6sS1pTm4b331av0qZQjg4yeOclSvk+6Z6wtot2lCn6sSYPWDttV5+c4RomHOwSf8Xzil/OoWQ+nXe//zvskxLwtXXNT+vV+z5B+3/Jzxyw9tLVFxwGSQeps8OLEfoXluS5cNOEv5V3tMulb7y6Gz0+0JDS+ymcNmBtNLV/+ftihFbETXIl0BhdcPD+8wa3n0bdS3Rs+vIRrz48Vdj5MZwzYJkZfNK9v7SPWNkLeSSssvlqmNVqY16ilhV08WqyMtaEAUu6ErH+a5v+Cz6M01XzlVnCXzvnXhvxaqJxpms31mwBa32xZlDEqjJGfGe5WtEL883Blfj5l2ryten23hGvvuTUcl3VVAFr61gCEavePJRdLX8weFfpkLQM4adv0+yJgF5fJtuHkeKrXzsNv0UnClh7be2vi1hdb4oK9UxVkprX5Q/asH4iPTB0eulsbczwDLd2jXezBKy1jd3c+T9Q4sczSfhPlzp39tXV+KFN+pVp9GFyNvpMOtDMEbBMDQbc+R2nyNc1fjqt1P/43q/0uX9xPX4kPzK0CVgbfb/P/OJpNdBMELB2D9XZmBdev2aiTY1fTqNPsdmnv81/i79Fa4xNPuIc6TzxQDN8wHKkZqB2R+RujOHqiuJv0xpjix9qMSzMPNCMHbDWilfBSaHZDPnGGF5QteXslnn+S4nY0OB32mu+mnugGTlg7XVeJZRvW626qhKwlLD++tFf7Z4Wf0sWsOoHrLUR6GWuPQaaYQPW1rJB5ds2AcsYXq06Iv7Wv0TlfyXzJ9MPNIMGLJvmZo5HfbYdKBOwjgbt/6r3ZWQhYcUCVvGAZe3gq3VYuD5kwNqozOY6dfnkr9NOfTZs/8e54JvcVfmbi6vy2wxq43ZFrDEDlk3dChRkuuSFOi0Fhu3/qLiq3VawBWuMlffB2hiEFLFGDFiOJFDE6jkd5UiWakXFv7i7Ln+xL/KKUb6ievfqWAHLtgyFilgtvvoPxnDTT++gzb3eQ1N2aFW+Ci1kln42RwpYOtsVsT6qzoo1S9X+ULM1WItcvRpj0WuifBX95qxc/B8nYIlXJsjbznYYw0vPEFaejopXJUDUfLvsLB706hwvYIlXJsibj+cHQ3fZGUJzhH9RZQJMSZzy48wYAUu8KjtBXv2YkUJNe05kKTtDqL5Yr+hbcZeGrQ2CcpTtYB0hYIlXlSfIi/e6F3oj2s6y7AyhNQj/U+VtW7Diu7fGyvM5WsASr5Rvxyjp2wqr7gyhrfbL1XzrvVd0t0tYowUs8arBNGHl/pVNoR/KHGHJXUb/YJ+yP5TZaL9aaXytu13CGixg2Va0hVvlwanQ72SOcFX3JnZxikXgYi8V04Oe0NEC1tk93UPlk3MKNWGZI9zUvYct8vzjm7bMBTE9SO2aZvOAtbNio4+6jViV1lVPP0dYeJjShPVHoUbg/VHsND1Y4REt+P7sG7BsONLKvWojVqWiyfTTUJXHKU1Yq0JrCN8eld4hplJMAYwVsOyX2+7mr5qwvCDMP0m/71UmShSaD7p4u5soGStguaX7qdrqXmmmefL9wveV7187YZWq95Z5VLYWsiszjxWwtid3UkNFD+WsNNc8+X7hpTuFbyvqPCxlir12ZzBJOFjA2t3cSD2VzA87VRLFxPewTVmhK1SlBWun/aqUahP5DQOWDUckrDHbSqavktS+efcrylyMTY3f4+ydXmyapFiXRb+A5Zb2gfFclSacp66SbGrfu4/V9MpcoSKbZtj9qpxife7tApZ81dvdLdWuxDddg8+P2Qe2zhU6Vfg1tLcXVGwSoFvAkq8krGdb+3U0+LzH5Gs8K+1TVuFDxO6iJdX6Rm0WsDbuHwlr3GFj8ias6s2V0zdh1dmnrEDWtXywplOpR6ZXwFrrb5ewxu6kmLgJa1f9xl1Wk9sbRP93txqLFJpHC1i+GSSswUf2iZuwyu8ePP15zw9PiXxljnDYgOX4QQlr9LmpiZuw6m8fPHvAKvOBm16kcPqg0WW4gGWC0EfGaxRaDTRxE1b9/YM3q6mVacFKnyG01qqwY6VnplPAsihWwhr/fTltE9a6/l07eRPW3ttDvmqg0iu0UcDaKmBJWIN/ms/chNVg1DqtplalBSt7t275ytgyYMByWw+l1MnPhdp/pm3CalCgPq6mVmUO92QgokmhuVHAsoRwKMdKCavQArZpm7A6PN+71cTKzOHmVijkq+oqrfbtE7C2bpzBEtbW2PEjkzZhtXi+L6uJlUkWW78CTb5R+wQsN/ZoroUSVqHyyaRNWPsOt+zUJxlVmcM9GYb4JQFrzBYNGr0p/+7hV3EFzN/+UpUWrMwyonzVQaEv9z4B6+a+GU6dgkChzdwn7aQ+tLhjJz7JaO0a2L+9h42ANWaLBm2nwwrl9zk7qd2wxVUp3lzlKwSsZ9u4bUZUJkwUmoGespO6yfP90IKVbZGvELCe7eK2GVGZpYSFeqynbMJqcs7odd6AVSVdpH2TbXWpNHERsEZ9AdN1xCoUOrVg1bWdNV9V6VJMW2ewtRFjF4uANewLmA+q0uheaDP3GZuwusy+7GcNWFWmEB5GIAQstzfvVKRvuNAC7AmbsHbe3cVV+QDJ6q+xTZCANXLActeMqsiZOYU2c5+wCatNi+Vh1oBVpMR4dIMiYAlYvFuRHd3rtFhM2IR1anO3asFKldRRYINRAUvAoqcabViFvlHna8Lqs0BrM2fAqvJ05PTA2aBBwBo7YNkGa2Ql2rAKtQFN14S19vJWYqxbQNzKVwKWgEVXxxInkNSpokzXhNVoBmbSoyKn/vVt0CBgCVj0VWI3rDrHDU/XhNVoidacR0VWef+e3Z0IWAIW/R6JQpu5z9aE1alEMOVRkVX2ec5YD6PB3WgiYNFbhWGrTqfFZE1YrU5yn/KoyCLbEGZskrHzchawBCyaTxIW2KuhzlTAZI0++0536n3GgDVvuHUCoYA1QcCyz9voHvk3WaG5gLmG70enG/U2Yb6q8n2bsBjGESIC1gQBy1nPw8vfYGjrx5h6AqruKO/1+0eZ28CDgOU+p8fbs+5AP9duS71u1PN8Aes661OhNUXAErDwWAw2ET3VkXfNRrH5mrCqlHbDV8JowDKSCFgMIn0lYaENxU1AKbWWUWQRQnz328lLWcASsBhDftmmzn5MMzVhdesj3s4WsIosQghfB2NplYAlYDGMi5Gk4DtCC9Y/7GcLWNc5f3dHPAtYAhbjOGbXBupsKjhRE1a7nRwfk+WrIi1Y4YcUOYJQwBKwGEh6/3Cdb9Z5xu92EzGHyQLWfs6XgzFHwBKwGEp269HdLxGuXyexFqwJZggdkSNgCViMJXuF1t5LYuKqofD7Q0X2KgjuHzBBKGAJWAwmexdH81DR1l7gLtA7nIw4CFhud74iu8+9znzVLOP3ud9NOlcTVpELFPvpNdEE4eFHWi+gFLAELGo+HHWG+1nmoe797tHjVAGryAWK/fIadYLwcDg8lmXZfPOOn2H7/X+4LMtyOhwOxhABi+5yz9Jde0vM2eHzIbuZAlaNC3Q13nz+g+BwWJbz5hmfbLtvcetxOJR+agUsAYufSd6qocyn6yQnsmw73qOX1TzWE/7k60HepdfDctm86Gtg+y1qnUrOJQpYEwesw+FwWv4s0u5++amw2WzO3/6nh0bV2fZzY3XutDlOZNl3vEVPq3kUmTQPLWz3f90e7ssm6CfbbZblUGpKVcCaLGAdv098b774LfFndXb0gJXbQlynu3WOE1keHW/R22oeNVqwQuu5596DzbLPmMLebZZ7kXqWgDVJwLoeHsv5BR8Su825zM08XAmrTHfBHCey9OwmXq+mcZzuYdi2fbMeln3ynbndXO7pJQABa/SA9X3u+/W3+ma/3AcsaOWWsMqUVOZowup5i55XsyhS0d3N+Ab4UOHqdKmz7ni9XzLb4AWscQNW4Nz3f+/mzXIaa1Vx6puiTlPQDE1Ym5536H01ixonRUbOyTbcAut0KbiudbtZTjm1QAFrxIB1jY9WfxupLvdhUlZu7abMBMEMTViLO7S2GjvvRs4QNpsTuD0qvyfW+0f87ylgDfYePjzOJcqz280yRmfW2ZAySRNW1xnuOZZ4lvncCMwQrTrcr5cO3YCbS2wpS8AaJ2Bd7+di1dnd5dQ+ZKWu0irzhp2hTNL1Dp1jiWeV+bLArfO3fTa+7ZGu/ryRzvewX1bAGiJgHU9L1eNMdkvz3vfMH7bO1pfjl0naHvk2xxLPKi1Y97lHmvbp6s/5wnPMt7+A1f62v93Pxe/v7f7euJCVupCwTDgdv0xycYPWdprsQVi3eGkeH20Pa9pdTgKWgPXLb4fHvklpYfe4dR3AMktYZUb98cskp67359skAWu2Um6Ho8cP3TcJ2b94XBKw2gasPuGqecbKrBCUOYls/CasvkXWzWoGNXbRiDuZqP6U9fE+xCa361cWsgSslgGrXbj686XRcq4wcwArk0lHb8JqfKjusppBjQ/buIpN9dbV4zLQK+FlTSwCVrsHvX7P1a9v5X5TMZlbOZbZynn0JqzGh77N0YRVI3CEvXqLb3t7G+4AgddMsAhYrQLW8XTpX5VdL92mChN/8zITBaM3Yd37BqzjagaTzZQfxKsRMtZFwGoTsK7LMM0W515bN2SWsKrMqY7ehHXrG7Dedqvx1ajoXOb6c6eKVy/JWIWGbAHrl/OC+7GaYHadKgbHxN++zO+0Xo1s2zhfVfpMHnLiIOEhqPsFOlTv1cszloDV4Ek/XEb8RF03anhPHMHKHPh8Hvqtuu8csE6r8ZU43TTsWIe6Baz7FOe+P21sKjRyC1hTlK7+WjVYukSsxPNyypRW7kO/Uh+dA9YETVg1HoOwRsSqBazrDLPR352fsxir0F8kYP2g62rw+3nb5TSIxDV0VVZd3oa+E6+dA9bg07d1KoxRr+OiBazjDHPR/xucLl+fKqz06SNg/aPuf15PcBeve/RiJa6EPxvFA7TOV4NP35apMIZ9Y9R8KR5mGJD+5sv7NlbaQUXA+kvwve/nuYlbrCjMe7esjeLTlgxM35aqMN5ne+TnLV/9t4x1/tKdV2kPYAHrz++kx2aum3jfYIn8Y/KxZfBRfOkdsG6jvyJqtGBFffVWbAi8Tle+ekYZq1KdRMD6fh8/dvPdwg1asY6j3nBG8VWDc0l+Z/SlXfuZ3gHbgmt/ltXEPt+NVem5FLDerpdZPxPW5Ue4vAmyMpu5D3xzNs9Xwx9kVKKmE1XCvdT7vNyvJrf51FqjUrszzx6w5k1Xf7xVim/ZkNiueJs+Y06TYRvOYM/zCJwne97/NzTtVqwfHx+hSrWtdQlYZ+lqyiJW3gWqsqZo3CasS/eANfhBRjW6voPme8otuDhtV3xqprDUD9clYD3//r8ta3dv+U7jvC6EKruMj9uEdeoesN7GfjOU2Kokar/8ans03I1M/7sRr31/uUkD1u2h/vrfmZrKywkT40WV2dNhvwOO7QPW2AuPS2SOoBnCaqdiXoxLfxv+D13flzMGrON945b968vlZAwrXGAZtQlr3T5fDb7Kq8SHV9BwWWy6+mxU+mcZ4L1xv1hj5HwB67R3t/5T4WnCvILvefpfYI7f9wsOI78USgTgqDa3m3xVvg6wvOciXYu1rnUJWE9a0n09ax38kX3Z6Zq8rbCqzBqM2oR17x+whm7CKhGAg6bKdvJVi1vytzOFx2qtPzMFrNtDW/tP3zBlE1be26bKZu6D3rW3AQLWyJ2cp4l+4Ls3XpOy6uPWKl/1CVhfHu3upgZ/Wa+5Fh3DTmk/SZW+jDEbXrcD5Kuhe5ErfHLdJvpb52jse8Jsy88P0amXr/oErK99T5ka7Juw0q7cevqI+dL35AgB6zTu+6DErNljvnvR/gyfzlgVtw5rE7C+0Id9vNuT4T0Jq+hiwryKeZFJrOOQt9tjhIB1HPd1UKJ+O98M4cFA9L78v/yzH+tUcm+ANgHr08sID6a0G75nSlQJqmSAIb8PriMErIFPijxNlF/rzBDezLR8IBMs98Mfl+5wPxd9EtsErM89BMe7vvZmL9VCc4RVjs8YsdNniBaskRuSK4SOoOmyOjOER3Mtg+kTsD4x+N8uvgc+NupdDWIFv2xH7PTZjBGwhu2YKdGCFbQu6e5Vx/QB68PbsthRdJCElZcvirx5R+z0WcYIWMOeFHmZ6L4vM0OowV3AalKzPtrz6nMJq+LuRGl1yCpzBwNOHBzGCFhvo9bIK1yf01xPuQYsAavJN6/i1adV3HE0rXBepVFowCasQfLV26hvmome+zLrWR2RK2BlFlfeOfTfLopXI3zPVaicF+n6H68JazNKwHqM+RYocX2CCjo3txIC1vuGfntefdml3CB2nP23OLrJqrqO+RKo0CIX9FlRZT9hE4QCVrL7b9OVqcFxyjYV5mGqvHx37rGqxnwHVGjBCpoYv8z+kkPA+o9frXE7nhyH8xz1lhI+St5xmrA+7zhMwBqzcabCLxvU6VEk69vCXcDKH/rvalcByjW65y2GL7KbwGhNWLth8tWYZ/NWaMGKmnxVpEbA+tP5B2P/dXFzjlk1j/6YLZsERmvCOo8TsIasPFRYWBdUtS2y3MIWWAJWjSLW5W+LPg6PvYnB56vWIpM3RVZkidFgnxD3cQLWkE1Y13lu+SI1aivfBawq1uflfjgcHste5epVMbbYJOH0m7kP1oR1GyhgDdiEVWH/t6i2gBo73ipgCVhMpNpuWLP/EGNNRK0Hylcj7gJb4aaPWtiigIWARbRik4R5axiOkyfMGeK7BQh/V6EFK6gwWKMFSwFLwGIqxSYJ8zZqKJI0h5qIeowUsAY8ivs6z69aYz2PXhcBi7nUWkmYt2F2kQVvQ+0GcB0pYI03OlZowYqq6ZT4frIHloDFbA6lRrG0taJFDnwe6R28HSpf5Z1F/ioVZnCjegJu7iAELOLV2gwyrwmrSLlloDtrM1bAGq6B5j7P7V5iucXRYCNgMZ1SmxXlNWEVmSsdqAlrGStg3UZ78AtUdaJWDuwldAQsMpTqc89rwipSyRuoCeswVsAabY19hapO1KRZiayvxV3AYkKlKg15G/bX2BVzoCaswfLV22DnoJ4netorZP2bkUbAYsYS1s0oVmdTgWFuq81oAesx1mNfoDUg7Gvi6PZBwGLeb9n811CRQDBME9ZltIB1HeupL/BZFbU7fon1rGYIBSzmdDOKldnMfZgmrNNoAettqPPmK7RgRXW1Vfh2soZQwEIJa+IpshrLKYdpwjoOF7A2nvmeH1MViqnWEApYKGFNPIqdZ0+YTxW1KjMwxw21zX6BAmPY71mhvdIuowIWSlgTT5FtZ0+YLW+pwMFzqKNOChQYw7qSKiwiXBtlBCxmVWc+55T3I5wmT5hPFTXhGtlLNNADX2Dbt9tMbzebNAhYzKvOXliJzaA11r0NsljtFnW7BJYnBmrCKnCvxy0Y1oKFgEWiQtu559XS1zV+gCEWq0X9lqfIb4PLOA98gWptWFytsIjwYowRsJhXnRMJE7tBaxz4PMSO4fuwgStw+DyN87znf1Adh7sXS/SbIWAxb8Wh0szBvzxm/wH6/ZS7yAmgcfYyKtCCFTdpVqH/wQgjYDGzMkfzJq7VqnHg8xBNWNe4yBN45w5ThyjQghVXqL17phGwSLWvErAyP/Zq7Ac2QBNW1JYXp9gCxTCbGR1mussL/LF63AUs5lZms9HEMkGNTrQBmrCiGqOW2E+DYcbJ/Js8sJ+tQGvlYnwRsJhamZ0aEssENcp4DzfTR1aiBW4QO8puRpupnnLfTAhYJCvT5p75tacJ6zmiZmWiKxSD7Mdd4GNqO9VDvTG+CFjMrUqbe+aJJDU2c+/fhBV6qwQu/tx71Nt9RFTYBsvoImAxuSoHEh6n/w3aD+ORLVihE7uPMR71/Fv8Mt7NKGAJWAIWP1XksOPUAk6N36D9MB61C8Am+qKNsdy+QOQInGst8NF0MLoIWMyuym7umQ0LJTZzbz+Mn2KjeOAC2CHOMXpMdYcvAhYCFumqbIWV2eVe48Dn7sP4MXaYDvwyGKIJK/8rIrJGWyBg2QZLwIIiJz5nvo5qbObefBjfBQ/TgZNAI2xoVGAePHKvuwIHYNkGS8CCInOEqQX1EvutNm/CugTn0PUk9+YwlerQ/cQOAhYCFt68FdbclDjwuXkTVlRQ3yak4gEe8/xbPPQDQsBCwKKCIgErczvH/fS/QJsq4DWj9DrAlpH5LVihU+AFApaN3AUsKLLPZu4gVqIRrfWpwlEzdv/r1QtcmtC/GJHfghW7091t8hcaAhY1FNlr9JL5G5RoRLu7iz6SQgOXJpzaP+T7ye7uNwELAYuJag+Ve7xLhMzWpwpH9fisM8qOx/YPef4XROyMmYCFgEUJJfbZzF2qVWMz97Wb6CMhNHBue9f9Gc+fMovd5k3AQsCihKVEusit35Q49LpxE1ZUQv3rRFNgE9al+SOeX6UOnmUVsBCwKGFTImDlroUvsZl74yasfULS2bky75U/BR788SBgIWBRQ43N3FOnYUo0ojVuwloybhJX5r3yW7DW0z3OApaABWU2ash9IZVoROvbhBU0xXrM+I++td+jLL8FK3gX3Y2AhYBFDTUOO87dbKjEZu59m7BSOnkWV6ZLQSe4iU3AQsCiiBqHHT/8Bm1bfTYp4/Rmlpvzq/JbsNZj3o8CloAlYPE7JZqwDn6Dtq0+KS1YkU1YvQ+KPM12Y1cIWM4iFLBgVaUJK3kMK7GZ+9oN9Ev/+M8GNmFtOz/f6R8P0QVAAQsBiypqNGHl/gYlDnzu2uoTNIIfkgpnzY/uzZ/+jl4hLGAhYFFFjZ2wkosEmrDKj+BL3n3bebhM/366zfhCOxlXBCyoEi6yu0IrzJM2bcK6JN0hgSccHRo/3el3dvh3Q4WAdTCsCFiwqnJSTHLAKnHgc88mrKj+tX/9hwN3L2v8dKe3YIXPr1YIWFfDioAFqyq7QCXPwpTYzL3noXdB+1geMu/bvqvu01uwjuF/comeB8OKgAVlqjfZbS4VNnNv2bgRFU3/vRZtP8/d+XnpLVjxnYUlAtbauCJgQZVtNrPDRYW1lMeOd09UPP/3TNNW9P299Pn/85zvMzuNCljwXYUXUnZXaIm38q7hzRM1UbfNrDoePdtPvG4zvM/s0yBgQY2v3ApdobcCP0LHJqxr3v1xF31/J326LKP2VyFg3Q0rAhasqnS5+xFazkRFzdP9aDvws+j7O0v2LZ2xe26F15llhAIWRA9UdQNWhc3cG85ERf1sP1rsH7j0s2tBIr04ndHs/eZ9hoBFFSWW3aRPwhz9CIVLJD8cqOOmdbuexD1lIadEwNLlLmBBmTdS+gupwmbu/WaiDpkBJ7AJq+ey+82UN3SFLVd0uQtYUOeNlB6wKkyU9mvCSp2iC7xkPU/iTm8sTMmlJY6mcFiOgAVlijfpX3zbAj9CuyasTWq+Cdxbo2cTVvaXU87MaomApQlLwILvFgGryHt55875SCUkrm+u5aqw9G+Gx8QBa29cEbCgyOxYfsCqsJl7tyasoNrnMb/0um34XKevjM35XlhKBKyHcUXAgiLLCPN7Fioc+NytCeuY+7MEZuKOBYnsFqykGe8aAetmXBGwYFVjGWGBptACm7k3a8KKaoK6JP/3mxYksluwkhrXLiUCVtvd/xGwaFmIKB6wHt7KRYeyXf6N23BVWHoLVlLVb1MjYJkjFLBgVaMttEDtpsKBz72asO7Z90bgjdvvqT5P+kgXCVjmCAUsWMXu2Fh5AFPI+6CgSdWfd6YFtttsPNVNGgq3NQKWdYQCFqyKtIUakdoVSqKWBSwVihX9tubO7ilM25y1SMC6G1gELKixT0OBdfAVDnzeuG0+8puoLabH33pP9K1IwlobWQQsKNG1UCBZVJhb6FQoiVoV8It/QlwTVrtd9rO/mvK2HDkUCVjOIxSwoMYWUBVKNwXODOpUKLnm/ySBk9vdlt1nT3jnrdd4FAlYRyOLgAUluhYqBKwKU6V9bpqogt9So/babZf97ImyvAmypUjAanpEOAIWY72MiwQslbyP2Bf4RQJndZvtsp99L1/HvzF/y04NAhaU6Foo0bBw9TvUKxRsa1yxZqNl9n7miQW/XZWApYQlYEGJ5qMSwaLA5EKfJqygVP7rUkhgv83aI92kZa1MwFLCErCgQrAoEbAqfPu2uWmCfo9fHzkSOB3UqxxxnDha3MokLAsJBSwQsOq8mrs0YUX1l/96Q+zAJqxWG0dmfyqknsR3KBOwjluDi4DF7PYC1h8efohqofw3Q1RcE9a10xOd3YK1m+HWHC2VI2DRuRpRfpFWgaTZpQnrUCPWBG731KkakdyClbsF1LlOwGp4hiUCFsMFrCK5osCBz03umaBf6nclgMDBtNPpvcn3cW7hZlcoYF2NLgIWsxOwanz59/nmjRrEftdaHrjf06PP85wdMfazv870uQtYIGDlFUR6v5Gjmnx+uznCbbZb9D2yu5CS//xDpYS1M7wIWAhYAlaNA597TCoElfp+v9z/Pk1s6JMwshsqH5UClklCAYvJHQSsOh+/LZqpgwpHv2/mCaw59mlYTr6Ds7cMq9Tl3mpqGQELAeuFLvkv5A7N1FGtT5cy/5JO7TTZi1ayPxF2pQJWq9URCFgMGLCORX6JtS/eSjWCdzSwxC2Ya9OEldyClf871QpYR21YAhYzK9C0UOWnyN/MvUPTxr1O7I5b+Hns8jgnfy9dZv8B/vVE29BdwGJii4BVKGs2eB0HbaD+nm7pwEndLpWI5Pt37X1WrOsfAQsBq4ICm67W79mIWmz5nlpIYMPNpcfTnHwewdVD/InFGghYCFjDB6wCm7nXb8KKGsJ3tS5Yk0JEchG2wlqAagGrSzZHwOL5zgLWf93Tf4r6TViPSjeFJqx/uObevjs/wQ+cjTICFpPaCFjh1ZnOTVhBTcTvW44WWH5dd3iYkzfLvVX4DR5vEhYCFgJWtYBVYDP38k1YpSabNgbJSl8IDy80CUvAAgHrh/IPfH64Xb5759bpepUrVW9q7Hf/JmEhYCFglQtY+Zu5V2/CWmrdE3G7Ht06PMy5/UdF+tQOEhYCFjWsBaxSP0bxJqxSLVihTVgNtihLnuIuUuS7VAxY1hIKWExJwCpTAmjQhBW0McJ7Z0o3LsxfnN269Y4jbDXHjICFgPUy+buC1W7C2lUbq12Yv7h7jlcljrz6oZNTcwQsBKyZA1b+12/tJqyo6Zd3j0VXF6ZKsiizF+u9ZsB6u66NNgIWAta8AavA12/pt/CpWph5zHmb/lByB2GZPu590YD1dtwYbgQsBKx5A1b+12/p9UZB+fP903GBg2n50TG5BavODNixasIqcZYQAhYC1qxfv5WbYdflQubW4Fjk4+Dqh3iHg0YsAQsBa9aAlf/1W3nDpagayQemSeOasA7Vn+Tc6e3LfLepaUIBS8BCwPqA/M3cCzdh3etlTE1Y0eXF+rft9q2yhyKWgMU0DgJWra/fwk1YQeWie83rtav9IOdusFlqkeWpdMK67Yw6AhYC1owBK//rt24T1rZgxAys2xTfjDs3VZTaJuz8VptedwELAWvKqZf0zdzrNmFFrQD40GxTXOfRqfaDnNs9WKoqsz0WT1g3nVgCFgLWhAEr/yizsk1YQf1OHzs0OG7J2LH0c5y7R26xr4L7W3U6sQQsBKz5Alb+gc/nyW+Vj1WKzpJvgQ+DYgcJ7csHrLfj2dgjYCFgzbY6K30z97JNWCV7ndaS73e5LVh7D/GHHTS7C1gIWJMFrEf271G1CWtTs53nKPmusluwys2ePt46ME8oYCFgzRWwNuk/SNGpqKXmYH2aPvmu0luwykXPdYuA9Xa8GIAELASsiQJW/mbu56nvlI/umB7YfFS44LCk3rH7cr/HtUfCervtDUECFgLWPAErfQlS0amooOD50U2CdjPniCKPcb3keX7r4mDLBgELAWuagJX+bq45FRUVZD483sRVHB91H+PUG7bgDmHlt8L6a8RaG4YELASsOQJW/mbuJV+4l6q3Q1wT1rXsU5zbOFhxTvv+1shdxBKwELCmCFj5R5mVbH0N+lUOH/6HXSa+Vf+U24JVsTdt/fYmYiFgIWBNWqvpNOUStrXQx89pC6zebDzFbQp7hzcRCwELAcvH799VPJRlXTfDxF2Ysqf0Krj+y/mtm7udRwUsBKzh513S13gXfNNGjVfbyrfwoehDnHs0TNHSy61dwrKiUMBCwBo+YKXvA12wJhDUNPyZ6aZl5ns1/4atuv/q5a2hgyMKBSwErKEHrV32T1KwCSuoqveZnRA0YaWWXKtuXtFpp4a/5tWzA3QELASsgasC2bML9Zqwovau+NRenrO3G+VuLFK2c+jx1tNx0e8uYCFgDRuw0jfRKTdoRXX5bGvfwyXXd+a2YNU9oXH91tZdM5aAhYA1aMDaZ/8m5Solj8qjdVyp4ljyGU4t1dzrvtvufRPW21UzloCFgDVm47AmrH+4Vh6tA/Nwyfmw1Baswgc0Ni5hfQvzDzOFAhYC1oABK3sz93KVkqC/+3Of7YE9SBXrClt36oAlrO/fWXsDlICFgDVawErfpbBYpSRqod4nv9njSjh3N2ubGcICy4G/Pmeu4V3AQsAaLGClH/hcrAkraKupzzZMxzUhVWzpTq3TnL3dXszWWAIWAtZQASt9M/fTlHfJZ8shgU1YBQsKqZuK1N60afM2gqNDdAQsBKyBAlb2NtDFWluK1+0Cu5nrdcWktnKfir/e7m9juF5MFQpYCFiDBKz07o3djL/Gp//ouCJOvX3LU1uwqk9frd+GcbLFu4CFgDVEwErfzL1UE1ZQPe/zZbu4QsW13J2aWqQpX1e5j5Ow3o53qwoFLASsAQJW9jkbh0o/RtCuFZ+fbwqs4pQrI2R+ClzLv98GKmF9z1gP7VgCFgJW94C18bP8T9CxuZ+v2gUOo9UOMUlNEJf6L7jH22BuMpaAhYDVO2BFhYoOA/m6/p8cV8ZZit2nqcsxGnReb49vbzIWAhYCViHZzRuFBvJz/Tshbuv9Q7H7NPPQgVuHN9zyNiIZS8BCwOobsLI3cy80kN/r/8WXae/XzALNo8Mbbnt7e5OxELAQsAq9l/0ufwoaob5SswvcVqNWE1bqfiI9Bvjz27Bu1hUKWAhYDQNW+oHPZQbybYc/OK6QU6uxO7MF6+Ydl+9439sfS8DCy6dZwMrezL1ME9a+w40QF4drbV6e+Rlwb/KO270Nzh6kAhYCVq+Alb2DTpkmrEeHvzcuDtc6xSizBavN9NTjbXgHZ+kIWAhYfQJW+oHPk/0OX+uYDty3rFLnUWZx5tjmJTfiVg3/5rxCAQsBq03Ayv7urdKE1aMeEnddKp2/l7kHwanPW+78NgcLCwUsBKweASu7daNIE1ZUbWjb5Ua+e3zLBc36r7m4jGVhoYA1it3mu/3yY+c//j9vtt48DQNW9mbuRZqwgook1x7/zGKL5zLvz06N1bu3iTgUWsBqarPZXJblcTgcPh5Mjt/+r+7/iV0CVoOAdffLxN0hX920MrAJq06rS+aJmadWb+7lbSpHCwsFrC7W3ypUp8OzB5rb97h1Tq5vCVg/t0/+ZWrE8C4TTjPOjWXGhkurl/iw+7n/IgGfNb0LWKXLVctyOITME33PWptNwgMhYBWdgKnShBU1ubLucyfXOSEm8+ltNnpv3iZkYaGAVfFZ3C/3Q04DzvFwWJZ9YFFLwPqF5M3crxV+g6ANpr7e2PSY67qsko9zunZ7qz/epnRdLCwUsKq8sDaXx6FGLfl2uC/ngJKWgPUL2au7K7RRBIXMry/N2891XVbJc9iXdi/329ukbN4gYOXPhJyXQ8Xt6L4Frf0Lm3EErF/I3sy9wmKgoIfi631N27muS3ZRpt+YvXmbl4WFAlZetrrc62+Tcjgt51fMHApYv5K8mXuBZp+ojLnudLEWt+et4Yv+8fY2d8aysFDACh4+zo9WW9AdD/dl89RvRwHrV5IPfC7Q5xI0S3psNX4W2aEsswXr0fBtP+8k4Z9s3iBgxVWMl1PXI6qup2X/pJglYP2yuDl9E1bQXmDP2FRpP9s9m9mC1bKrZ/OGU6EFrIhwNcDZCU+JWQLWLyV/8+5n+QGe0TIdWNCpsUNZ4pTXsed7fxGwvm/eoOldwBKu3vlFcl++0pslYFUdw0pMxESFlqe88ePScI0mrMQWrHvTl//1jTcLCwWsV035XE5jPi+HzxazBKyyszAVmrCC/v7nFETijjYqcUxM5hrXrmvS1sc3/sxYFhYKWM/8GN/fB29yPDzOH567ELB+LfmFnN2EFVTBe07XeNy2ZSVmyBJ3aTu2HQXOb/zvMtq8QcB60pfLoKWrHxQ97pePpCwBq0pVpGSlIGhK5TlTboElnd3ct+ap70hwf+Nvl9LCQgHrqxODy2xT7+9PWQJW6S/e7CasoD/zSU3jcRXqCvuYJ9bjz30Hg602rH9nLAsLBaxPp6vHrLufXO/n339oC1i/eR8nX8Pcv37T6x6Iq04UaPLObMHqXPTYacP6wXvG5g0ClnT1me6Wx68/TwSs2gk0dygLWtb+rI074/aFLbCReWJt9dB6UNCG9eOMZWGhgPWxT7zl5rF5+77/+/LTUxIErDKD9g/lNmEF3R3P2vUgcF/Y/A/+xGaiS++BQRvWzz4bZCwB671TOxdz7X9/eE4/bMsSsArPxKQ3YQX9kU/btzNu9ie/Cynx67H5dJI2rF98jFtYKGD93v7kUXnfhKGA9Tu5b+PUJqyoitDT5kHjHvv0LWB3k96TT/lo0ob1y4xlYaGA9avH5+H5+dXzc1o2Atb7JW/mnlktuHQbsC/zhIzEqeul/RDhUMLfsHmDgPUT54PH4x3jw5+lLAGrcKkgey4qqCD06HitsgegxBr9AI06F0PAb2c7LCwUsBSvvlrKErB+K/eWuo//lz+x6yPuuuynvStvI4wUGt3f8xnuVGgB66+FX51XDXkXVx3O2rVgRRZkk+fJEuuqjyEGC43u73v9WFgoYH23PduUQcB6heQDn/MK9UEbBj0zQi5hlyV5L6jEOa7NGOOFhPXe59PCQgFru5gbFLBedG/l/j55TVhBpbtnToJuZrlv84r1x0GGDDu6f+Cay1hTB6y1GXUBa8TB7C21CSuoJPzUBDlLIec44f0oYWWysHDWgLURrwSsAabKAmbQPvbZ0nEOdJImrMR9BsapZTgz58MZa/aFhRMGrI1tGQSsMZJGRAD5gKDes+cGyLgmrFPmLbl4XiWsDJOfCj1dwBKvBKzXy+2HzWrCCtph9blTTnErElJ7kfJee6eRhg8JS8YSsMQrASvXkvoDZTW9BMXK554cHLgiIXP9+nxx/zV0l3xyrnDSfqypApZ4JWDFyN3MPakJKyqqPDmnxFUbL4mvvry7cbCRVcL6dMYSsIYOWGvxSsCKkrvF2nrkQfzZM21xR0cmTpbllVQPo40jEtann9wJ926YJmDZmEHACpR74PN55EH82TElrgkrcY/9vI/Ly3BDiZHkC4/AY7J2rEkC1nZxbwtYgXI3c7+PPIg/e8QObMJKG1wSt74dcECVsL7iOlU71hwB62KHOAErVuodl1MqCfrjnr5fZ9x0bloXSl7ev444akpYX/wA3KxmMUPA2jhzUMCKlruZe0bZYNP18scNl2l7mufNWD+GHDYlrK9+Al4mKWONH7D0tgtYCXI3zMlofAk6TfjQ+FKllXPy9mXbjTluPryGlbEELM1XAlbWjZf6E2WsVwuq2T3/wJnAffe3s92Mt1EHTjuOKmMJWKu92UEBK0dq4TRj0/CgrrMXfPfGvSSSlqnntWA9hh05JaxnvKfuu9XYhg5Y65NbWMBKckn9jeLfW7u+Vz+uoyYpb+RNaA288dHZyqlnOIy9/+jIAcvaQQErMd2n/kbxTVhBX/Sv2LcyLgsn7bqZ1oJ1HHns3BlfnjNTuAw8UzhuwNpd3boCVqLU2en4JqygMtArakC7we/dvKx/X43MEPO0mcJhtx8dNmBpbhewcqUuNIovHQTlyZfMOcWVIlJWTuW1Cw1+NMpWwnpaFB90TeGgAcu3hYCVfg+m/kjRTVhRVZKXzCbE9WouGXdi3q5Nw68SsyHW0xyGjFhjBizlKwErX2qLRnQTVtBCtdfsJDV4E1baZPVpNTxDzfPcBux3HzFgKV8JWNN/3UaPbUEToq9ZhhdXbMzo+s5rwRp7gdh/viy0uotYUwUs3xQCVo1Xb+aPFD2SB33UvOgFHDdIJuz7k9eCNcVxKDt7LYpY8wQsJ+MIWEXkbua+G/JvfdFqo7iXRsIhRmmV1CEPev7BvW/IEbFmCVgKtgJWGan73MaO5EEnPb/q5JW4qndCW9JtjlvQpImIJWC9+FvCog4Bq47UzdxPIw4xr9pXaRM3eMRPYaXdgsNubuS7XsSaMWDpbhewSk1XZ/5KsU1YQbMkL3vvDpw60mL+JDOEfzzqhp4nR6xBNm0YKWA5HErAqiX1rRvahNU9ncS10YR/m6dNVI970POPPLyYn2uMfbHGCVimBwUsvRl/EdkBEzTFdhzgSoWfHpP22blbTWXj+/7JTgPMMQ8TsNRoBax6c9apX4DjTUO9rq8srgnrOss9eFtNxmrC5xdB22/0MUrA0mUoYBV0m+R3CpqGel1RLnBLjeAxI60Fa+yDnn/8WxuFnl2z7r4SdZCAZZ2sgFVR6rR1YA9D0MDywkmnuAJ48AHIaS1Ygx/0/ONyoXmUpxdCe7diDRGwtif3oYBVsrCa+TvFHSwcNA31yoWRcT3Kwb3fWUWV42pKPvWfrnUr1ggBS/uVgFVV5pxBXBPWuf8ftB/wsqxCm8vMECpivSirL31vhwEC1s7Et4BV1WmKHypoJvSV79ntoPdvWkVlhoOeFbHMEw4fsM5uPwHL3fkjYW+l2wB/z3W8y7IK3eDrH6Y46FkRK6wg2vR+ah+w7O8mYBWWeuBzVGV9PcKFvw93Wb7LuvdOq5ktZlWePk/YsyTaPWDZXVTAKi3zYzaq22c/wp9zHu6yrDJbsOadIfzjm8OeWM9/bjo2u/cOWFu1WAGrtssEv1RQFfm1lZ/1kDdwWj/QPAc9/+yrQxHr6UWshptitQ5Ylg8KWOXv0cxfKqjb5zrEXxO3KWzgGTJZhZSZDnr+2de/7hVFrNYBy/JBAau+zM3cY7p9ovrMXtzmGtdtEPchntYCeFmx2pknnL6I1ThgyVcCVgOZ37Ex3T5BfT6vLorENWHFNYCnbXQ7/Qzhf+6pm9f1sx+eXssJ+wYsc9wCVgeb4X+qoD6fV++AHncqctwm51npfrqDnn9aQrSe8OlPT6szmNoGLNtfCVg9ZL5hQ5qwgiZC9uNcqLD6TlaT6mPFf6wtdH/63dWoiNU1YMlXAlYTmS/YkCasoL/l5W/VuF33o/YwSGvB2q34Xw1bK9aTXfvcX00DlnwlYHWReeBzxGKuoDnQ1886xe2ocR/81jND+I9HRCvWk6cJ22yz1jNgyVcCVp82jMzfKqCYHtSC9fpQEteEFRVAslqwZj3o+Rcjloj15FusyTRhy4AlXwlYjWQe+Lwf5s8L+GaNa8IKGh2u49517Vx0u884TdgxYMlXAlarV2vib/UYJpYENIbH9crEJJCsTW6PK35Qybag8Ll3WYsY3zBgyVcCViuZm7m/vgkraGItYlYt7lyZx9BvyrkPehaxoiwNrnm/gCVfCVjNZJ7o9PLJqKD6XERbT9yWZTEnyWStX538oGcRKyzJ12/Eahew5CsBq5sl8cfaDzKKhxyRMdg9nNVYvV0hYoV8qJQ/MaBbwJKvaPdS3SX+WI9BRvGQlta4JqyIHWCzpqbNEP5mDLOi8GmO1VvdmwWsvVuKfq/UxDfqdYxRPKZvOq7UGNE+kvUx6qBnEStO8fnoXgHL+c50DFiZm7lvhxjFY6oicU1Yh4HvOgc9v+NOs7t7p2+VSQKWfEXLgJVZeH1xE1bQXpYxVZHtUDdx0tvyKj69azBzRuGTlN7WtlPA2spXtAxYq8Rf68VNWEErJDcx1yluvefre0eyOv/MEL53dl2/+5PK24VXVTQKWNurW4meAStxM/fXFhS2Y13zuLNlXh9Dsva3ddDzBybYjWlPecfVTViNApZ7ka4BK3Px60tfPkGTn4eg6xQ3l/v6prKkUO+g5w/ZmCkcOmH1CVhuRNoGrMwDn1/ahBW07m4Z7jq9fllk0vzTQ2j64D23WFP49YRVdWVFm4C1uIloG7Ayy68vHfGCFkNtxrtOrx4RslqwzBB+onB68lb/6gdL0fuuS8CywSidA1bigc8vbcIa7ZLHNWGdx7zjHPT8KWtlrDETVpOAZYMGWgeszM3cX1grCdo4Km7lf9yH3KsXlycVRe7C0mefJU0wAyasHgHLBg30DliZm7m/sFYSNHEf19cTd7zMq5vBk262vaT0+WHOosLhElaPgOW+o3nAeuT9Xi8sKgSVSQJH7bgg/NqFT5ukQU5MMlUoYTULWGqndA9Ym7zf64W1kqDK8nbEd81rU2PSoiAHPX+9m+BuvuaTCu7W0CFgaXCnfcBaJb41X9aEFdRZdh3yZfPaec+ks+7OAtIT7GWsURJWg4C1c9/QP2AllmFfNuoFrVSL3FoprgnrtbEx6VbbSkdPCvp2bhgiYdUPWNspJ6WPh38yN987YCXWYV/WhBUUGkPLInG1g1eOBUkz0mYInzjwyVifcCh2FesHrPHvsm9halmWZfPNe0p63/+H52//J49v0UvAavG+zPvBXtaEFRT612O+b165e2pSC5aDnp/7zjBXWOdrctCAdRn1Rjh+S1X7zZPesn8krsfhMMGCy6Zvy8QvhRcllKDptNugL5xXnv9zHepGm9n+bu6izGM1XsAasAHrelgum1cuKF1vNpdlGXdSsembMvFT4UVzbEGznvdB3zgvnM1IKpdeV7zilnzIWFU7CpoHrLEasA73ZRP7jfctat1HS1pNX5PrvF/sRRHlMeQL8zjAjbxXPBjL+mIvyHertB1W8YA1yg5Yx8Oyzyyfbzf75THK9GHXl2Tez39r/QcFvy9HaMJ6GNmGo+n93aNtoZnq2gFrP8LlPjz2ZS74dnNeTt274ru+IRM3c3/JDRg0DxW9OXhcf/jrWsJzsvxtxWtf35re3zdVXWezhtIBa939bjqelk3JB/Vbzmpbz+r6ekzsJ3zJLFvQ50/00v+4HQ5e9pcltWA9Vrz+9tSQldYTMVrA6l1qOSzVK+brzXI/9Auxbd+Nt7FeOEGlnvCl/3HfX4NV/jcrQr7UFg1Z1V4aHQNW4x0abvd9mz2Nt5vLvVWUbftizOsofMnkTdBNE/6ZEvcwvOpPy5mMdtBz4LfxRUNWrbdGv4DVdoLwujRs9lxv2kwatn0rJrYUvqIJa9RhO64J61XrI3NKpfcVkR/G55OGrJ9/UhYpcBQOWD0nCK+Xzpvtbc6P+j973593qJJ5UK9S/NkXm+6RJGlDkL3QE/7Jpun9Z4qc2lQ3YHWcILwtI2xlvDsvpTuz+v6yp5FeN0GFnoS9lXrP3KYdeynvpLytNb2HfVOOFLD6TRAe7yNtA7Pel61l9f1R8w58fsFEW1BaTOicjpsqf833WE6vn4Oe097VdiH9kRLDcdmA1a2H73Dejvfk7s6Pq4DVfu7mNW+b47BXO65H/DWzajkljfOKvDeLXUj/3a1TYUSuGrB6bTE6VvHqHzbL6SZgdauNvLxgHrSr12Hol89Ldo5KivHbFZnsQhrydI0RsFqdQXhbhn+3rPeFSlmNf8e8xsJT0z8l43i7uH06X3I6cs5E9GFFfl1CQ9brC8QjBKylUbyapjS+KdL73vgnzNvM/elNWPeB35FxHxOv+DTLacG6rCjxirEL6f9eevmVj5oBay1eVX18L/nzhZ1/v7wfb9fzL0l5RcY1Yb2ihT/nK2i9osp8w+UgXL2mbj9IwDqIV4ULWQJWh6H7xRWGoG+ga8pViptke8EMaE6V9LqiELuQFpkkLBmw9uKVgDVmwMq7tZ/8MReUQXL6VOMq6C/oXMrp81tWVHvXaHrPnyQsGbBaNOodZ206ELD6zd88vwkrqBS3H/0N9Px/e856/d2KeuxCmn1+U8WA1aLD/THtqmQB6yvyDnx+7hAY1Em7Hf0qPb8JKyXC31bUNPsupJvcn79gwNo2KGweJv5gE7AaTK29uglrO/a4fe55VVZpLViPFXUz1sy7kCaf+lwwYN3LX7Pj1JsWC1gNksmrm7CCesmyCvzrnldlldaC5aDn4q+deRuycrsD6wWs+ls0nObes1jA+pK0FbJPbcIKasFK+5I5trwqq6wWrOOK8mbdhTR1A5F6Aat6NfM4+8eagNWwwvDsJqzD4O/GU8ur8k3KrXVf0cGUu5CmnjFQLmBtil+t0/RHbglYTSu0z2z3GbsFKzIGn0d4Os0Q9nn/zLcLaebdWS5g1b76RwdCCFhflPYNeWh3D+RtxBzXKv7k4k/OEmwHPXcy2y6kmX3u1QJW7QLW1W4vAtZXPQb44YKG8cTPmbAR6MlVupQP1JO3YjdTNb0n9rlXC1ilC1h3H2oCVqPiyD9tuj2mid8zcU1Yz+0zS7mxzt6KHV9E0zS9H/P63IsFrNIFLK8RAatVceR1H3Ixf0Lm2rSmTVg5D6cPz6Zm2YU0bxFGsYBVuIB1ND0oYD1F2kZvT2vCCirCnaa4y5+6R2dKC5aDnjtnrCl2IU0bvGsFrMIFrOvasyhgPcW+/S8XVN5JXVHSM56kFCSs/Oltgl1I07ZqqBWw6hawDqrgAla7sftVTVinXv/c4u+iJ75acs4J8O3Z3+i7kGa9S0oFrF3Zy2MjPQHredJq8s9qwrpNcKHjJtueuE1PSnHUDOEYht6FNKuEVSpg3eUrAWuCgHVu/pZZj/1OjL7Nn7iIPGULEAc9D2PgXUiTSliVAlbZUwgtHxSwxrjRWwXE3FNa4yZynxgkU0oQVv+MZNRdSJM+1yoFrLt8JWDNELDyNnPfdHpQN7kX6dDvhk5pwbp5JY5myKb3nNdJoYC1PcpXAtYUAWvJ+umeUxS6TnGdH/1e/SktWGYIZSwlrAYB6yJfCVhzBKxd65dMUJ0ku3c6Lq08bS40pQXLQc+jZqzBNshKKWEVClg3+UrAmiNg5d3rjZJHdmUkbr7t1Pm2OnojDms71CakKSWsOgFrX/KiWD8oYLWefnrBV1zQPz69MnLtllHW3pA8O2MNdJhORgmrTsA6yFcC1iwBK+1rYunzpKZv7RuXgp+0Di9l+w8l/tGtR9mDNOPorTIBa+2KCFjTBKy0A5+f0dg0RwtWZAp+0lkzKcuwHXExwzt/jJb3hCMHygSsR8HrcfXyELBeI623Ydvl+ucvTov75ntSoTyj0OAbdA7b8wBbkCZMSJUJWAUT8tEZWwLWi6Rt5v71zqagPSYKTD2FBZbnbCWVMglghnAa60f7MlZ8xaRKwDoXvBp2KBawXvZBmPXjfb0wFPQlW+DrJm7Kbd32HeojdCbdd26IPxyiSsAqeOF8mwlYr5NVcP96a1PMZ2yF/cHPvd4195a3E8pYYeLfKkUCVsEWdwsIBawXSttW96tV8t08j1/cW+kpDWcZI9/F+3A6nbuxwvd+KRKw6u3irsFdwBryk2Lf41EtUT8Oa8J6RiEo5XgAM4Qz2t27BqzwzUaLBKx6G21owBKwhrzlv1osOU30/MU1Ljzhcy7jI9VBz5PaLk1nCqO/CGoErF2566D0LWC9Vta+JF8tlsQEwxoHsMRllidMXWS0sTroeV7nltuPRt+xNQJWuU2wDp4fAWvQj4qvFUuCpjZPk12jJyxvyigpqPNPPRI0bMaKrrnWCFjVsrAdsASsl8uqsX+tWBK0su4y2TX6+hfdboLRimpjQb9mrOA29xIBq9w5zyYIBayXy3o3PTr8q4uURk59buqMFiwrrae37haxgmvjJQJWtWtkglDAGvez4mtNWNeJWrAiU8umTxZMqwYgYmW3SLQMWNUWJJggFLBeb9vxDRP0jz5Md69/uQkro5PCy5B2ESt2A5gKAavaDOHikRGwAmSdXrCv/6yWeQTbzFxkPJVmCOkXsWI/3ioErGJrCG+2GBWwImSdv/mo/6xuqlyjsHVSX60GLQk3ksPE+O+o0GdFYegEVYWAVWwNodeGgBXz2dewCesw2SWOyy1fbOvPGN98ifKXceHaJGCFLmErELCK7TKqw13ACpL1RvrCJ9xsz+Cmy2s/4TY6eRfyt5J8j93dQw8oLxCwllo//8aDUvx6+SXTarRBeaNQF2STuJLx1WMzG/5uu7RIWJFzhAUCVq3KogKWgDV67fZe/doXWv4fNvV2a/dQWmzNP607tGJFfhnkB6z1vOlWwJo7YGV1H35+LA96fRZq7nn0ePMkfKVevQr5twbzhJFz2/kB61zqt7fyWMAacfR+0lh+nG7ojttD5iuLazL2VDNDyA/vxfpbNgR+wOUHrFOpn14BS8AacfR+zlgeNKf5qDRctPi2y7iRHPTMj21uxQNW4EYB+QGrVEVRB5aAtRr/5v/sWB50ckypE1jCJt++UrdLKIU66JmffpU8ageswHmq9IBVa5MGSwgblBz9llmDY9A/t9T+SnFjxRf+7IQWrIc3IT8vqZbuxAo84yk9YJVa2Klv8x0OAtbTZDUgfnIm/Fg6/r1oqAi7KJ8v3GW0YJkh5Fe3ZOnlhHE3b3rAKnUdbOIuYMW+hlrd6EELfu+TXqLP14QSWrAc9Eyj0sk/xG20lx6wJq0cClgC1ipvE7jPZZhz5fT3MmEdu59vAL13uYOYyKbuNGFcr3V2wNrMmWtlAgHru0vOT/i5WbigcbzYSt57/Rs7YdXW3ouQ31W8655OOE3AKlVHtEdDi5rjUO+gTrf6rXD4e524PrlNn5tIsZ/f256qBqyw1WzZAatSC5bDSwWscElbxnxmGm4752MYF18+W0E/e1dSU9VNR8Mmq7IDVqUfXYu7gBUuaceYz7TQBLVSl9shvHwT1t27kqLONQNWWBNWcsCqtAuWqneTSzbUz5nUhPiZebigLFhu/f+9+hsooQq69SKkc8KaJGBdCv3k1sVUTgSjBqyszdw/0YR1LZ0yRnhJfS5bJrRgmSGkd8KKasJKDliVpmitixGwRq6PfHkibtaxe1f5ouSMYA56pnfCirqDkwNWoVMhzRB2eVzG+j2TDnz+eI7ZTDt2H+telFXOeUvWW9M7YUV9x+UGrG2hX9wM4fssAtYIz8Cx6oUveBxoWIL53A4V8ZPMjhTjIy71AlbUZjC5AavSNqNmCAWssYfvL/b7HKa9unHjw2cqQwmrTuzIzIcU3K0haJlGbsCqtM2op6B0Hhj3SiV93n14Ki7mn3UoeIXiIsy5x/3joGe6jRpJlfLcgFXoZ7cuplYhY56Ate5xwweljJLFkdJ9CvEv0Zu3IB+zLXdqTtCLJjdgFepxty7mna4C1hC/6EebsIIKJZuKVyjso+IzzU3xLVgPb0E++n1W7eTnoIpKbsAq9HtbF9Pmmo32iyZNlH9wnuc08cWNu0If7wxJaMHaeAvyUftiASuoDJsasDbT/dwCloBVYYj8RM025gu05vq0uBfVx5faxLdg2dCGT3gUS1gTBKxCqzdt0tAnFA/3m+bMlH+sRh7UKVZ09qnw7NvBu5IWirVhxdRhUwNWoUzr8FIBK03OIuaPFSKCNgssullKWIr5+CLK+BvHhjZ8xrpWG1bMkJ8asA51fm0Lj99pEbCebt/gng8KgdvZ7/oGHzxegnxKrf1GY5YRpgasOolWW4GAlSjnQfhQE1bMNGbVLcLjIvCm/PNoQxv6V1SidtxLDViz/dieEQHrh3L2g/vISBl0oE/VDQDizjNayj+Puin4pHWlgBWzri0zYBVaROjsBwErUc5pqB8p2+4nH7zDGnQ/+qkXf9tsvQTpO/8RPI5kBqxCh2zb2aVR1XG8HzXpwOcPNGEFrUcpuxvdo+jdHf+RqtjP5xXaWjym7zozYBWKs77KakeB0Ztsc1YwX6r9A+vuRrcv+tp/VL5pIO05KlJVyQxYdU4i1ONe94t5ioCVs77mA8WImH9Q3R2WtkUDTHwyd+QFX1Cozz3kUyEzYNX5rZW93+ssYL3CrvgvGZSrC/dPh81tfGiRXnxB+eodSPMv9MjG68yAVWeXBqeXvtciYPUevz9XJA+67IV3owvbDPZD1fT9mKMSSljFPmU6BqzJioVDOAlYL5FzqMFS661YeaY+rnS7Ln3b2JGZQUpYIfNWiQFrVydgWUT4XlcBa6DXzrtfMQN9Un5S3BY+58qP480rkEFKWCH3cmLAKjQbaxFhp6rjkD/ssfJPGfQtVLqQHDaJ+4FO//gWLM0UfFGdhYSDB6xCJxO56ztVHYf8ZXMOfN6UelR3LtDHPqz3VW8YyP9UmTxg1dkGyyLCVl8fQ/6yOcsz39mEFdN5V3uzlLjvwffX08NTuf1sGKeyEvG1kBiw7gJWO4uA9SLbynf+0WMYWLzd160F3L0C6fmqmy9g1Vmvaenxe50ErLF+2nf909Yew8guuXf3OcWfnbv3CmSY0oqAJWAVcxWwxiqcv+sdcx7nfdchAb97L8/4aWWrgfi6/UTjfmLAKpOvKm8gXcybgPUq67rvmLvrGpqAy1YCTt6APMFNwJoqYFka804bAWuw6uChzvuweifkrtz7KHyc8iXKMzwELAGLzI/4CQPWo+qPuR3ndfclx2Iv/viapxlCxvlQD9nULS9gFdpn1B1fdU5ipsuVs8fYOz4uglomyjdQhzWNvrOWF96C5aBnmn2rpNfMBSwB6/2uLtcLpXQmvKNaElRaK18eWYrd4eHrTh3Zykhf6gKWEbsWl2u4t847qhLXKv+QaSY23relfXgZYO0NyFOcBayXq3NSjgNMe2XiUX/enNXLvy8cjdMQ0eX74l2lovApZTOEPMlawBqo4F7hdx7CRcAar0D429anTZF/R76wJqxTyafRQc88y03AErD4h5OANd7v+yjyoDZYoRb2yjqWvFt23oA8SYkmrIiSrIAlYPX67Bg4YJ1LvmVi6jYd5unjpsjf0+0U3YKlk4LBJkOGDlgnAauZtQv2WjmnoP6udBTzr7i7Pn/xjh09w1uwzBDyNDsB69XqHEXoAIjCBZapEnHKNhj7EmWbs+vzsbh5KXafwAcIWPMELGc9v89DwBqxcP4o8W9aewI+Nh0X/f48egHS/FtSwBKwPBMTB6yUwvlvmrBOVRJFAXEbaVTZPKPXHC5tnAQsAYu/2r4JWK+Wsozg14N5TC/1ySPwsfm48D3pzBDyRIuAJWCR8/k+b8BKmYXdFyiqNTmFJayI+yg3QDnomdFGk6ED1puA1ctdwHq5lL3yfzmYB61s2HkGPjJvG/99aiUQ7d90ApaAVddNwHq9jGPmr/mRoksHddxC2m2x1+fZC5An2gpYAhZ/sX4TsAYtE27TY/XJQ/APm2IFAAc9M9z4L2AJWGVcBKyhSiTva8JaewRzyri/+UWim/Uc9Mx4EyIClrd7GQcBa9TK+S+asIJ6UTcqjB+7x6O3TLl4ATLceCJgCVhTj/zzBayU9841vVKiwvixnyT8aTRDyHABK2LzPQFLwCo2sswdsFJmYtfJlZI+FzRuK9hfFvX2Aw5FCFjjjSMClsOe3+VUKGCN/LpPWUtwTq6UNPrECVvm+ctJuegWLAc982SLgCVgkTYnMcaM0idkHEj002NQgharbfpcnrAPjVOlm2TnDYiAJWAJWC9yEbCCZGzmfkt+C3oQ/u1Y6HPHDCECloAlYA1VV5kzYKUc+PyzJqyYRomry/OxqlF0C5aDnhGwBCwB61XWbwJWlIzN3M+pD+nD5flIY1z8drQOembAgBXx3SBg2UTvHR4CVph7nVfNxvidVNT79es/eJPGoxcgAwasiLU1Atbo43XbqsoYTdEfl3HO/E+abIIajrYGhg81PkXXk80QImAJWALWq5zfBKw4dZqwYpbM9aogb5KvScLj6KBnBCwBS8BqPy0iYCVtOXZOLFw2K5Dkdz5FTyJvvQEZMGBFnP8kYDkHotBHu4CVVC/8YcjZZYY7Xxs/7f0PbsE6eQMyYsCKGEYErOHH66+7VwtYYx89m7Fk85aY9NZGhg9NnUbfH2YIeb6HgPVaNwHLgF948jxRxqZj67Rg3W0Xy7h67rZGhVOBn8aF4J+LOJ8gL2AV6uu5uN1bFbBGD1gZ2+af076Buq1Ri9tG/ScffsE9enaxYczxP+LPFLDGH6/bDChf704ZQ8Zm7ve0ymW7Gahr8nspeM8Un58IWAKW8fpFlnoBa/S99xOmz38wURe0IVe7g4Qfubd5dPx20DMvkL+1YkhvgoDlrJzfFLCOAtawQ/gvO21i/hX9tgmP2wn2h//5y4DDENOZZBQRsHQZtCtgDX/BMjZz//dMUMxUWL9NAJKbsIJbsJT3af0QzRqwKrVOu99/av1Wkfr564PONivYlRfWhHUpcG+YIeQFCuytGNJ6nRewKlVGbFXcIgfPE7ASfvVj0iuw4QAeNoP7o+reLvm2gKZFegEri42wehWwht+aJ2Mz913OA+rqfCzdBLdgOeiZQYf/vYAVxV7FP3OoGbBGT8QZHQqXlEvfcb1C3FfHLv2J3HsHMubMSMggkhewzoXGaxth/cTmTcCaJdj+cz7Ko/dTYdto/ODLzwwhXnBtGoPyAlalsds+DdkjiUT8dwmbuR9Tns+WUTns8/ue/dp00DMvMUsjr4D1Zq+Xn1reBKwcGb1vu4yI1/LqnPNeTMGPpOYJRnm/pVRVBKy+r/nXPwXHqgFr/A/rhNrh35uwTgO95foOD+vkqRXrq3mF/SxjSF7AWlUasC0j/JFT1Xw1wZzuI/uNExOum5Yiw748zrlvTTOEjDo3EvPqEbB+8PFOla+MeXtvd8k/atB/v+kitbBPj0fuM+m9yEsU6HGPmf1ODFiV5p/s9vJv22PdgDXBnG7Cr//XJqygNqOmU1BhaxCuuYXNtdcgg1ZXYmatEgNWpS2WnEaY+JX+9YbsESVsFHMJ/893fe7i6ov/SKBXr0X6q9CAHfOXClizVEQ+al85X03QNJfw+/+14yamyb7tScJh9cW/z6EGb0BrhpCXKNCCFbRzQGLAuhuwCys9QTjD1rAJm7n/pQlrnREflHd/d6MHp24HPTNqcSVonVRiwFoM2EaQ6Uofpa/ALnokb9vjs+SMA7EtWLYHZJSPx6wRPzFgXSoN2PZy/7tz7Xw1w/VKuASX4JG87wge10Tyt/9sbAvWw3uQV6jQfhK0hW5iwKp1zp27/q92x+IBa4KP63VmbI0ZyRsv3k1pXgj+8tc3wUtU6A4Kmv4WsLxMfuD6Vp2L8MpfNWgkb3wQS1gXyZJW1HTQM69xnGcASQxYpXYa1YRV7QtDIF7yflUtWGUuzintubQ5IC9RYYYwqsdEwPoPW75kfShPV/x4r4TN3JfQ+NB5njes/v7XOlLsAZV7b0JG/X6P6i/MDFilNsJyrOn/BvZjg4A1QwNu/IHPh9BHs/VJdwnNIsFded6EvEKJHYCiPtAzA1atnQDO7vz/3P/XBvlqimWfCQc+h6aH1vtYhj0ll6TKsoOeGXeCJGqLt8yAVWojLO+Tmrl35g7chF6FP5qwNmO95Hqn33vS1IovTnp/mlQYPjID1tmIXdDy1sMM59DG19KXwHug9xMXln7/16kWO2WsZ4JX2FUYPcImQDIDVq19GvR0Fky9k1+uU9KLJ+a/27tmHLcn1Z+fEusxhyDmUmKJetimAZkBa1trxLYquUuDe+wjMlfaDaycNb+CYTMdf87VxR594aBnxh31w3b5yQxYq2JDtpp4o3w1xRf2NufNsxvsJfcaYU1Yj5R65trbkBeo0YIS9uemBqxa+zTo6lyt++SrOXrm4p+QJa5Uorz4Pn9u0Rf6cNoXkJd8M5YYYuK+zlMDVrENw6fvOuixQcOfdhNckUvKQ3D3uL3nayS4tB7bHOxkC8YtYMXd3akBq9qCtcmr4r3y1RQFx4QDn8NWq7UfwsMW9e0TwvZuBYMWsAK7E1IDVrFlhJN/tTXLV3MsSrglvHvWo73kuhfg/3gvhbZg3VYwbE0l7g9ODVjrYkP21FthdctXc4wB8Zu5L1HNRe2vTVgT1h+TqaHf/o8VPH/Er1HACuxOSA1Yq2o91RO3ubfLV3PM6MYXea9Boa5/F3Xc9+EqvAVrs4K+Rd9fC9yCJDdgFVtGOPHSmYb5ao44HP8NEnQrPFybD8Wd0MkVx1owxOdieoNhbsB6VBuzZ/1w65iv5mjCiv/mC5r5GmAn/rCuqCX6Y9Smy7xAkVEmsrkkN2CVO5dl0p0aWuarOT6z4w98DroXBtjWN2xd3yl6V2bHhtH4eSn0+ZAbsHblBu0pVyf3zFdzXKzt25hGmI0Pe30do2dXHGrB05XZxjry8yE3YK3KvfdnrI13zVdzHJd2GjNgDfGghY0Yu9gWrNMKnq1Mx3XkH50csA7lXvzzlbB2t66D9BRrEi5jBqwhViiEhd9L7JvSoWGM+yIL/XxIDlhLuRf/dF1Yjc53nnImYz1mwFobMz40JniuMM70+3xIDlj7em/+yRYSbhrnqzm+tK8j5qsxdokNa4y6hb4oHfTMsxXqQwn9fEgOWAVbeOd6u5xbD9NTXKtlxIA1SK9j3LSG3kY6u5d59cQ2GCYHrFXB/p+ZGhC6N/jMsJn7bsSANchDdhjx2sx06P36cvrvEHQ4LfuJ/vRZP+RjXz3ZAete7/VynKcD4d59KJjieO7bgGP4IGtJhqwuzlPD3/w7IB/vZx1oQ38kxl7e7IBVcYpqloNOt/2/v6c48Pk+3hg+yh6xmxED1izvv/XP3n/Xi4z13F+6UKNv8BYk2QGr5BqpOfrcdyN0T89wqfbjjeHDbLQ0YsCaZKeaXy7vOdnL/olf8pVGmuDmhOyAtaq4iG2KGvn+OMJgMMXGsMfhxvBh2qgHbMKaoir8+8+W26If60lKfckHFyfTA1bJ+Y8JWnsG2b9yioa58TZzH6ZI8hgvYM0xQ/iebZmUscYb4qO/yNMDVs19AkafedoOM2bPsObzPNwgPk0dpKEpUsX2fStHbrqxBiuhRN/d6QGr5kbVt7Gfq904m1fOMJ073IHPB5embk14ilH//cs/7/MdnjZwvgqf/04PWEUXoQ993Ol5pKaeGTolRtvMfXFpypqiq/FDn/VXGzeMkq/i57/zA1bRRejj7ma8HWvZ/wwtI6Md+DzQDPxwTVhTzBB+8KodHxrexxjdw69jfsCq2sUwamV4N9g39wxTGqMd+DzQpRmuCWuKas3HS/gHDe8D5Kv43oT8gFW1i2HQ9WmjFUPmaHMfazP3w0BXZrTse5rgafrcqhEN7x8e2g/GivyAVXYrmevWLW+4NhGlBWui7DvHSayfLKwc72YKPzLYlJsrSZjtKBCwytZUxmv33I+3ZeUcbe5jHcky1GzLYAcZmSH89dfcFAH0KXb1BpuEL7sCAatukX2whLU9vQ3pYUgwiPeabiprikMsvnT0sB3e3/lcFHxlJVy5AgGrcJF9qKWEY5avJmlzvxvEixqrCesywbP05Uxsh/ffq9jUkFEwqRCwCjeYjFMQXg9avpqkb2SkxWqDVRyHasKaojqzfPlnUsb6zWRJyV7fjN1hKgSsnbH75S7HcfPVDG3uI+0YPtj3/0hfLnMc9PyU0V8Z6+c2R8NEoYBV+htwiIS1ub4NbYLTLAYaxgf7+B9p45M5Dnp+Unnl+HCKTqcpqZShvETAKr0IvX/CGmzr9iKT64ZxVZLyBXhfKj/yvN/ram+sfz8PV++dYgGr9iuqe8IaenbwP9+S47/mxumlHi4Nj/N8zTFDuHrqb2aq8O8W43i5gFW8T7R1wtrf3iYwweKnYWZ5h1uSMM7s7RQHPT85YH3bf3Szonb5Km2teY2AVXyj6r6dCZvD2xQm+PQeZjP34dZfjTN7O0kx5gXvH+1Y32wLv6SSjo+oEbCqtzE0/bIbeWuG6YaGUVp9xsvCw2yzP8OGcq8JWDLWqujeotldJDUCVvn5j1PDJp/1/W0eE+zUMMhc74CnCZshdL3evre8z5yxas+WZJ1/WiRgla+yX7tNbEwVr6bYIXGQCzpgu9wo8/CznLP3yvrsrHWs4uNN2jKoIgGr/hqp48bt7us70yCbuQ84AC2DPEOzbDnw4jnwCTPWtvojkPbtUCRgdViJs7S53WdpbZ9sdNDnU/V5M3nrQfrbTX6fau+G7VJ9p5K8xs8qAavDmfSHHmP4+fo2o2X499jJKC76miFscrlO50mOK6wfrzLXQFUJWC126zvW/y5ZL1PsezVJaaTfR8icOXiMivE05xdH/aDXCSYL1/cGI3fiEqgyAavHNj/FVxNupmu9mukDfIgDn4fck3GIJqzrNFNakZ9996ELWU0GnMSXTpmA1eQokMJFrHmLV9nz7FFGmPsd8sIMsf5ggtMQcmZ0r49BO7K6NKNkLoAqE7DalNkPJb9ItucZG9urTLQHGWDL8DH3KxuitjjNDGFGy9xhGa10u350OYPzmHln1wlYfb4Cl3LzhPt5tmyfbvD+iwE2cx90KcIAtcVJDnpepa1JOJ7G2Ye01fd86junTsBqtFP18VzqXr8f33gbtb+n5yMy2SUa4KDIx2oaiSPHaYRK1r7ViJP75VAoYHXqFL0ViVjbs9rVRCWs/uP4oBdmgCasiXbHzH5NLfvGm/btun3P5ybaQgFr2+rCFYhY64u+q7naSNrvaDnqSrX+TVizHPS8qrFt2fV+7pho9/1mS5I33isUsLodtnY7Z36HbB5zrxn8oeHPy+k+GTzsPNTNoyNgfaKU1eiTcHs+NXz9HJN/4UoBa93u4j1yrt76ctJ2NWUJq/s+Z3sXxpURsP46hhyWfYNa1mZpuo4je1VNpYDV8SyQU/SLabu/K11N+x3efTP3rQtjhlDA+nct63Gp2/y+a/w9n96TUCpgtWwxOcadh7DdP+Y8Z1AJ6887oPfVGXez8HXz52aag55XdY+OvB2Wc7WYtVkOrSdL0n/PUgGr65let4CMtT4LV0pYzQ98HvjqNC8rT3PQ86r62dzfY1aFSu/ufG8/4uT3fNYKWH1XSd1eeRzC5nIyLaiEtWq/mfvAw3jzJqztaiId5kUO92WfVn7ZXB5DLFC/5d/WtQJW72PpX7FT7+ZS9TPiXvNaDV7C6j0VNXD67Z18p5ohXDW6MIfTctnENcFvN+flMM7HfIEJ12IBq/tGP8fD8qzy7m6/nK6VX8lFr9XgJazOVfuRT2PpfYzRPAc9NwtY/x1XDsuyf2HSWm/Oy2m0bRUrbApTLGCtRrjGt9Oy+cIw/+0r4lR9HL1uq7adDF7C6ryZ+9CXpnUv8DwHPfcMWH958R5Oy3LZPClr7Tb7ZTkdxmxAuVWY964WsDbDXN7D/YPNitvNZlkOhz737tlgoVLyEUN3UndefnBdCVgdh5jDt7S1LJtvtu8dZDaby/JtoDmMvpdiiRWZ1QLWarQy5e1bcXfZ//gJ2G023z4hllOzu/34x/eTEpZKyUcMfdxd5yasi4A1iuvhJ6bbmrrGqRHlAtbmjS4jpRJWgr7L1cbezHLX/3kWsDBBOHjAWjnAuM9UjxJWvH3b2+Zk2C46Fq0ELMYsAghYI30JTpavlLAMDyai+n8ZPgQsBrOsBKzh5kDm8NcCkRJWvLbd1INPRC0+9gUsaiizbKNgwFq7Pbrkq6olrKFHjLbnCg8+bLftHj2uBCyGclwLWCN+Ck7gH400NUtYh5GHh64fIAfjdoNPJgGL/vYrAevntkd3SNnS67ZFOWUz8vjQdDP3ZfRx+2A0ErAooFBTYcWA1XcSZLp8VbWENfTOiU13XNqMPm53rbyvBCyGGqVWAtaY34Lz5auqYXjkTcObrrMdftxuuoHGScBiJMe1gDXmEDLlnVuzhHXcDjxAtDw6bPgWrNW251N9FrAYSakp75oBq/WRtuPmq12j+dyRO35aPh3L+AN3z+a4rYDFQGrt6lY0YOlz75KvlLDMRfX7rhR8J6osClgzKXY/Fw1YjQ8EmS1f6cKK1/HzY4JCScuX1kXAYhy3rYD1Lvrcm+QrCwnjNTzs4DrBwN2yCWstYDHDMCVg/c3aJGGXG9d27tEa7mMyxXl3DVcfXFcCFsMoN29RNmB13e1nxg+DmuPKwEN6w1LJFLtZNqwsLgIWw6h3N9cNWCYJ2xReaxZUbgMPEf2ejSlmohpWFncCFqMoeOhT4YBlkrBJvqpawhp4TG9X3r1NMXL3OybythKwGETF6e7CAcskYZd8tdqU/HefjeS+LTVh/dJDwGKUfLUVsEwSjpivil6pkQePbntaTrJdeLsmrI2AxTzjlIBlkrDlfVuyhDXyFord9rScZDOAbk1Yx5WAhXw1acCy3Wib+/Zg9AjV7LTOWQbyboeo3qcMWL7bB1S0Rl47YHVc9zznd0HJEpZBooqTsbuk/ZQBS+uJfCVgfbe9uXUy3d5dd60YhXX7VDHNeSynXs/3SsBCvpo3YLWruY/lA+syKq5rG7mDt9fs+TS7LfVa+XyaM2At3uyDqTvVXT1g2auhR74qWVIZOWC12sx9nl7qXh+E5zkDljFFvhKwtGG1ylerbb32k6HrJp0moyaqlLRqwtrOGbA23u3ylYD158B9dQe1uG3rFd6HHiU67Qgw0YF3nfp7rqtJebnLVwLWf6vuVtW2uG3rlbCGHiQ6beY+0XaWnfp7LqtJ+WaXrwSs/7IbVo+iQ7WaysEoIemafvq59WpS2k7kKwGr51fhID7V/lpsT43Bz1nr81QcZhq8zRCaXke+6hSwuu0u097xcxsQFvt6H3wXxT4L1paZBu8+TVhTHvT8RzfD/7d3n8ttK0kYQAvWtSWXM0ESpBjx/i+5JdleJwWGmcGEc37vXlMMwIfuRsMhXr4SsH77QWiaJ81Xb2s4uVS/G6CYJbxNPVG4nMLi265ZzifylYD1G499Ttk6uPju7ayKKtVfoBfzwOemtgEUM4T1pd18ZROWfCVgFdoPKd6HK86HOU2PVj/CW8rNH23N+hTTfmq3Q1jWLbg8p4TRg1IClrnEIq4KMlrV8LX+00QhZd3GzuSltJ/afNCzHmE1ingOQTEBS1W3iG9tPhMoDdyDXsi9H42dyQvp3L7vWuZsIl8JWPm2n2r1/up55Fwmr1u4c62Qqm5jD2QppHP7tWuZ+whLP1MVcotGQQFLworu89taTi+fnSWy+VI5d6srOpnQYr4qKmBpnEf2IUSt4c7vL5kidi41Vyop4zDV6IOefzLmXnQloJhvb1EByzqsArpqWdzv+bGNs0QRkyQfWzt3F1Ec+dA1Tgmr8UqAgCVhJS36hOoZZDDk28p9a0Vchjf3xLsiRuOai73//HasVixVSYf3sgKWhBWv6Bqsqfbf5HPu7TSlCljm3t4+yyJib+MdQk+4LVdR1waFBaycFi1V5WvAA+7Uc+4NPVu4gJUADd6tVkDsbfdBz7/cOeyX2Gkpa7y2tIDVvZWwIvgU9DOadj/T54Yuzt+29tUqwlefSglcrJfYaSns6F5cwJKwInRx3lZ05GqrYpL/j6HBRwoXMIT1psPz1wrstJT2HSsvYElYoYW/J+OdX6BiyY+KvhN3jpdU0lXn+WvltQfLuzWjwIDVvTXpnnu34ENNf0zOsl8b3uQ6gOwvAVt+0LOEpdMiYL3cgpKwMv/STtQkfP/OuTwzTa4DyH58+m2HhFWYuxKHa4sMWBJWxu3BCSsrdw1OluTeI2xy2Cf3DQA6hBJWccp8umyZAUvCyr6nnb5J+L7JO6PeOZXn5ybz333bD3r+K2EZ6S3iVHVT5ter0IDV/ffBd+5qnyOWF5I3Ce8avTEq7/NDm8M+uT/vufEHPf/JTVPagwJWeb2R1muuaa/i3ze72OerU3l+8i6wv+/4zRvtEO1BAesf33zvripfva3o87lrd69P3j3CRj+UvIewdAj/Kji6WM97zqDgezIKDljmE6/q3USvuaabk3vf9F7qnB/M8qHRzyTvIaybjr9OJdqEGV8PlPxojpIDVnfjZ3HpNUGKY2yqfYt3ba+lzrmS+7HVDyXnI5N7CJ84VmkT5trPLnvKoOiA1b394guYZ/nq0SflqwTeZPxF+6/VDyXnppMto+V1dZv1ofBDSNkBy7qGbMtXjxLc6nnnqWr5rrX80OxnkvP4gl+MIpbylYBV/qVinhLekfFf7Apj8+WrvE/mzXYIc17UcOcX81wRy8iJ8pWAVdC1YoY+J70jI/IYlvLVo1zPC+//a/czyXdP30c/mOe8sV1R+UrA+vsk7roj34rPp5r+mGyvvDP9trW8DiDb7RmWYL3kxlRvLr5VcXlWQcDq/rvzbTyx5Jq+4hOvhat89f8L70y/bk2vA8j1su/W7+XlS0LX61l0Wio5eNQQsNwBcpovU3xnY92GoHyVJMVe9X1r+jPJdXuGy5LXjljOJtOXWau5DKgjYNmIle93Nk4HV/kq/xLWJ5+Jtm2RH507p5rrtAhY2oSFfmcjTKMoXxVQwmp5xL3LdnuGCxMRS3dQwDrfJ9/MTL+zwUvuylcllEtaH/bJ8nE5ClgiVuadlrrucq0nYFkUl+13NuzNz8pXZZSwmk/BOZawXJqIWFm7razuXVHAMuue63c26KC78lUZJSy1kgxLWD4UEStnX6s7uFcVsGwxyfQ7+ybYoLvyVSEXF61PYOVZwnJxcualoeXuCd1VuNelroDlFttMv7OhNrorXz37zc/s2sK6pQxLWD6U839XH120i1cC1q9TuUmsHL+zQR5opHz1grxWh39RwMpvMs6HcllO9gCdBN/Nd3V+eaoLWB7Z+es7m9P9GAH2LipflXM2v/F5PJQ/8joU+VAu9Oabc0o7pyoB67Wfg51YGX5nrz3/K1+9djbPqJdhmDrDsuI3n8cVJXgnFfFKwPp5XPviO5vdh3Jd71b56lX5PPX8s15UfmXFzz4NZawc51g+1vytqTNgtX73R5aXBNcsa1C+OukqO5Ov3/u3PosAX/rAH4orlOsv3E1jBY9XlfetKw1YTe8wybXievlEivJVUQnrnU/i13Eokys9oTfMMeyTm6hCjhJUPxZYbcDqups2u+Z3+Z7eLuxhKV+VlbA++hyu/9LLV9lG5m8WN4T5Tn5t4Lq54oDV5CjWh5vqTjbKV+d85d/LVxKWfBX5IzWOdX2f5baJQc2qA1bXNbYlLvtLgpuzD0zKV2ce+784lUtYf/nsQwl+JfNVxrqmz9LKZVjlAavrPjbzO3hfwiXBuScb5atz/TfpIO4H9w/+683Eczv2M8hYefUG2wn81QesVm4o/PyxwpON8tVFZcLJilhfrLJ82pRP8LpTvoqXscxjnX+Q+NjSRVj9AauJRmFBlwT/nX57p/JVUV/4O9NXz19XTHVT853MG7kmL2OdVbxq7PvYRMCqPGJ9+VTWJcEn5av4l9apG4VfvimU5BexvopXKT5auxtObbM0N0HQSMDqune1Lm0o8Bh60gO5la+urBR+TDcicncrXZ3wiSQ+D3/4aCCuxl9bqcWrJi/BmglYXfe2wtWjnz+VeQx9dS7ui2WVIb7yH7/dxT3uv7/79kmV5JzzcJpa+uev76SrxG6+KWQ9Xwdo9IDeUMDqujd1zbuXfEnwcsPki2mekDHr5uPt7e3Xu5Bub29vb27UrS4JWTefvt19iRh5v97eCFcTHdY+flDIUkttNWBV9VD00i8Jnl+0L17RQsHj5ubdbVAfb2701RWydFkErCkvMmrYwlvFJcGbp8YW3pvLBYouUqbqBBeQrhqP/O0FrPIfil5RwfWvXX2fvxm9Aiq4fPzUfLfwwycF1SYDVskPRa+unf3m3e3th7u7b7efTI4A9Xj76a7ddOUe1oYD1uPEe3FV3PdffWkBinFz217Iev9VJ6L5gFXaEt4v3wwnAQhZOY9dWTksYP3KWGX0CnWzAcoNWU3MZH346EQlYP3pzccPmV8RKF0BFH85X/PdhU5UAtZz3mW6u+TzNwuZAWq5nn/3rcJ+4ZevSlcC1iuFrMyuLoQrgPrcfPpQTynr/YdPpq4ErJJC1vsPt6qtALX67+a2/JT1RbgSsM783r+b9paPu2/vFFsBpKycZ660BQWsC739OEGj/MvdrWwF0FbK+vS1rLms93ceKC5gXZ+ybu++JPq+frPHHKDZ08272w+fi8hWygACVjg3H2/v4n3v7z7cfhStAHiMWblWs7RYBKxY3tx8vP0QsJ718PC9d5IVAH+fbj7FvKzXYhGwMvXfzc3t7be7y6LWl7u7r7e3727cdwHAqznrw937aatWopWANY2bm5t3tw/ufvr8K0n98PXxf3Bzc2PtAgBne/sYtNLebfj57tutUoCABQAtXNN/urh/cmoz8O7W8IqABQBNentz8/FxWCVEB/HL3d2H29uPN3KVgAUA/Ba3foyrfPhzWOXpNPXgm9kVAQsAQMACAEDAAgAQsAAABCwAAAFLwAIAELAAAAQsAAABCwAAAQsAQMACABCwAAAQsAAABCwAAAELAEDAErAAAAQsAAABCwBAwAIAQMACABCwAAAELAAABCwAAAELAEDAAgBAwAIAELAAAAQsAAABS8ACABCwAAAELAAAAQsAAAELAEDAAgAQsAAAELAAAAQsAAABCwAAAQsAQMACABCwAAAELAELAEDAAgAQsAAABCwAAAQsAAABCwBAwAIAQMACABCwAAAELAAABCwAAAELAEDAAgAQsAQsAAABCwBAwAIAELAAABCwAAAELAAAAQsAAAELAEDAAgAQsAAABCwBCwBAwAIAELAAAAQsAAAELAAAAQsAQMACAEDAAgAQsAAABCwAAAQsAAABCwBAwAIAELAELAAAAQsAQMACABCwAAAQsAAABCwAAAELAAABCwBAwAIAELAAABCwAAAELAAAAQsAQMASsAAABCwAAAELAEDAAgBAwAIAELAAAAQsAAAELAAAAQsAQMACAEDAAgAQsAAABCwAAAFLwAIAELAAAAQsAAABCwAAAQsAQMACABCwAAAQsAAABCwAAAELAEDAErAAAAQsAAABCwBAwAIAQMACABCwAAAELAAABCwAAAELAEDAAgBAwAIAELAAAAQsAAABS8ACABCwAAAELAAAAQsAAAELAEDAAgAQsAAAELAAAAQsAAABCwAAAQsAQMACABCwAAAELAELAEDAAgAQsAAABCwAgInN+r/MBSwAgNct+r5fDg9Wj9b3J9l8/18//h+XmWQvAQsAmDBSbYdht1qt9vdBbb4nrmXfzwQsAKCJVDUMh+CZ6nmr1fEhay0ELACgulw1PtSq7qe0Wu2GZYqiloAFAMQNVtshYbnqJOvVboha0RKwAIAo+uVwyCxY/TOptRvizMQLWABAWIs+92T1V+PwEDxmCVgAQLBotRyO6/syrXbbXsACADIy78uNVr83DY9DkBl4AQsAuEo/7lb3NVkfrq5lCVgAwMXZantY39dpNSyvKGUJWACAbPV0KWs3Xjj8LmABAOeZ19YTfDlkXVLJErAAgNP1w3F/35r1cO5SUgELADjJbNlQ4epv+8N4TiFLwAIATglX6/vWHbcnT2QJWACAcHVqs/DEjCVgAQDC1RkZ65ReoYAFADxtMazkqSd7hUsBCwA433xs8G7BMx6pM8wFLADgHL2+4AllrF7AAgBOMxsPSlcnlrFGAQsAeNV8a+oqSMQSsACAR4vdRmQKFLEELADgYexKurowYi0FLADgX0tjV9dYzQUsAEC6CmwQsACA/1vspKsg690XAhYA0JlqD2o/ClgAwHxrmWi8NqGABQDtmY1HiSi0g4AFAA1bGGuPnbAELABoynxr8CqWrYAFAC1aag3GtBCwAKC54tWgeBV55aiABQCKVwQ2ClgA0I6Zyas0DyYUsACgFYuD6JO2hCVgAUDlxpXck+6ZOQIWANRPb3CSGwkFLACo19yznFPbCVgAULXe6NVUY+4CFgBUGq+MXk3XIxSwAKBGo9GriQwCFgCIV0S4j1DAAgDxioBm5wWsRT/zlQWAzM0GNw5Oa3lqwFoMx59ReHXYLnx3AUC84oUhrNcD1uyfJ29vDr0vMABkaBSvprc6IWA9E4Q3W+1CAMgtXpm9ysH+9YDVP/tJ7QcRCwDEK/4xfy1gDS/ms8F3GQAy0YtXOU25vxiwXluwvzGLBQBZxCtb2/Oacn8pYO1OGOOa+04DwMTmnjmYlcOLAWs86b+xM4oFAFOa7USa7G4jfD5gzU+80XO/9dUGgMlsbWbIzksB6/Rm7tooFgBMw2x7YQGrP+e/czSKBQDpzc22Z6l/PmAdz5yXN4oFAGnNBlGmtIA1P3tr6eiLDgAJLXUHc7V9NmBtz/+PGcUCgGR0B7NehPVcwDpe8p8zigUASegOFhqwLrzl0ygWAMTn3sHcF2E9E7Bml/4XbcUCgNjlq6MIU2jA6i//b3pAIQDEZLNokwHLAwoBIB7D7QXYRwlY9/cHo1gAoHzVrEgB634/+AkAgPKVgBU0YN3fbyweBQDlKwHrjzUNIQa8TLsDgPKVgPVbwAqyX8PiUQBQvmrQIugm93/tTLsDQAB2XxWlfy5gjaHuUzTtDgBX65Wv6ghY82D/hGl3ALjSVmSpJGB1AQfpTLsDwDUOEks1AWsM+c+YdgeAS83WAks9AasL+5xuu90BQL4SsMKWsB6m3UUsAJCvWg9YXegP1LQ7AMhXzQesPvi/tjHtDgBnsf6quoDV7cL/e24oBIAz7GSV+gJWlKrkwQ2FAHCipahSYcDqFlHWxrqhEABOMrO/vcqAFWEMyw2FAHAqA1iVBqzQuxr+H7HcUAgAr+kFlVoDVqyEZWcDALxmI6hUG7CiJSw3FALAi0Y5peKA1Y3RBuxWCz8eAHjOSk4pVvd6wIp0L6GdDQDwkoWYUnfAipmw7GwAgKfZMVp7wIr6HCQ7GwDgKR5CWH3AivukSRELAP4lpdQfsLrZIearsLMBAP5SwRKs9eoV6+YDVtdFTVgiFgCUGbAek9JueLDsH53fmFo8/N+WD/+J42pVw82Tq9MDVreNnHKtxQKA3APWfrVaHYZh2F6WpM5IXNthWK02DQSs6PvObB4FgOwC1nq1On6vTk2yvnLW9w9Jq+aA1fWxn+lt8ygATB+wNo+Z6qFIldP7sRyO6zoDVtSFWD/WYtk8CgCPpZvks1TfQ1XeZ+L5cjgW0DcczgtY3Tx+dBSxAKBL9Kjn9UOqGmNOU8WpZm0zT1nnBqy4C7F+2FmLBQDdELFYdRiG3GtVr5ktd+t6AlbkhVg2jwLAD/Pg1aoKYlUhIWt7dsCKvRBLxAKAgCWs/Wr10ASs9zay+XjML2D1FwSs6OsaRCwA6K57GuFjrlr2bQw2z8ZDDQGrG/cpXpvl7gA07oLJ55Zy1Z8ZK6s61uKigJVgXYOIBQDd7NTU8DBfVXMf8BTzIZ87C7vLAla3SPQniFgAtG25ebVgVdyShYjv1qrwgJVkXYOIBQDdU72vzeo4bHvPP/lXn0WncHNxwEqyruHHi/SIQgCaNlsOx8fHHu9Xj51AK7lfssigirW6PGClWdfgKdAAwHn6ddEBK826BhELADjPdj9twNpdFbASrWsQsQCAs8ymHcUargtYqdY1iFgAwFkmLWKNVwasbp60yyliAQCnWUy4Fau/NmB1s7Sj+iIWAHBaRlkXHLBS3kwoYgEApyesyQaxugABK8yzvkUsACCwQ8kBK+W6BhELADjVRF3CVZiAlfZmQhELADgxYW1KDljdIn1AFLEAgFcjykR7RsMErNQ3E4pYAMAphgkC1hAsYE0zRiZiAQAvm2AMaxkwYHXbexELAMhMP8karHABK+mTCUUsAOAk6Ztss6ABa4KbCUUsAOBl8ynWYIUMWJPtpBexAIDnpF7ovgodsKbbSb8ZfX0AgKeknsI6Bg9YXbe7F7EAgJwk3jY6RAhY6Z+bI2IBAC9JvAtrGyNgdf1exAIA8pF4zL2PErCmeG7Or4i1nfkaAQB/SNsjnMUJWJM8N+f/9oOIBQD8Lu2IeBcpYE3z3BwRCwB40jL5loY4AWvCUffvEWvuuwQA/JR8S0OkgDXlqPujg4gFAPyQcj58iBmwJh11F7EAgN+kHMJaRg1Y0466f49YnqADACSeXVrEDVgTj7p7SCEA8EPKp+V0sQPWxKPu3yPW0pcKAJqXLnqs4wesbrGfPmJZ7w4AzUu3avSYIGB18/V9DhHLYiwAaFq6yfAhRcDqZscMEpbdowDQtnSD4cskASv5E6ztHgUAposji0QBqxv3WUQsi7EAoFnbxDcRJghY3WJzn0nEsrUBAJqUbE/DOl3A6mbrTBKWxVgAIGBFreYkDFg57Bz9f7C0tQEABKzINxEmClg57By1tQEAWjVLFTP6tAEri52jtjYAQKNShYxZ4oCVx87R/0cstxQCgIAVPmF0qQNWNzvc58QthQAgYIW+nS59wEq5g8IthQBA+oA1TBGwun6fV8TyIGgAELDCPygnccDKaxDrMWKZdwcAASuU+TQBK7dBrIdptJ15dwAQsEI+KCd5wMpuEMu8OwAIWKFn3NMHrOwGsR7fj6VvHgAIWFfaTRiw8hvEst8dAASsAMYpA1aGg1j2uwOAgBVuxn2SgJXlINbjMJZ5dwAQsK7e4z5VwMpyEMvyUQAQsILMuE8VsPIcxLJ8FACqtEi7x326gNV1h0wTlmEsAKhNn3aP+5QBqxvvs3VY+CoCgIB1nlkWAatb7PONWDZjAYCAdd6YUZdHwOpmq3wTls1YAFCNJG2zYy4Bq+t2GScsjykEgEoMKYLDNp+A1Y37nCOWxxQCgIB1oj6jgNUt1lknrPu1tQ0AULokuwu6nAJWNzvmnbCsbQCA0qWY+l7lFbCyfXCOtQ0AIGCdbJdbwMr2wTm/p1KdQgAoVoqkscwuYHWzdfYJ636jUwgAhUq8ZjSXgJX5vgadQgAo2TzxmtF8Ala33JcQsXQKAaA8KRa5H/IMWNnva9ApBIBCLRMkhDHTgNXNDvdl0CkEgKKk2DM6zzVgJXpQkE4hACSw6IfhsHpwGIZ+2uJEglHvP0ew8gpY3WJTSsTaD55TCABPm4+Hfwd/VrvlZC8owRqsY84BK/+17p5TCAAvV0t2z09VHydqASWY895mHbBKWOv+WzVwNPAOAL+ZD680o/a7KVpACULBIvOAVcJa99++JgedQgD4eQ4/qRGV/tyZYA3Wvss9YHWz1X1JDLwDwMP5ezx5kjr1yqMEa7CO+QesNDdTBl2NpYwFQOPmu3M6UJu08+4J5o+2JQSsstqEBt4BaN3y7O7TLmURK8GWhkURAau0NqGBdwDaNdtesmVpnbD9Ez9V/D2ClWvAKq5N+DjwbsM7AM1ZXPogln2602b8NZuHYgJWeW1CA+8ANGe8YsPUPtkgVuoHEWYdsApsE0623gMAJnDeYPsTEiWsBDcRzgsKWCW2CZWxAGjF8vpCSKIuYfxnHW+6ogJWkW1CexsAaKB4NQSZa9onOWHGL9gcCgtYZbYJH/eNLf34AKhVfwh1vlyneLnxw8RYWsAqtU2ojAVArS7byvDsPqwErzh+P2xWXsAqtU2ojAWA4tUJ4q/qnkU/4T9Rh8s/YJXbJlTGAqCy4tU1WxlOng8Pngmjn+53RQasgtuEylgA1GNxiNJU2sZ+3fGfRNgXGrC6flNyxFLGAkDx6vk7CWM/a+4Q/UzflRqwutnx/l4ZCwCqKl6lKWGto5/lyw1YKep7ylgAkLR4lWYKK/o5fltywOoWm8IjljIWAIpX6Z+YE3/GfV50wOpmh9ITlicVAqB4dcoe9JCi98CerMAVFLC6btwXH7E8qRAAxau/6w9R/4ro9Zld8QGrm6/LT1j3+93CbxYAxatEy0aj/xnL8gNW1+3ua7AeZ365AGSsP6TsGg0x/5QpljSUF7BKfnLOn/3m3q8XgEyLV9vEN5YdYwaHaV58cQGr6Cfn/DkTtzXxDkB+lulvKou5qCH6jPu2koBV/kosixsAyNV8mGQrUsS/KHpcnFcTsCpYiWVxAwAZGqd6cErE0eTYmWHd1ROwaliJZeIdgMzKF7vpxpzjDSbPJlnSUGrA6rrlvqKIZeIdgKlLF+Okm5DinQeXsV/6oq6A1c1XNSUsjyoEYEL91J2heAFrmGhJarEBK/5bln7Hu1YhABOULIbpR5vjBazY9ZhDfQGrpln3HylYqxCAxMYsOkLxnnEyyRr3wgNWXbPuWoUAJC9VHDIZaY73F071yosOWLXNumsVApDOfJtNJyje055j7848Vhqwapt11yoEII3JVl49WVuI9mfG/ivHWgNWfbPuWoUAxJZNa/DlXVIBxC7SzeoNWPXNultACkBEGbUGX60DXf23TlZ6qyBgdbPdfaUOnlUIQFhZtQZ/ita1GSO/8G3VAavOWfcf41i7hYMBAIHk1hr82bOJ9gcfJkuGdQSsbna8r9ZmaxwLgOvlsFD03DrQtTaTJcNKAlbXbff1Rqz7o3EsAK6rRIwZ33YfrZAwny4ZVhOwusW64oR1vzeOBcDFlllv5o63pGGcLhnWE7BqXdhgHAuA6yoQu8ybPPFKCJHvgntpdqymgFXtwgbjWABcKMOdDP+c3OL99ZGbW9tWAlbFCxtsxwLg/NPiWMLzTqItwYo+gjVvJmDVvLDh95F3xwwAXj8lHoo4q8WbwIo9gvXidonaAlbVCxuMvANwokw3Xj0h4uN3IyfMbVMBq+vGBopY9/cbI+8APCPfjVf/2kV8HyK/C/PGAlY3X903wQOhAXjiLLgtaW/RJuJkceQRrJf3z9cYsCrfOvrHh+u2QgB+MxsLm5SJ2CCMPYK1bTBgVb519M/hQLcVAvBdIWPtvxlivh2R3415iwGr+q2jf91WKGMBSFeH8to3h6jvSNwRrFeeUF1twGqpiPXwFXVbIUDLFrsSd22vo9YHFlN2CCsOWNEX5FvdAEAW5rsyn2QSN1912yk7hFUHrK7f3DeWsaxuAGguXW1L7djsI5+04o77v7YfteqA1cKjc6zHApCu5KunxB1Je+2pKnUHrPaKWDIWQDOKW8nw59kq9smqj/v6X2tv1h6wGixiyVgA0lXr81fR1wkcX/vnqw9YXdfv71vMWNa8A0hX2VrF3y8Ut3n66o1lDQSsNp7//NTVgTXvADUqb53oP3bx36VZ3AGyV//9FgJW1y339zIWAFWkq/JPafsxwRsV9zk5r29IbSNgNVvEkrEApKvsTkxJ5oTjlvle/xMaCVgNF7FkLADpqrH2YBf7OTmb1//9ZgJWy0UsGQtAusqlPZjosSNxn5NzwjOq2wlYbRexHjKW3Q0A0tXUdw+mutyP+5ycE/6KlgJW40Us+7EApKuJDcnetlXUmHjCC2gqYDVfxJKxAKSrCU9BfbqSStQ/5JS7IBsLWIpYMhZAKWesutLV/f1xlu7NW0adIzvlD2ktYDX5dMInvhuHpUMXQM7paqytILDfpnz/oi5pOJzyCtoLWG0+nVDGApCuJr3TKm3zJGox5aROZ4MBSxHrV8YaZ45jANJVfLu0b2LUJQ2bk15CkwFLEeu3jriMBZCP+XZd5QV9n/h9HKa/FbLNgKWI9cfdppaQAkhXlUy3fxf1jTztpNlqwIqcbotrjW/dWAgwqcWu1iv/tNPtj6IuaTie9hraDVjdYi1YWd4AkIN+V29fZT3B2WWM+QedeItYwwFLEcuNhQAZqG3d1aTT7d/FvE1gc+JraDpgdfOVVPVXxjL0DpBQnbcM/pZG+kne1n0GibHtgNV1271QZegdYJqr/G3tTxc5TnPNHnWN+6mnyNYDliLW0x3zwUAWQFSLofpJ4P1UcycxdzGtTn0RzQcsD4B+rqxrIAsg2pln18CyoNVk7ZCYb+546osQsDwA2kAWQMqTznho4sJ+O9k7HHON++bkVyFgddaOvtgsNJAFEE79Y1cTLmf4aRvx7xpOfhUC1vfrCc/OeSGu73rHRIAAlZWhmQWMw5Tvc8x3+fSig4D182tv7ehLzUKPhQa4zvLQTrNkM+mNUvOYt0We/jIErP8bDLu/PK2oWQhw4Sl/bGrYdzftJXnMNe5n3P4lYP32A7Cx4dVmoTsLAc7UUGPw+6li6rGSiGF2c8bLELD+SL2KWO4sBAiopcbgjyba1CeJmA96PufOSAHrz4/lIEKdcG+INaQAr2usMfj9Knz6RkfEDuH+nPAoYP3FxoYTp96XClkAz1vsWrx36pjBqSFipeRwzusQsP4xiE+nTr0rZAE8oZVVohmWr+I+6Pmss56A9URR17D7yeN+nqcD8Ffpatvq2p9jFp2NiA96Xp31QgSspxh2P+cXZX0DwI/SVXsz7ZmVr6J2CMezXoiA9fRvxLD7WYUs6xsAFtuW+x/HXAZz41VINue9EAHrGYbdTWQBKF2VVb6K+qDnMx//I2A9y7D7BRNZbi0ElK6UryYU79HC+zP/SAHreYbdFbIAlK7KKV91XRfv0zic+UoErJcsDbtf8lPzZGhA6Ur5apqPJN7fee4NXQLWy5cmOz+di6x3vW8PUPX5odFdV1mXr2J2CFfnvhQB67UwvPbzufBHZ38DUKt+cG7IsHwVtUN4dtlAwHrV1jWKsXeAn+bbo9PCz4N8bjt64nUIN2e/FgHrhDqwpVhXdQsH3UKglvPBcmeHzy+77C6ht9H+1vHs1yJgnVQM9oO6tlvo3kKgdIvBSPsfNZ0Mr56jdW7PL2AJWCcaFISv7ha6txAo1nzUF/zLkOExfR7vrxWw4n1qR7+mAPcWeqQOUByrrp46nmfZl4jWIdxfkCYFrJPpEwaxMpIFlHTo37lf8Im8MeT5aUX7rHYXvBgB6wz6hEaygIbYI/rclXKmS3jidQgv+YMFrLM+O7+1YCHrMNqSBWR8vDd09ezxe5vrhxatQ3i45NUIWOdZ6hOaewcqNxsNXT3vmO+BO1qH8KKCgIB17u9OnzD03LuQBWR0kF8aunrxyjjje5WidQiPF70cAev8T9D9hEIWUCUT7a8Oe+d8tI7WIbzs3iwB65KfoNpx+JDl5kJg2iO7NaKvH6nzvkEpVjpeXfZyBKyL6BNG+Q4LWYBwZbj9QtE6hBeemgSsCz9HfUIhC6jBwrObTxxEyv3W71gdwgsLWALW5Rc8+oRCFiBcGW7PRawO4aV/uYB1RVj2uxSyAOHKcHsWYnUIN5e+IAHrCrODH13UkOXuQkC4Mtx+YtEj0h8/CliT6M1Fxv5ZC1lA2OP2sBKuqhpu/yHS3M7FBSwB61qjH2qCkOWxOkCgcOWQevZwexlXuYvcClgC1tVmg59fivlKzy4ErjpWC1eXHXxLmYfd5VbAErAC8AjoVGXq43bh6wacH648/ubSw+5QzIccqUN4eQFLwApTdbayId3ku9sLgXMugceDcHXxAbeczkGkDuEVBSwBKxArG0y+A9mddLdHl79XhItlQZ91pA7hFQUsAStYBdrKhuRDWfqFwLP6wSaG6wxFXcjGSdLXFLAErICXSkax0g9l6RcC/17wLneOxw11B7t4HcJrClgCVkhLtegpjgK7pfsLgZ8n2vHgSNxYd/BBnCbSVQUsASusQUV6on6h+wsBXcE2u4MP4nzwVxWwBKzQlWmjWNOVsgaj79Cqua5gs93BB8sMC1gCVvj6tB+5UhaQsnDlXsGmu4NdtA7hlUO+AlaEJO2nrpQFKFyVaD8UefiM0iFcXfmiBKwYjGLlUMpygyEoXHGeY5n3DI05FrAErDhmO7/THEpZnhINClecfmVa6nXpMccCloAV7ffv159JvXs19BqGUFHhyq2CsY6W22JrGlkWsASsiEcBj7/SMAQCWnisYESHci9Fo3QIj1e/LAEr5mfuMisn652H60CxTYHloC0QdaKi5MNjlK/G9QMmAlbUsqVp9+wOIoO971DYgVRTMH6Vfyz5GzKPUtC7/nUJWJE/d4tHsxzLkrKgCO4UTHJMHMoeVN3GeE8CnCQErNgsHs30iHI0/A55ZysDV2kcS7/gjPE9GQK8LgErwWHCBVi2ZXEpC3K8Lh1tYUg3nVr8HUCLGJfgIc4MAlYKpt2lLEC2yrCWP5b/nYmxdzLIxgoBKwnT7gWkLHNZIFs1Zqjh4jJCk2gT5IUJWKkilmn3Aq7lTL+DbGX4qix9hHcmzPOuBaxk5kc/5zJSln1ZkPD0aJZ9IqtK1i9HqF6swrwyASvlgcQlWjmHHrvfIXZdvx9kq+nGIsZavkcRBnACHf0FrKSWbigsydr4O8Qp6PeD/VaTVuqHag5tER6Tcwj00gSs1N8F0+7lDWZpGUIwi3FYOQxO7FDRlWP44Zt9qNE0ASt5VdwNhUUWsw5bxSy47uDXbw/mJHKYgKjpXp5Z+PdnCPXaBKwJvg9uKCx1aEExCy4yX2oJZnO1WNd4afjH5GyCXUsLWJMcbESsootZQ2+ZA5xctrKBIafLxLGyL1j42yTCvUMC1jTcUFj8ZNbObYbwosVyWClb5XXgGmqbdJiHb6CGe3EClojFVT1DMQv+OetZwJClQ32DpOEfkxNwDETAms7o2q6SnuFxWBrNgk5HMGvHGkcbgp9GdwFfnIAlYiFmQYCq/LizfyFfqyqL7cEfk7MPWeQTsKa92rOzQcyC8qOVYavcxxmWdX71gt8wtg356gQsEYsoMctsFqIVediPtZ5AQ58/10FfnoA1/Tdk5+df6TXjwwi87aTUedzqt6JVKfFqqPYwFPwxOWEvjAWsDFiLVfXBbbWzN4uajlf9YNaqJLuKr/JCPybnEPblCVgiFom6hjY6ULbFcvCom9Icar66C70Eax84iwpYmbAWSzkL9AMJalX3LTehH5MTelRNwBKxSF/OWg2eHY2iFZHjVe1F88ChfxX69QlYIhaTHf6OpuDJtfnyMGmlaFWyTfUzCYvA71jwcp+AlZWlA5qcBdMmq+2w8pib8uPVWP93NfDs8hD8BQpYmbHcXc4CyYqr7McWvrJh72XdhD/6ClgiFvnNZ1kGj2TFxfFqaOJKLfASrAgdVQFLxCLLAv9qNywVtIipN2clXhUs7BKsY4RXKGCJWGTdOFwNg4IWgUtW43C0K7RSrcSrwEuw9jHeNgErTx5RyJ+//tVR55BrDyv9cthpBlbt0M6avbBLsLYxXqKAJWIhaFF9L3BY2QIjXlUlaJ9nFeUlClgiFkUGrYfWoWfv8FrFSrASr+oUdAnWPs5bJ2CJWJRsvToMo5IWv3uYsdIKbM2xsWdwBV2CtY3zGgUsEYsqPJS0lp5z2HbBqh8Mr7f6+2+unB3ye76O9BoFLBGL2pqHOzWtBnOVO4/Fq5YEXYIV63ApYIlYVNw9HHq7tKrtA8pVtBqvwi7BGmK9SAFLxKKJotZW1KpC32+H3UofkKbjVdAlWOtor1LAErFoKmo9VrU0EIvrAm4f7gdUrkK8ejQU0CAUsEQsmm0groaHspax+GwtHpqAB9UqxKt/BLzWGOK9SgFLxELWWu0e6lrWamXRAuyHhx6gYhXi1fM/kxIahAKWiAV/HLMfClsPYcvAVtJS1fZhYF2tCvHqJOGWYO1j1vAFrMIilsdAk8zmcWJL2oryS36sVA0roQrx6vyfT7hfzTbm6xSwiiNiMYX96rGRuBW3rmj+jTIV4lWAs2C4dzLq6xSwRCy4qJX40Et8yFtuSXw+UT1UqXYrE1WIVyEFewzUPu5NPgKWiAVhAtfuR+JqtMQ17/uHhys/1qgUqRCv4v3Ugr2Zy07A4omI5Umu5B+5jg9542GIq7p1EI9/0/bhrzuuVp6rTCoHe1W6bhfq3Tx2AhZPH+FXDjaUmLoee4vDMIx9Acnr+2t8LEw99vp0+xCvphaqPryZCViIWDSTvb7fuDj8qnz9EOMHtPj1nx9//pu7H69CTQrxKlPLUG9o9GargFV2xDo66NCkzep8ak+Uay9e/RTqtDd0AhYvT/sdHHkA6o5Xg+Uo/z/pBXpP152AhYgFIF7xKNBznvdzAYtTIpYn6ADUaSNe/SFQq3/ZCVicxEMKAWqMV6MT3J+Tx2He10MnYHFyxLJ7FKAua/Hqb2FmYtYzAYtziFgA9bC0/YlaQpB3dp/mAV8CVk2WFmMBVOEoXj1hG+S9TVQYFLAqa0+LWADFs/bqaUFWAB86AYtL2NoAULT9Trx62iLE27ueCVhcGrF2bikEKDVe2csQdcQ90QCWgFXrGKCtDQAlspfhpXNbiFPbshOwuIpbCgFKsxKvXjyxBXiLd52AxbXcUghQEjcOviLAiPu6E7AIoDfvDlAINw6+OmB8/Zu8nwlYBPo6HgxjAWRvP4hXr9pd/z4vOgGLYDOB5t0B8rYZ3Th4guvPZmlH3ASsBsYCzbsDZMtk+4nnsqvf6UMnYBF6GMu8O0CWDibbT3T1iWzdCViEtzDvDpAbO9vPmCm++s2eCVjE+W4axgLIyWZr9Op0V4+4LzoBi0hmhrEAcmH06jzX1gjSv90CVlMsHwXIgdGrM1074r7rBCwidwoNYwFMy+jV+a4sDxw7AYv4nULDWADTsfXqkuLAde/5eiZgkabUunaIA5jCSm/wEsN1JcNJKoYCVps8phAgub0HDl7oqnu09otOwCJhvXWnUwiQkLUMF1te9cZPdL+mgNXwMJa1DQCprJZOOxc7XvPObzsBi/SdwqODHkB0eoPXtVyuee8PnYCFTiFAhfQGr3TNiPuxE7DQKQSoz1Fv8FpXnKXWMwGLKTuF7ikEiMFO0QCuGHGfMF8JWHzvFNo+ChDa2k7REC6fFp5oQYOAxR9sHwUIyfMGA1UAysxXAha/LHQKAcLYDIpXgVw+4j5twhWw+M1sa+Ad4GqWXgV08Xlp7AQsMrK0GgvgGgbbw56VCs1XAhb/trutxgK41Hp0Ggnq0qv+yT8HAYsnjCsHSYDzi1eHhTNI4Gv+Cz+KQydgkaXFQRkL4MzilcH24C4ccZ8+XwlYPGdmbwPAGad0xasYLrvYzyBfCVi8wIZ3gJN43GCsiZVi85WAxctlLHsbAF49n1spGstFE8FZ5CsBC2UsAMWrPF004p5HvhKwUMYCuNRe8SqqXbn5SsBCGQvgMm4bjO2CEff1TMBCGQug4OKV2wZju2DE/ZhN5hWwUMYCONdK8SqB80fcD/m8eAGLs8pYdmMBeNpgGuePuGeUrwQszmTFO9C449KpII2zR9xzylcCFueXsax4B5q12SpeJXPu9XxW+UrA4qKy7U4ZC2iwNWgpQ0rLovOVgMWFxqNjLdAUSxny7hBmlq8ELC4vYw0WNwDNtAbNtSd33jlmyO3lC1hcweIGoAkHc+0TXMWf9RGN2b1+AYurmHgHtAaJ4awRrPzylYDF9RcZJt4BrUFCG07/lPY5VhgFLEJcZ5h4B7QGCer0GZR9lg8tErAI0yq04x3QGiSgk5+Ts8nzoZACFqEstAqBelqDg9ZgIQFrnWkOFrAI2Sp0VyFQAQtFCwpYx1zrjAIWYVuF7ioECnccHcvLCViHbF+/gEVo850FpECp1luDV5k4qSWyzff1C1hE0B+MYwHlMXiVkxPWNOxzvstTwCIOzyoEyrI/LBy6s7pUf/0jy/oTE7CIxeYGoKB0ZeNVdl5rhazz7uYKWERkHAsowdHGqxy9MoS1y/zlC1jEtTCOBWTNWHu21+gv1hyz36QhYBGd7VhAvunKWHu+XhhzP+SfigUsEpgZeQfys9kZa8/bc6uw1iUsghWwSFTqNfIOSFecd3X+5IljU8YmWAGLhBnLyDuQBc/CKcXun89uVcqifQGLlBZuKwSmT1dWMhR0af7HFO96V87MnIBF8ozltkJAuuLkPuG4Wz0alkXdkSBgkd7S6gZAuqJuAhYyFtCE4+jYi4BFCxnL8R5Il66sE0XAohHWYwHSFQIWyFhAafYH6QoBCxkLIGS6MtWOgIWMBSBdIWCBjAVIVyBgIWMB9dvsPAkHAQt+y1j2YwFXpytPcUbAgn/IWMDF1lvpCgELZCwgZLqaO34iYMFLFruNswVwOstEEbBAxgIC2h+W0hUCFpxsvl07dQAv2uwsZEDAgvMzluUNwHPWg6F2BCy4zGw8GnoH/nE01I6ABddZHgxkAb8Yu0LAgjAWOwNZwL1N7QhYENh8u3JqgcatNAYRsCC42WgLKWgMgoAFwfU2ZEGD1h4yiIAFmoVAQMdRYxABCzQLgWCsEkXAgtTNQncWQuWlKzPtCFgwAaveQekKBCyIYGnqHZSuQMCCCIUsU++gdAUCFoQ28zwdqMBe6QoBC3KzMJEFJVt7CA4CFmTKRBaUWbo6jNa0I2BBzubbox1ZUJLV1pp2BCwoQT/YkQWF9AWNtCNgQUFmo7F3yNvm4Bk4CFhQIGPvkO3Q1VFfEAELCqZbCPkNXQ3uF0TAguLN3FsIhq5AwILw5uPBvYUw9dDVbmkZAwIW1GZhgQNMF65MtCNgQb36wXMLQbgCAQuELCiYxwsiYAlYtGO23Lm5EBKEK7sYELAELIQsQLgCAQuELDBzBQIWCFkgXIGABa2ELIPvcLX1TrgCAQv+4u5CuNzKElEQsOD5kGUZKZwdrjxbEAQseM1ie/TsQjhx5MrNgiBgwcnm48HkOxi5AgELQjP5Di91BY1cgYAFl+o9IRr+6goedAVBwILrzUebsuB74Wq31BUEAQsClrKGlVIWjY+zu1cQBCyIYKGURasTV5ZcgYAFkUtZprJoyPowmrgCAQuSmC93bjCkgaagBaIgYEFqi61dWdRqvxpMs4OABZPpB2vfqW3gaqcpCAIWTO9hI6mxLKoYuJKtQMCCrMylLAofZreFAQQskLJAtgIBC6QsyHHeSrYCAQukLDDLDgIWtG3mHkNyZAcDCFhQvn57sJWUXMatjkPvoTcgYEEtFqOWIcatQMACwpv1g+XvpLc5agmCgAUtFLNMZpFo2mo3KluBgAUNFbO2nhdN1I7gwbQVCFjQpnk/GIAnwiD70gIGELCgdYvlcDSahWgFAhYQJWapZiFagYAFBKdpyLmzVqIVCFjASR5H4N1pyGt3CA697QsgYAFn6nUNebIfuBpGdwiCgAVcY95vLc7iV9FKPxAELCCYRT9oG7Y9aWVjKAhYgJxFoGSlHQgCFpAwZ1meVXU38CBZgYAFTGLej8NxtRdHKrJ5mLPSDQQBC5he3w/Dyg2HhZesHpqB1i6AgAXkZtYvBa3ypqxWw9atgSBgAaVUtLQOc69YCVYgYAEFWvTjsFPSysp6tdMKBAELqKSktZW0Js5Vh2FreB0ELKDSmtbjmJZNWskGrOQqELAELGiqqDWKWtHKVcdhWBqwAgFLwILWq1oHQ/EhqlViFSBgAf+WtZbDw7CWJfEn3wv4UKwaezvXAQELOMHsZ9gyGv9vqFoNw9AbrQLOCFhQHb/26y0e09ZwbLW29ZCpdo+VqoVjOQAIWJHiVj8MDyPy9Za31t/LVNs+++6fXzgAAla1gWv8mbjWxeap4/C98VfYPJVfOAACVjsDXD+qXI9TXFlVutaPr+fxtY0Pr7L0pep+4QAIWILXo+0w/J6+HoRbyPX//+Txx7+y/fGvmqcFAAGrafP+dG1vnvILBwAAAAAAAAAAAAAAAAAAAAAAAAAAAAAAAAAAAAAAAAAAAAAAAAAAAAAAAAAAAAAAAAAAAAAAAAAAAAAAAAAAAAAAAAAAAAAAAAAAAAAAAAAAAAAAAAAAAAAAAAAAAAAAAAAAAAAAAAAAAAAAAAAAAAAAAAAAAAAAAAAAAAAAAAAAAAAAAAAAAAAAAAAAAAAAAAAAAAAAAAAAAAAAAAAAAAAAAAAAAAAAAAAAAAAAAAAAAAAAAAAAAAAAAAAAAAAAAAAAAAAAAAAAAAAAAAAAAAAAAAAAAAAAAAAAAAAAAAAAAAAAAAAAAAAAAAAAAAAAAAAAAAAAAAAAAAAAAAAAAAAAAAAAAAAAAAAAAAAAAAAAAAAAAAAAAAAAAAAAAAAAAAAAAAAAAAAAAAAAAAAAAAAAAAAAAAAAAAAAAAAAAAAAAAAAAAAAAAAAAAAAAAAAAAAAAAAAAAAAAAAAAAAAAAAAAAAAAAAAAAAAAAAAAAAAAAAAAAAAAAAAAAAAAAAAAAAAAAAAAAAAAAAAAAAAAAAAAAAAAAAAAAAAAAAAAAAAAAAAAAAAAAAAAAAAAAAAAAAAAAAAAAAAAAAAAAAAAAAAAAAAAAAAAAAAAAAAAAAAAAAAAAAAAAAAAAAAAAAAAAAAAAAAAAAAAAAAAAAAAAAAAAAAAAAAAAAAAAAAAAAAAAAAAAAAAAAAAAAAAAAAAAAAAAAAAAAAAAAAAAAAAAAAAAAAAAAAAAAAAAAAAAAAAAAAAAAAAAAAAAAAAAAAAAAAAAAAAAAAAAAAAAAAAAAAAAAAAAAAAAAAAAAAAAAAAAAAAAAAAAAAAAAAAAAAAAAAAAAAAAAAAAAAAAAAAAAAAAAAAAAAAAAAAAAAAAAAAAAAAAAAAAAAAAAAAAAAAAAAAAAAAAAAAAAAAAAAAAAAAAAAAAAAAAAAAAAAAAAAAAAAAAAAAAAAAAAAAAAAAAAAAAAAAAAAAAAAAAAAAAAAAAAAAAAAAAAAAAAAAAAAAAAAAAAAAAAAAAAAAAAAAAAAAAAAAAAAAAAAAAAAAAAAAAAAAAAAAAAAAAAAAAAAAAAAAAAAAAAAAAAAAAAAAAAAAAAAAAAAAAAAAAAAAAAAAAAAAAAAAAAAAAAAAAAAAAAAAAAAAAAAAAAAAAAAAAAAAAAAAAAAAAAAAAAAAAAAAAAAAAAAAAAAAAAAAAAAAAAAAAAAAAAAAAAAAAAAAAAAAAAAAAAAAAAAAAAAAAAAAAAAAAAAAAAAAAAAAAAAAAAAAAAAAAAAAAAAAAAAAAAAAAAAAAAAAAAAAAAAAAAAAAAAAAAAAAAAAAAAAAAAAAAAAAAAAAAAAAAAAAAAAAAAAAAAAAAAAAAAAAAAAAAAAAAAAAAAAAAAAAAAAAAAAAAAAAAAAAAAAAAAAAAAAAAAAAAAAAAAAAAAAAAAAAAAAAAAAAAAAAAAAAAAAAAAAAAAAAAAAAAAAAAAAAAAAAAAAAAAAAAAAAAAAAAAAAAAAAAAAAAAAAAAAAAAAAAAAAAAAAAAGvQ/HJCjRwmK5aQAAAAASUVORK5CYII=;" vertex="1" parent="1">
          <mxGeometry x="810" y="-550" width="90" height="90" as="geometry" />
        </mxCell>
        <mxCell id="Z11w9rOS_5Ds6-d-HtvD-25" value="" style="rounded=1;whiteSpace=wrap;html=1;" vertex="1" parent="1">
          <mxGeometry x="260" y="-1130" width="605" height="350" as="geometry" />
        </mxCell>
        <mxCell id="Z11w9rOS_5Ds6-d-HtvD-26" value="" style="shape=image;verticalLabelPosition=bottom;labelBackgroundColor=default;verticalAlign=top;aspect=fixed;imageAspect=0;image=data:image/png,iVBORw0KGgoAAAANSUhEUgAAArIAAAKyCAYAAAApeT2AAAAABGdBTUEAALGPC/xhBQAAaVRJREFUeNrs3Wd4VGdi9/+svV5nS5w42c2zyX+TZ5M/oleNhCS6VaZoioRAFDVQQUh0AXMExkVuaxsbzAzYu16Ke0Hu9trGhRm6AdObEFWiV6M52MZeY+7nGsFgjAG1Kad8X3yuK1deYjj3Nyfn/s0/CCH+AQAQOt88NeV/T0wpdq3uZZm/NN7ajj8TAAgO/hAAIFSerPjNWbfzHp9LkvcMyTy5zWI/tTja+KUn2jhzeS/r7fwZAQAhCwBK87Ozc8qHyG7nUZ/LKY6Wj9xSZXcIv1W9LdsWRxvFYoPxlDfGPFJkZt7MnxcAELIAEHHy7Kk9fS5pnT9g682afLq6f7oIhOwOm0N4DMbT9TEbbRQeg2mbN9aUzJ8dABCyABAR554u/2/ZJS24HLCXHCjJOxGI2ICNybbjgZC9zGB805tgasWfJQAQsgAQHk9X/EqeXT5Fdjm/vjpiTz8y4fjVERuwpLvp2E9iNtr0rddgfnh1nOU2/mwBgJAFgJA565YyZJfz0NUB6ye7nRf25gy6cL2Q3WK2n/dEGy/8NGbrHV8ca8oXFRU38ecMAIQsAATN126pu+yWPrtWwAYcv3PkmetF7OWLX70sp68Tspe+nzVuXByb2oc/cwAgZAGgRb6aLf2n7Hb+xf+29UYRKz8x+dtdAzNEQyG73erwB+u3N4rZ+qCNNr3qjTf/kf8GAEDIAkDTPFPxj7KrfKLP5fzyRgEbcGjM8PMNRWzAujtSv2soZC+9nT3nMZju22zM/TX/TQCAkAWABslznDaf21nTmID1O/NY2Tc7HWmisSFbZbOLJbHGc42J2UsOe6ON2f6tWv77ACBk+UMAgJ9+RuCe0k12SUsbG7AB+/KHNj5iA3NcKTbRhJC9NNdlWrOkuzmB/1YACFkAwMUlgj9X/LtvttMtu6TvmxqxJ+8efb6pERuwIsH8XVNj1r964DGYnvPGWf7AfzsAhCwA6FVlxS/OuqUxPrfT19SAvWjyhd1DM0VzQ3aL2e6P0wtNfjN78e3sV94Y47RVCZm/5L8lAEIWAHTkS/cUo8/t3NO8gL3oyKTCZkdswOo+FtGskP3h18FqvTGWgfw3BUDIAoDmPyO4s6PPJX3akoCtv+A1Y+KF6oz+LQ7Z7Va78MSYv29RzF5cOFjhiTYa+G8MgJAFAM0tEUz9N9ktzZDdzvMtjVi/2pG5LY7YgPWJVtHSkA18P7vYYJrrjU39Pf/NARCyAKB23oqfn3VJxT6X80wwAtbv9EPjRFVT5rYaYVmcKSgxe/HtrEn2RJuduy2WW/k7AICQBQA1fkYwe0o/2e2sClbAXp7bGjYkqBHrt8loC1rIXvH97F5PjNnB3wUAhCwAqOUzgqekNrJb+iDYAet3bOrIoEdswMqe5uDH7MWFA8+yOHNn/m4AIGQBQKmeqfgX2eV8WHZJ34UiYutmTRa7Bw0IWchus9j9nwVcCFHMnvcYjE96Dfbf8ncFACELAEpRWXmz7J4yXHZLp0IRsAGHxuWHLGID1vZNDc1b2R8uhJ3xGMzj1hmKb+HvDgBCFgAi+RmBq7yH7Ja2hDJg/b6YXiZ2pqeHPGS32xzCG2MMacxeekNb7Y01mfk7BICQBYAw+8Z91/8vu6W3Qh2wATVF2SGP2MtzXMnW0IfsDwsHi5bGW9vxdwoAIQsAoTZf+iefu/w+2SV9G66IPXX/2LBFbMDyeHMYY9b4nSfaOHN5L+vt/B0DQMgCQNBV3PSlW8qWXdKxcAVswN7sQWEP2S0mW9hC9oq5rlNeg6lEZGbezN83AIQsAATjO1i3s7fPLW0Id8D6HZFGhD1iAz7rZQl/zF783GCbN9aUzN89AIQsADTTuTnT/q/sdj4XiYD1OzNjkqgekBGxkN2W6p/jMkYkZi+9oX3Tm2Bqxd9FAIQsADTW84/9+qxLmia7pXORili/A6OHRSxiA9bdkRq5kK1n+naxwfTI6jjLbfzdBEDIAsD1/ezsbGem7JYORzJg/U4/PEFUpaVFPGR32B1iaXdThGO23nFPjLFAVFTcxN9TAIQsAFzBN2dqnOxyro50wAbsz8+KeMQGbEyxKSFkAwsHGxfHpvbh7ywAQhaA7n3952n/n+yW5iolYP2O312qmIgNWJFgUUzMXvyFMNOr3njzH/k7DICQBaA/z1T8o+yWnD639JWSItY3yyl2DxmouJDdaonwxa9rv5095zGY7t9szP01f6cBELIA9DGn5SpP87mkWkUF7CWHywoVF7EBa/oo663sFQ57o43Z/m+c+fsNgJAFoElfzXFGyy5puRIDtn5u6/GJojqjv2JDdrvVLrwxRqXGrFhsMK1Z0t2cwN91AIQsAM34cu6d/8fnkp6U3c4LSo1Yv9qRuYqN2MtzXIlW5YZs/bezxgueaNPz3jjLH/i7D4CQBaBelRW/8M12jve5JFnJAet36qFxosrhUHzIVtXPcZkVHbOX3s5+5Y0xTluVkPlL/i0AIGQBqGtOa3a5xeeS9io9YAP25g5WRcT6bTbalB+yP/w6WO1igzmTfxMACFkAyv+MYHZ5J9ntXKyWgPU7OnWkaiI2YFVPi3pi9uLCwQpPtNHAvxEAhCwA5S0RPF3x27Ou8lmy23leTRFb98RksStzgOpCdmuq8ua4GvP97GKDaa43NvX3/JsBQMgCiLynn77lrLu81OdynlFTwAYcGpuvuogNWNs3VVUh+8PbWZPsiTY7d1sst/JvCAAhCyAynxHMkZJkl7RTjQHr98X0MrEzLU21IbvDahdLYk2qjNlL38/u9cSY0vi3BICQBRC+zwhmT23rczs/VGvABuwvzFJtxAZsSLaqN2R/WDjwLIszd+bfFgBCFkDoPDXldtktTZdd0ndqj9iT941RfcQGLI83ayFmz3sMxie9Bvtv+bcGgJAFEDyVlTfLs6VC2S2dUnvA1pvlFHuyMjUTsltMNvWH7A+fG9R5Dabx6wzFt/BvDwAhC6BlnxG4nb1lt7RNEwF7yRHnCM1EbMDqXhbtxOzFN7TV3liTmX+DAAhZAE32zZNTWslu6R0tBazfmZmTRPWADM2F7HarQ3hiTNqK2YsLB4uWxlvb8W8SACELoGHuitt8s6UHZZf0rdYi1u/AqDzNRWzAujtSNReyl35M4bvFMaYnlvey3s6/UQD8IQC4hoqbfO7yPNntPK7FgK2f23p4vKhypGk2ZHfYHGJpd5MmY/bS97OnvAZTicjMvJl/rwAhCwD1zs4p7+NzOTdqNWAD9uUP1WzEBmxMsWk3ZH/43GCbN9aUzL9dgJAFoGPn/jzljz639KLWA9bv+F2lmo/YgJU9LJqP2UsXwt7yJpha8W8ZIGQB6Mnzj/36rNt5j+yWzukhYn2zJotdgwfqJmS3Wuz+70r1EbPRpm8XG0yPrI6z3Ma/bYCQBaBtPzs7p3yI7JKO6CJgLzlcVqibiA1Y01cnb2V/cNwTYywQFRU38e8cIGQBaIw8Z2qCz+Vcq6eArZ/beqxMVKen6y5kd1gdwhtj0lvM+t9Eb1wcm9qHf/MAIQtAA752S3+QXdICvQVsQE1xru4iNmB9klV3IXvFhbCF3njzH3kGAIQsADWqnPlLeXb5FJ9b+kqvEXvqwXGiyuHQbcj6LYsz6Thmjec8BtP9m425v+aZABCyANQyp+WWMnxu5wG9BmzA3tzBuo5Yv81Gm25D9gqHvbHmHP834jwfAEIWgEJ9NVuKkd3OFXoPWL9j5SN1H7EBq3pZiNmLc11rlnQ3J/CsAAhZAAry5ZMVv5fdzr/IbucFItYp6p6YLHZlDiBiL9mWqqc5rgY+N4g2XvBEm573xln+wLMDIGQBRJLbfavsKp/oc0tnCdgfHBybT8BeZW0/KyH747ezXy02mO9alZD5S54lACELIOxzWk6bz+3cR7j+2BePThA7dTi31eAcl80hlnQ3EbA/CVpj7WKDOZNnCkDIAgjHZwTu8i6y2+klWq9tf0EW4XodG5N5K3uDhYMVnmijgWcMQMgCCMkSwdTf+dzSbNklfU+wXtvJ+8YQrA1YEc9b2Rt+P2swzvPGpv6eZw5AyAIIhqefvuWsWxrjc0t1xOoNzHKKPUMzidUGbDHbidaGf0xB9sSYpN0Wy608gwBCFkCzPyOYYpRd0i5CtWGHJxcRqo20uncqwdq472f3emJMaTyLAEIWQNM+I2jvczs/IlAb58zjE0V1Rn8itZG2W+3CyxxXUxYOPMvizJ15NgGELIAbmVfxr7JbmiG7pO8I1MY7UJpHoDbRukTeyjYxZs97DKanvAb7b3lWAYQsgCt5K35+1iUV+1zO04Rp05z+03hR5SBMmzPHtTTOTKA2/XODOq/BNH6dofgWnl0AIQvwGcHsKf1kt3M7Udo8+4YNJUybaVOKjTBt/hva6iUxFgvPMICQBXTJ9xdnlOyS3iNGm+/YtBKCtIVW9rAQpS1bOFi0NN7ajmcaQMgCOpnTKv9n2eV8WHY7/06MtsATk8XuwQOI0RbaarH791OJ0pb9mMJ3i2NMTyzvZb2dZxxAyAIaVXGTPFvKl93SCUK05Q5NKCBEg2RtXy5+Ben72VOLDcZSkZl5M887gJAFNPYdrLSJAA3S3NZjZaK6fzoRGqyLX/45rhh+8SuInxtsWxJjTOHZBxCygKqdm33X//hc0ivEZ3DVjsghQINsfZKVCA3+hbC3vAmmVjwLAUIWUJcnK37jc5ffJ7ud3xCewXXygbGEZ4gsi+OtbPCZvvVEmx5dHWe5jWcjQMgCSvezL91Stux2HiU6Q2NPzmCiM0Q2m5jjCqHj3hhzoaiouInnJEDIAooju8p7+NzS58Rm6BwtLyY4Q+yzXsxxhXjhYOPi2NQ+PDMBQhZQhK+fnPZfstv5HKEZWnUzJ4ldAzOIzRDbnmr3xxbRGfoLYQu98eY/8gwFCFkgQnuwFb8665KmyS7n14Rm6B0cM5zQDNccVz/muML0dvac12B8YLMx99c8UwFCFgjjnJYzU3ZLBwnM8Dj9yASx05FGZIZrjsvmEEtiufgVRoe9seYc/zf2PF8BQhYIma+enBIru52riMvw2lcwlMAMs43JzHFFYK5rzZLu5gSetQAhCwQ3YJ++8z9ktzRXdjsvEJbhdeLe0YRlhCxPMBOX4f7cINp4YXG08QVvnOUPPHsBQhZomWcq/lF2S06fWzpLVEbArMli99BMojJCtprtxGXk3s5+tdhgvmtVQuYveRYDhCzQnDmtNJ9L2k9QRs6RSUUEZYSt7s3Fr8gGrbHWE20axDMZIGSBRvnyyTu7ym5pCSEZWWcenyiqM/oTk5Ge47I6hDeGi18KWDhY4Yk2GnhGA4QscO0lgj9X/LvP7XxKdknfE5KRd6Akl5BUiHV3cPFLKd/PegzGed7Y1N/zzAYhC+Ciyopf+GY7x/vcTh8BqZC5rYfGiSrmthQ1x7WsOxe/FPRjCrInxiTttlhu5RkOQhbQMd/scovPLe0mHhU2tzVsCAGpMJuMNiJSed/P7vUajOk8y0HIAnr7jGBOeQef2/kJ0ag8x+4sIRwValUPC/GozIUDz7I4c2ee7SBkAa0vEcyZ+m9nXeWzZLfzPNGoPHX+ua1BA4hGpc5xWez+aCIclRmz5z0G01Neg/23POtByAJa4634+Vl3eanPLX1BMCrXofH5BKPCrenLHJfCPzeo80abJqwzFN/Csx+ELKCFOa05UpLsknYQisr2xfQysTM9nVhU+hyXzSGWxPJWVgVvaKuXxFgsnAEgZAG1fkbwlNRGdknvE4nqUFOUTSiqxIYk5rhUtHCwaGm8tR1nAghZQC2eqfgX2S1Nl93OvxOI6nDq/rEEososj+etrIp+TOG7xQbTrOW9rLdzRoCQBRS7B1t5s+xyFsku50niUF32Zg8iDlVms8lOJKrv+9lTiw3GUpGZeTNnBghZQElzWrOnJMpuaQtRqD5HpRGEoUp91os5LpV+brBtSYwxhbMDhCwQYd88NeV/ZbezkiBUpzMzJonqARlEoUptS7ULr4EwVHHQvu1NMLXiLAEhC4TbfOmffLOlB2W38xuCUL0OjB5GEKrc53cwx6Vupm890aZHV8dZbuNsASELhFzFTT53eZ7sko4Rgup2+pHxoiotjRhUO5tdLOnOxS8NOO6NMReKioqbOGdAyAKhmNN6sryXzy2tJwK1YX9BFhGoEZtSbISgdhYONnpiLX05c0DIAkFy7uny//a5pReJP+04cXcpAagxKxLMhKC2flCh0htv/iNnEAhZoLmervjVWbfzHtnl/Jr405BZTrF7SCbxpzFbLDb/2zwCUFtvZ895DcYHNhtzf82ZBEIWaLyfnZ1TPkR2OQ8RftpzeGIR4adRq/swx6VRhxfHmHL9z2bOJxCywA345kyNk93SZwSfRue2Hp8oqjP6E30atd1qF94Ywk/DnxusWdLdnMBZBUIWuMpXs6X/lF3SAtntvEDwaVdtSS7Bp3HrE60En5Y/N4g2XlgcbXzBG2f5A2cXCFngmYp/lGeXT/G5nF8Setp26sFxosrB3JYeLI1jjksHb2e/8hhMd69KyPwlZxkIWejzZ2XdUobP7awh8vRhX94QIk8nNhuZ49JP0BprPdGmQZxpIGShn88I3FO6yW5pGXGnH8emlhB4OrOyJxe/dLZwsMITbTRwxoGQhWZ9OffO/yO7pKdll/Q9cacfdU9MFrsyBxB3OrMt1c4clw6/n/VEm+Z7Y1N/z5kHQhbaUVnxC9lVPtHnkmTCTn8Ojc8n7HRqbb9UAk+Xb2dNstdgKt9tsdzKGQhCFur+Wdk5TpvP7dxD0OnTF9PLxM40Lnjp1Q6bQ3hjufil4+9n93oNxnTOQhCyUN9nBLPLO/lc0qfEnL7VFGYTdDq3IZmLXwStybMsztyZsxGELJT/Bvbpit/63NJs2e08T8jp28n7xhByqLc83kzMEbPnFxtMf17W2/I7zkoQslCep5++5axbGuNzOc8QcfDNcoq9WYOIONTbYrYTcgh8blDnjTZNWGcovoWzE4QslPEZgXuKUXZJOwk4BBxxjiDg8COf9WaOCz96Q1vtiTGncoaCkEXkPiOYPbWt7JY+INxwpTMzJ4nqARnEG35ku5U5Llxz4WDR0nhrO85UELIIn6em3C67pRmyS/qOcMPVDowaRrjhmj6/w0q84Vo/pvDdYoNp1vJe1ts5Y0HIIoR7sJU3n3WXj5Td0imCDdec23p4vKhyMLeF68xx2R1iaXfmuHDd72dPeQzmUSIz82bOXBCyCO53sHOkJNnl3Eqs4Ub25Q8l2HBDG1N4K4sGPzfYtiTGmMLZC0IWLfbNk1NayW7pDSINDTl+VymhhkZZ2YM5LjQqaN/2JphacRaDkEXTuStuk13Oh2WX9C2RhobntiaL3UMGEmlolK1mGxe/0Eimbz0xxumr4yy3cTaDkEUjVNwkz5byZZd0jEBDYx0uKyTQ0CRr+jDHhSY57jWYikRFxU2c0+APAdd0dk55H59b2kCYoUlzW49PFNX904kzNG2Oy+YQ3hgufqHJCwcbPbGWvpzZhCxw2bk50/6vzyW9QpShOWpH5hJmaJb1iVz8QrN/UKHSG2/+I2c4IQs9e/6xX/vc5ffJbukcQYbmOPXgWFHlIMjQfMvieCuLZr+dPbc42vSgt1/mbzjTCVnoy8++dEvZsls6TIyhJfbmDibG0CKbTHaiDC11eHGMKdd/tnG+E7LQOJ9bive5pTVEGFrq2JSRhBiCYlVP5rgQlIWDtUu6mxM46wlZaNDXbukPstv5nOx2XiDC0FJ1T0wWuzIHEGEIim0WO3NcCM7nBtHGCx6D+UVvnOUPnP2ELDTxs7Izf3nWJU3zuaWvCDAEy6FxwwkwBNXavqmEGIJ5Gewrj8F096qEzF/SAoQs1DqnNduZ6XNJtYQXgumLR8vEznTmthBcO6x2sSSWi18IdtAaa72xxsE0ASELFfnKNcUgu6TlRBdCYX9hNuGFkNiQbCO8EKqFgxWeaKOBRiBkoWBfPlnxe9klzeM7WITKyYrRBBdCankCF78Qwu9no03zvbGpv6cZCFkoidt9q+yWnD6XJBNbCJlZTrEnaxCxhZDaYmaOC6F+O2uSvQZT+W6L5VYagpBFhMmu8jSfS9pLaCHUjjiLCC2ExWe9LQQXwvH97N4l0eb+tAQhi0h8RvDUnZ1lt+QhsBAOZx6fKKoz+hNZCIvtVrvwxBBaCNvCgWdZnLkzbUHIIhxvYJ+u+K3P7XxKdjvPE1gIlwOlwwgshNW6O6wEFsIZs+cXG0x/Xtbb8jtag5BFKDz99C2+2c7xPrdUR1ghnE4/PF5UOQgrhHmOy+YQS7szx4Wwf25Q54kxl60zFN9CexCyCNbPys4ut8huqZqoQkTmtoYPJawQEZtSmONCxN7QVntizKk0CCGLlvygwZNSO59bWkRMIVKOTyshqBBRK3owx4WILhwsWhpvbUeTELJoiqem3H7WVT5LdknfEVOImCcmi92DBxBTiKitFrt/zJ6oQiR/TOE7j8HoWt7LejuNQsjiRiorbz47WxrlczlPE1KItEMTCgkpKMKaPqkEFZTw/ewpj8E8SmRm3kyzELK4ek5rjpQiu6VtBBQUMbc1faKo7p9OREEZF7+sduFljgvK+dxg25IYYwrtQsjCf5HrL84o2e18m3iCktSMyCGgoCjrk5jjgtJ+8tb0jjfB1IqWIWR1+rOyFbfJbmm67JK+JZygJCcfGEs4QZGWxzHHBaUxfeuJMU5fHWe5jbYhZHWi4ibZ5SyS3c7jRBOUaE/OYKIJirTZxBwXFOu412AqEhUVN9E5hKx257Tczr4+l3MjsQSlOlpeTDBB0Vb1shBNUPLCwUZPrKUvzUPIasq52Xf9j+x2VhJKULK6mZPEroEZxBIUbVuqXXhi+MQAil84eM0bb/4jDUTIqtuTFb/xzZYelN3ObwglKN3BscMJJajC5/2Y44Iq3s6eWxxtetDbL/M3NBEhqzY/87nL82SXdIRAghqcfmSC2JmWRiRBHXNcNodYGstbWajGYU+MKc/fBvQRIat4squ8h8/lXEscQU32F2QRSFCVDSnMcUF1Cwdrl3Q3J9BKhKwiff3ktP/yuaUXiSKozYmK0YQR1DnHlWAmjqCy7VnjBY/B/KI3zvIH2omQVcjPys785Vm38x6fW/qKKILqzJos9gzNJIqgSlstzHFBrZfBTF95DKZ7ViVk/pKWImQjN6c1p3yIz+08QBBBrY5MLiKIoGqr+zDHBVWvG9R6Y42DaSpCNqy+mi3FyG5pJSEENTszY5LYmdGfGIKqbU+1Cy9zXFD/wsEKT7TRQGMRsqEN2Kfv/A/Z7XxGdjsvEEJQuwOleYQQNGFdInNc0Mj3s9GmBd7Y1N/TXIRscLndt8qzy6f43NJZAgiamNt6aLyocjC3BQ3NcXXnrSy08nbWJC82GKfstlhupcEI2SD8rKyU4XM79xE/0JJ9w4YQQNCUjSlc/ILmvp/duyTa3J8WI2Sb5Ut3eRfZ7fQSPdCaY9NKCB9o0sqeXPyCJhcOPMvizJ1pM0K2kW9gp/5OdklPyy7pe6IHWlM3a7LYPWgA0QNtznGl2vzfGRI+0GLMnvdEG/+yrLfld7QaIXudPdiKX8iu8ok+t1RH8ECrDo0vIHigaWv7cvELmv7coM4TYy5bZyi+hZDFDz8rO8dpk13SLkIHmp7bml4mdqanEzvQ/MWvJbFc/ILm39BWewwmKyHLDxp08Lmkj4kc6EHNiGxCB7qwPslK6EAvCweLlsZb2xGyejOv4l99bmm27JK+I3CgB6fuH0PgQFeWxZsJHejlxxS+8xiMruW9rLcTslrnrfj5WVf5WJ/LeZq4gZ7szR5E3EBXNpuY44Luvp895Y02jRaZmTcTslqc05pdbpLdzu1EDfTmqFRM2ECXPuvFHBd0+bnBtiUxxhRCVjMXuaa2ll3SewQNdDm3NXOSqB6YQdRAl7ZbHf7/tytxA53+5K3pnaVxtihCVq2eLv9n2S3NkN3OvxM00KuDo4cTNND3HFc/5rigZ6ZvvQbzY6vjLLcRsqrZg628+ay7fKTslk4QMtCz04+MFzsdacQM9M1mZ44LiDYeXxxtGiEqKm4iZJU8p+WS7pBdzs1EDOAU+/KziBjA7hAbU5jjAi4tHGz0xFr6ErIK881TU/5XdktvEC/ARSfuGU3AAFdYkcAcF3DFwsFr3njzHwnZSJsv/ZPscj4su53fEC/AJbOcYveQTOIFuMIWs514AX78dvacJ8b0kLdf5m8I2fD7mTxbypfdzqOEC/BjRyYVES7ANazuzcUv4BoOe2JMef62ImTD9i2s81OCBfipM49PFNX904kW4JpzXHbhjeHiF3Atn3YzfkzIhskXfxq/jmgBfqq2JI9gAW5gXSJvZYFrea+LZS8hGybH7yz5e90Tk2sJF+AHpx4cJ6qY2wIatCyOt7LAlT7pZjr9WkfreUI2jCF76r4xdcQLcMXcVt4QIgVohE1GG/ECXOHtjhZByIY5ZI/dWSK+eGzSQQIGcAr/vwcCBWi8lT0tBAwQbRQfdjVfeK1DKiEbiZA9fnepkF3St4QM9Kzuicli96ABxAnQBNtS7WKxgU8MoHsX3vC/jSVkIxOyfqcfnvAlMQM9OzS+gDABmmFtX97KQt/+1sV8MWIJ2ciF7LFpJf7D/CuCBnr0xfQysTONC15Ac+ywOYQ3hpiBTi94RRt/iFhCNoIhe2eJOHnfGKIGulRTlE2QAC2wIclK1ECX3ulsJmSVErJ+vhmT+FYWunLy/jGECBAEy+PNhA105aOuV72NJWQjH7In7hktZJfzAoEDvdibNYgIAYJgi4k5LujLmx1TCVmlheyli18EDnThqLOYAAGC6LNeXPyCPnzQxfTTiCVklRGyx+8q9R/y3xM60LIzMyeJ6oH9iQ8gyHNcHgORA237tJtRvB6Y2yJklReyfv6f6SR2oGUHRg8jPIAQ+LwfF7+gbe9efcGLkFVeyPrVzZhM8ECbc1sPTxBVDua2gJDMcdkdYmksF7+gTR93M10/YglZZYXsCea4oFH78rMIDiCENqbwVhba9HYnCyGrlpD1OzO9jPCBppy4axShAYTByh68lYW2fNi1gbexhKzyQvb4PaOIH2jHrMli9+CBRAYQBlstXPyCDua2CFllh+zFOa7xBBA04fCkQgIDCKPVfVIJIGjC+13MDUcsIavMkD0+raT+TRYhBFXPbT0+UVT3TycugDDabnMIb6yJEIKqfeKf22pMxBKyygxZv5MPjCWGoGq1I3MJCyAC1ifyVhbq9k7nRr6NJWSVG7LHppWIMzMmEkRQpVMPjhVVDoICiJRlcVz8gjp91JgLXoSsCkLWP8d172iiCKq0N3cwMQFE0CajjSiCKr3V0NwWIauekK2/+PXoBMIIqnJ06khCAlCAVT0thBHUNbfVxdy0iCVklR+yx+8excUvqEbdzEliV+YAIgJQwhxXKnNcUI9PuxnFGx1TCVmthWz9W9mHxhFJUIVD4/IJCEBB1vbj4hfU4b3OzXgbS8iqI2SPTSsVdTN5Kwtl++LRMrEznbktQEl2WO1iCXNcUPzclql5EUvIqiRk/XNc9zPHBWWrKcwmHAAF2pBsJZag7Lmtpl7wImTVF7J+Zx5jjgvKdLJiNMEAKNjyeOa4oEyLurbgbSwhq66QrZ/jmkU0QWFmOcWerEHEAqBgW0zMcUGZ3uxoIWT1ErL1F78eGU84QVGOOEcQCoAKrO7NHBeU5YMu5pZFLCGrvpCtv/j1BBe/oAxnZkwS1Rn9iQRABbZbHcITw8UvKGhuq6URS8iqMGTvLBGnHmCOC8pwcNQwAgFQkc/v4OIXlOHdzpaWRywhq86QPTatpH54npBCJJ1+eLyocqQRB4Ca5rhsDrG0O29lEVkfdzMFJ2IJWZWGrH+O674xxBQiav/woYQBoEIbU7j4hch6u5OFkNV7yPp9Mb2MoEJEHL+rlCAAVGxlD+a4EBkfBuOCFyGrjZA9fk8pc1wIvycmi12DBxADgIpttdiFx0BUIcwXvKJN4s2OqYQsIXvFHNefuPiF8DpcVkAIAFqY4+qTSlwhrP7WOchvYwlZ9Yfscea4EM65rekTRXV6OhEAaOHil9UhvDHEFcLjk2hT8COWkFV/yNZf/HpgLJGFsKgZmUMAABqyPok5LoTHO53MhCwhe31nHmeOC6Hl/z+YOPgB7VkWz8UvhNZH3YyhiVhCVjshe+Le0cQWQmpvzmAOfUCDNhuZ40JovdXRQsgSso2Y43p0AsGFkDg2dSQHPqBhn/W0EFxQx9wWIavdkD1+t3+Oi4tfCC7/r8jtGpjBYQ9o2LZUu/DE8ItfCL43OlgIWUK28U49xBwXguvg2OEc9IAOrO3HHBeC673OIY5YQlZ7IXtsWomom8lbWQTH6UcmiJ1paRzygB7muGwOsaQ7b2URpLmtbibxegdClpBtzhzXfWOIMATF/oIsDnhARzYmc/ELCp/bImS1H7IX57gmEmJokRMVoznYAR1aEc9bWbTMoq6m8EQsIavdkD1xzyhiDM03a7LYMzSTQx3QoS1mOzGGFnmzo4WQJWRb7vTDzHGheY5MHsGBDuh5jqs3c1xonve7mMMXsYSstkP22LRSUcccF5rozIxJYmdGfw5zQMe2p9qF10CUoYkXvKKN4vWOqYQsIRvEOa4HxxJnaJIDpXkc5ADEujusxBma5N1OYX4bS8hqP2Tr57hmTCLQ0Li5rYfGiyoHBziAi3NcS5njQiN9FM4LXoSsjkLWP8dVwRwXGmffsKEc4AAu25TCHBca5+1OFkKWkA2dL6aXEWq4oePTSjm4AfzEyh5mQg039GGk3sYSsvoJ2RN3++e4uPiFa/NfCtw9aACHNoCf2JpqEx5iDTfwRkcLIUvIhuHi15/GE224pkNlBRzYAK5rTZ9Ugg3X9Lcu5shFLCGrr5D1/7+O62byVhZXzW1NLxM709M5rAHc8OLXklgufuGqua1uEZjbImT1G7L1F7/uZ44LP1ZTnMNBDaBBG5KY48KPvdPZEtmIJWT1F7J+dY9PJOBQ79T9YzigATTasjjeyiLCc1uELCF7/N7RRBzq7ckZzOEMoNE2m5jjwkVvdrQQsoRs5HzxyARCTueOlhdzMANoslU9LYSczn0Q6QtehCwhe/zu0vrJJYJOp3NbMyeJ6oEZHMoAmmx7ql14DMScXn0abRJvdEwlZAnZyDv10DiiTqcOjh3OgQyg2T7vxxyXXr3XWUFvYwlZfYfssTtLxZmZkwg7nTn9yHix05HGYQyAOS40ycfdjMqKWEJW7yFbIk7cN4a405n9+VkcxABabGMyF790N7fVyUzIErLKCtn6i1+PlRF4OnHi3lEcwACCZnmCmcDTiUVKmdsiZAnZn1z8umeU8M0i8jRvllPsHjqQwxdA0Gw124k85rYIWUI28k4/zByX1h2ZVMTBCyDoVvdhjkvr3u9iVmbEErKE7OW3stNKhY85Lu3ObT0+UVT3T+fQBRD8OS6rQ3hjuPil2bmtbibxulIjlpAlZH80x/XAWKJPow6U5HHgAgiZdXdYiT6NerezRbkRS8gSslc7M2Mi4acx/r3gKua2AIR4jmtZdy5+MbdFyBKykZ7junc08acx+/KGcNACCLlNRua4tObtjhZClpBVV8jWz3E9ysUvrfD/9+SABRAuK3vyVlYrPlTq3BYhS8g2ePHr7lLmuLRwweuJyWL3oAEcrgDCZpvFLhYbuPilBW+oIWIJWUL2uhe//jSeGFS5QxMKOFgBhN2avqmEoMr9rbNZHRFLyBKy1zWtVNTNZI5Lrb6YXiZ2pjO3BSACc1w2h1gSy1tZtfok2qieiCVkCdkbOXk/c1xqVTMihwMVQMSsT2KOS63e6WQhZAlZbYRs/RzX48xxqc3J+8dwkAKIuOXxvJVVm0XdTOqKWEKWkG14jmsUcagye7MHcYgCiLgtJua41OatjhZClpDVVsj6nX6EOS61OFpezAEKQDFW9bIQiCrxQRcVvo0lZAnZRs1x3VUq6mZx8UvpzsycJKoH9ufwBKCcOa5Uu/AaiESl+zTaKF5X49tYQpaQbfQc14PjiEWFOzhmGAcnAMX5/A7muJTuPTXNbRGyhGzz5rhKRN0M3soqdm7r4QmiKi2NQxOA8tjsYml3Ln4p1cfdTOqNWEKWkG3Sxa/7RhONCrUvfyiHJQDF2pjCxS+leruThZAlZPURsn5fPFZGOCrM8XtGcVACULwVCVz8UpoPu6j8bSwhS8g2+eLX3cxxKcqsyWL34IEckgAUb6vFLjxc/FKUNzumErKErL5Ctn6O6+HxBKRCHJlUyAEJQDVW9+GtrFK8r+YLXoQsIduit7LTSurfBBKSEZ7benyiqO6fzuEIQDW2W+3CG0NERton3Yzi9Q4WQpaQ1WfI1s9xPTCWmIyw2pG5HIwAVGd9opWYjLB3O2kkYglZQrYlc1z+N4IEZWScenCsqHJwIAJQp6XdzQRlpOa2uhq1E7GELCHbojmue5njipS9eUM4DAGo1mYjc1yR8paW3sYSsoRsi+e4Hp1AWIbZsakjOQgBqN7KnryVDbcPtDC3RcgSssGd4yrl4lcY1c2cJHZlZnAIAlC9banMcYXTp92M4o2OqYQsIUvI/mSO66FxRGaYHBqXzwEIQDPW9k0lMsPkb1qZ2yJkCdngX/wqFXUzeSsbav7POHamM7cFQDt22BzCG2siNEM+t2XSZsQSsoRssJy8fwyxGWI1RdkcfAC0N8eVzBxXqL3T2ULIErKEbEOY4wqdk/eN4cADoFnL47n4FSqLumr4bSwhS8gGdY7rntHCN4voDLpZTrEnaxCHHQDN2mJijou5LUKWkFXCxa9HmOMKtiPSCA46AJr3WS8L4Rlk73c1aztiCVlCNiQXv3grGzRnZkwS1Rn9OeQAaN52q114Yrj4FdS5La1HLCFLyIaC/+dTidDgODB6GAccAN34vB9zXMHyXmcdvI0lZAnZUPEP9xOiLXP64fGiypHG4QZAP3NcdodY2p23si31cTeTPiKWkCVkQzbHVcEcV0vtHz6Ugw2A7mxM4eJXS73dyUzIErKEbIvnuKaXEaTN5P/pXw40AHq1IoGLX831YVcdRSwhS8iG0vF7Spnjao4nJotdgwdwmAHQra1mm/AYiNImX/CKNok3OloIWUKWkA3aHNefxhOmTXR4YiEHGQDdW9OHt7JNntvqorO3sYQsIRvyt7L+Oa4nJhOojZ3bmj5RVKenc4gB4OKX1SG8zHE12ifRJv1FLCFLyIbl4tcDzHE1Vu3IXA4wALhkXaKVSG2kdzpbCFlClpANzY8klIgzj08kVBtw6oGxosrBwQUAV1oWx1vZhnzUTadvYwlZQjZcTtw7mlhtwN6cwRxaAHCVzUbmuBryVsdUQpaQJWRDfvHrUea4rufo1JEcWABwHat6cvHrej7oquO3sYQsIRvWi193Mcd1Lf7LcLsGZnBYAcB1bLPYmeO6jjc6WAhZQpaQDdtb2YfGEa9XOTQ2n4MKABqwtm8q4XqVv3U26ztiCVlCNhIXv+pmMscVcPqRCWJnWhqHFAA0NMdlc4gl3bn4FfBxN6N4Xe9vYwlZQjYic1z3jSFiL9lfmMUBBQCNtCGZOa6AtzsRsYQsIRsxZx5jjutExWgOJgBoouUJZt1H7CK9X/AiZAnZiM9x3aPzOa5Zk8WerEwOJQBooi1mu+5D9s2OvI0lZAnZyF/8eniCbkP2iHMEBxIANNPqXvqd43q/C29jCVlCViEXv0pF3Sz9Xfw6M2OS2JnRn8MIAJppu9UuPDH6i9hPoo3i9Y7EKyFLyCrGqQfH6i5kD4zK4yACgBZad4f+5rjeZW6LkCVklTjHNUk/c1t/GieqHBxAABCMOa6lcWYdzW3xSQEhS8gqc46rQj8Xv/YNH8IBBABBssloZW6LkCVkCdnI+2J6meYj1v8TvRw8ABBcK3to/+LXh8xtEbKErMLnuO4eJXwu7V788l9q2z1oIIcOAATZVotdeDQesm8wt0XIErIqmOP603jNhuzhskIOHAAIkTV9tXvx6/3OvI0lZAlZVTjun+Oaqb23smeml4md6ekcNgAQqotfVrvwxpi0N7fVjbktQpaQVdfFrwe0N8dVU5zLQQMAIbY+SXsXv97pxNwWIUvIqs6Zx7Uzx+UPcw4YAAiP5XHaeSv7ERe8CFlCVqWfGNyrnTmuPTmDOVwAIEw2m2yaCdm3mNsiZAlZFc9xPTJB9RF7bEoxBwsAhNmqXuqf4/qgC58UELKErLrfyt5dWj9Zpdq5rZmTRPXADA4VAAizbal24VHxxa9P6+e2CFRClpBVvVMPqXeO6+DYfA4UAIiQtf3Ue/Hrvc68jSVkCVmNKBVnZqrv4tfpRyaInY40DhMAiNQcl80hlsSq763sx92MhCkhS8hqao7rvjGqC9n9BVkcJAAQYRuT1fdW9m0ueBGyhKwGL349VqaaiD1x7ygOEABQyhxXglk1EbuIuS1ClpDV6MWve0YJ3ywVhOwsp9g9dCCHBwAoxFaLeua43uzI21hClpDVrNOPKP/i1+HJRRwcAKAwq3unKj5i3+/C21hClpDV9lvZaaXCp+A5rrrHJ4rq/ukcGgCgMNutDuFV8BzXp91M4nXmtghZQlYHc1wPjFNsyB4ozePAAACFWpeo3Ley73ZibouQJWR148wM5c1xnXponKhibgsAFD3HtbS7ibktQpaQJWQj68S9oxUXsvvyhnBQAIDCbTIqb47rrU6EKCFLyOpvjuvRCYqJ2GPTSjggAEAlVvawKCZiP+zCJwWELCGrz4tfd5cqYo6r7onJYvegARwOAKCaOS67WGxQxicGbxChhCwhq+OLX3+K/BzXoQkFHAwAoDJr+0b+4tffeBtLyBKyOjetVNTNjNwc1xfTy8TOdOa2AEB1c1w2h1gSG7m3sp/457YIUEKWkMWp+8dELGRrR+RwIACASq1PitzFr3c68zaWkCVkEZjjenxi+Oe27h/DQQAAKrcs3hz2iF3UjV/wImQJWfxojmtU2EN2b/YgDgEAULnNJnv457Y6WghPQpaQxVVzXI+Eb47raHkxBwAAaMRnvcI3x/VBVz4pIGQJWVxrjuuuUlEXhjku/6+KVQ/sz8MfALRy8cvqEF5D6CP202ijeJ23sYQsIYvrXvx6aFzIQ/bgmOE8+AFAa3Nc/UI/x/VeZyKWkCVkccM5rhJRNyN0c1xfPDxBVKWl8dAHAK2x2cWS7qaQzm0RnIQsIYuGL37dF7o5rn0FQ3nYA4BGbUwO3RzXO514G0vIErJo7MWv6WVBj9jj94ziQQ8AGrciIfhzXIu68jaWkCVk0ZSLX3ePEr4gXvySXc4LuwcP5CEPABq3xWILesi+yQUvQpaQRVOdfnh80EL2yKQiHvAAoBOrewfv4tf7XZjbImQJWTRzjss3q+UXv+oen3ihOoO5LQDQzxyXXXhjTEG44GUUr3fgbSwhS8iiuXNcD4xtccgeKMnlwQ4AOrPujpZf/Hq3M29jCVlCFi2c4zrz+MRmR+yph8ZeqHLwQAcAPVoa1/y3sh93NRKXhCwhiyDMcVWMbnbI7s0bwsMcAHRqk7H5F7/eYm6LkCVkEck5ruPTSr/nQQ4A+raqh6XJEfthVz4pIGQJWQR1jqtUyK7J5xsdsk9M/m5XZgYPcQDQuW2pduExGM83NmI/jTaKN5jbImQJWQT94tdD4xr9NvbQ+PwLPMABAH5r+jZ+juu9LkQsIUvIIkQXv3xPTP6moYg981jZVzvT0nh4AwDq7bA5hDfGeK4xc1tEJSFLyCJkTt4/psG3sbVF2byNBQD8yIbkhue43uGCFyFLyCLU6mZM8l0vYk8/NO4UD2wAwDXnuLqbzlwvYhd1NRGThCwhizDMcd0zWsgu6furI9b/v9uTNYiHNQDgmraYbMITbbxwjZC9wNwWIUvIImzOPFp27CdzW3eV1vKgBgA0MMd16OqQfb8Lc1uELCGLsF78KhV1LueXgYitc0lnqzP685AGADQ8xxVt/PKKkP37G4QkIUvIIuw/kvCn8fsDIXt4QuFOHtAAgMbNcVl3XZ7b6pz6PSFJyBKyiAjfLOeBupmTa6sczG0BABo5x2V3CK/BdPDTbsZjRCQhS8gicj+ScP+YHTUjcjfzYAYANGmOK8m26d3Olv1EJCFLyCJijpYVbamy2rdtTEgUAAA01ifdLNtfbmurJiIJWUIWEVNbkHOoZnjWkU09kngwAwAaZUN8kpjf2nF0blTaESKSkCVkERGHx+YfrSnIFn7VaekneTgDABrj3c6W439tlSb8Xmhr/4aQJGQJWYRX+Uj/T9F+HQjZmoLsc5t7J/OABgDc0Jq4ZDG3Vdo3gZD1/88L2xOShCwhizA6NGrY2Ssitt7uQQPP8ZAGANzIax2sXwciNuC5NnZCkpAlZBEeR5wjRG1B9oWrQ9b/v9t6h5kHNQDgmpbHpIirI/bSW9kLr7SzEpOELCGLMFzwKsn7+9URG7B36KDveVgDAK7lxbb289cKWb8FrXkrS8gSsgj1Ba+yQnG9iA3YYbHxwAYA/MhHXc3iehEb8FJbG0FJyBKyCNFm7NSR4sCI3O8bCtmavKEXNvVkjgsAcNG6+CTxbGvHhYZCdl6UQ1QSlYQsIYuQXPAam9/g29iAnenpPLwBAPXe6WRp8G1swPNteCtLyBKyCPbb2PJi/48fXGhsyO7PzxKb+xp5gAOAzn3WPVnMi0q70NiQndsqTSwkLAlZQhbBdLB0WKPfxgbsyhzAQxwAdK6yg7XRb2MDnuHiFyFLyCJoc1uTRjQ5YgO2pVh4kAOATnkNxiZHbABzXIQsIYvgzG0V5zY7ZPdmDxYbe3DxCwD0ZkNCov/nZ5sdsvNbO4hLQpaQRQvntsYXNDtiA6psDh7qAKAzH3YxNztiA15kjouQJWTR7AteU0pEbVFOi0N2/7ChYlPPZB7sAKATn8cliflRaS0O2XlRacxxEbKELJp5wWtMfosj9vLFr4z+PNwBQCfe7Jja4ogNeK4NF78IWUIWTb3gJRUHLWLr5WeJLf1MPOABQONWxiYHLWIDFrbn4hchS8iiCQ6U5AU3ZAuyxe4hA3nIA4DGvdLeFvSQZY6LkCVk0fgLXhOLgh6xAdvNqTzoAUCjPu1mCnrEBrzMHBchS8iiQVNLRO2InJCF7L7cIWITc1wAoDnrExLFc60dIQvZeVHMcRGyhCwacGhcfsgiNmCnPY2HPgBozN86W0IWsQEvMMdFyBKyuP7cVrGoKcwOecjuH54lNvdO4cEPABqxpntS/RvTUIfs3Kg0sbADnxgQsoQsrnXBa9TwkEfs5YtfAwfw8AcAjfCHUKgjNuBZLn4RsoQsfjK35RwRtogN2Jpo5gAAAJVbHpMStogNeIU5LkKWkMWP3saOzAt7yO7NGsQhAAAq5/8Z2XCH7HwufhGyhCwuX/AqKwx7xAbssNg5CABApT7qZg57xAa8xMUvQpaQRf3cVlFuxEJ237AhYlNP5rgAQG3WxSWJBWG44HXjOS4+MSBkCVldOzh2eMQiNqA6PZ1DAQBU5u2OlohFbMDzbbn4RcgSsvqd2yoPz9xWg3Nc+Vlicx/muABALT7rnlw/hRXpkJ3bKk0sbE+EErKErD4veJUOi3jEXp7jGsQcFwCoxcL21ohHbMAzzHERsoSsDue2JhUpJmIDtqVYOCAAQOE80SbFRCxzXIQsIavXt7HFeYoL2b05g8XGHhwSAKBUG+ITxfNt7IoLWf8cVyUxSsgSsvpweHyB4iI2oMrm4LAAAIX6oItZcREb8AJzXIQsIauDC15TRoraomzFhuy+YVliU69kDgwAUJjP45PE/NYOxYas//JZJXNchCwhq/G5rdHDFRuxl+e4BvTn0AAAhXmjg1WxERvwXBsufhGyhKx238Y6ixUfsQFb7jBycACAQqyMTVF8xAa82o63soQsIavNC14lw1QTsnuGZHJ4AIBCvNzOppqQXcAcFyFLyGrwgldZkWoiNmC72coBAgAR9kk3k2oiNuBl3soSsoSslowUtSNyVRey+3KHiI09kjhIACBC1scniWfbOFQXsvOi0sRr/OIXIUvIasOhcQWqi9iAnWlpHCYAECHvdbaoLmIDnm/LJwaELCGr/gte5cWitjBHtSFbk58lNvdJ4UABgDBbHZck5qk0Yi/PcfFWlpAlZFU+tzVquHoj9pJdmQM4VAAgzCrbW1UbsQH+zyKIVEKWkFWpI84Rqo/YgK1JZg4WAAiTZYYU1UdswCtc/CJkCVmVzm2NzNVMyO7JGsThAgBh8mJbu2ZCdj5zXIQsIavCua0JBZqJ2IAdVjsHDACE2KKuZs1EbMBLbW2EKiFLyKrG1JGiZkSO5kJ2f95QsalnMgcNAITIuvhEsaC1Q3Mhy8UvQpaQVdMFrzH5movYgOr0dA4bAAiRtztZNBexAc+14RMDQpaQVf7cllQsagpzNBuyflv6MscFAMG2KjZZzNVoxNaLShML23Pxi5AlZJX9NrZ0mKYj1m/3IOa4ACDYXm1v027EXvJMa+a4CFlCVrkXvCaN0HzEBmw3pnLwAECQLI42aT5if5jj4uIXIUvIKvKCV21xrm5Cdm/OYA4fAAiCDfGJ4vk2dt2E7Pwo3soSsoSs4hwaX6CbiA2osjk4hACghd7vYtZNxAa8yMUvQpaQVdAFrykjRU1Rju5Cdv/wLLG5N3NcANBca+OS6t9Q6i1k57ZyMMdFyBKyirngNXq47iI2YNeADA4jAGimNzpadRexzHERsoSskt7GOot1G7GX57juMHEgAUATrYhN0W3EXnwrmyZe5a0sIUvIRtaBkjzdh+yeoZkcSgDQRC+3s+k6ZP0WRPFWlpAlZCM3t1VWqPuIvTzHZbZyMAFAI33SzaT7iA14iTkuQpaQjcAnBVNLRK0OL3hdz768oWJjjyQOKABowPr4JPFsazsRe8m8qDRRScgSsoRsmC94jS0gYK+yMy2NQwoAGvBup1QC9irPc/GLkCVkw/g2trxY1BYSrj+d48oWm/ukcFABwHWs7p4s5upwbqsxF78WtrcSsoQsIRuWC16jhhGu17F70EAOKwC4Dn+sEa7X9mxrByFLyBKyoXZk8giCtQFbk8wcWABwlaUxKQRrA17V81tZQpaQDYfa4lxitQF7swZzaAHAFTYkJIoX2nDBqyH+XzkjZAlZQjZUc1sTuODVWDusdg4vALhkURczodpIL7a1EbKELCEbdFNHMrfVlItfw4aKzb2Y4wKAz+OSxILWXPBq9BxXK4eobE/IErKEbFAdGptPoDZRdUY6hxgA3XurI3NbTfWcHt/KErKEbMjmtqRiwrQ58rPFlr5GDjIAurXKP7dFmDZ9jitKh3NchCwhG7K5rZI8orS5c1yDMznMAOjWq+1shGkzPaO3OS5ClpANydzWxCKCtIW2mVI50ADozuJoI0HaQi+3sxGyhCwh26K5rRHMbbXUvpwhYlMPLn4B0NHcVnySeI65rZZf/NLTHBchS8gG/YLXeOa2gqXK4eBwA6Ab7zO3xRwXIUvIRlT5SFHD3Fbw5riGZ4nNvZM54ABo3pq45Po3iURokC5+tfJf/CJkCVlCtkkOjhpOgAbZroEZHHIANO/1DlYCNNhzXG3shCwhS8g2+oKXcwThGSJbEk0cdAA0a3lMCuEZIq+0sxKyhCwh26gLXsxthcyeoYM47ABo1kttmdsKlQVan+MiZAnZYDg8sZDgDLEdFisHHgDN+bibieAMsZfaWglZQpaQve4veE0dKWqLmNsK+cWvvCFiU0/muABox7r4pPoBf2Iz9HNclYQsIUvIXmdua2w+oRkm1WnpHH4ANOOdzhZCM0yeb2snZAlZQvYnb2PLi0VNAXNbYXsrm58lNvdJ4QAEoHqfdU8Wc6MIzLDOcRGyhCwh+2MHSocRmGG2e9BADkEAqlfZnrmtcHtWi3NchCwh2+y5rUnMbUXK1mQzByEA1VpiMBKWzHERsoRshOe2irngFSl7sweLjT24+AVAfTYkJIoX2tqJygiZr7U5LkKWkG3WBa/xBQRlhFVZ7RyKAFTnw67MbUXai21thCwhq9+QPTqlRNQWccEr4he/hg8Vm3omczACUI3P45LEfC54KWCOK007c1yELCHbVAfHDCcklTLHldGfwxGAarzZMZWQVIjn2tgIWUJWfyF7RComIJUkP0ts6WfkgASgeCtjkwlIhVnY3krIErL6CtkDJXnEo8LsGZzJIQlA8V5pbyMeFeaZ1nZClpDVT8genlhEOCrUdpOVgxKAYn3ajbktpXq5nY2QJWR1ELJTS0TtCC54KdW+3CFiE3NcABRofUKieK61g2hU7MUvh6hsT8gSshoP2cPj8wlGhdvpcHBoAlCcv3W2EIwK94KaL34RsoRsw3NbxaKmkFBU/hxXltjUO4WDE4BirOmeVP/Gj1hUtrlRaWJhByshS8hqM2QPjmZuSy12Dczg8ASgGK91sBKKKvFsGzshS8hqL2SPOEcQiCqzNdHEAQog4pbHpBCIKvOKGue4CFlC9oZzWyOZ21KbvUMHcYgCiDj/z6ASh+oyP8pByBKy2gnZw2WFhKFK7Ui1cZACiJiPupoIQ5V6SW1zXIQsIXvdua2iXKJQrXNceUPFpp7McQEIv3VxSWIBF7zUPcdFyBKyag/ZQ2OZ21L9HFd6OocqgLB7pxNzW2r3vJoufhGyhOxP5rbKmdvSxBxXfpbY3Ic5LgDh81n35PopJ2JQ5XNcrdLEwvaELCGr0pA9WMoFL63YPWgAhyuAsKlszwUvzcxxtbYTsoSs+kL2yKQiAlBjtqVYOGABhJzHYCQAmeMiZAnZCM9tFfM2VnNzXDmDxcYeHLIAQmdDfGL9d5XEn/bmuCoJWUJWLSF7eEIB4afVOS6bncMWQMh80MVM+GmUfw+YkCVkFR+yR6eMFLVFBJ9m57iGZYlNvZI5cAEE3efxSfVv7og+jV78ikoTlR2shCwhq+yQPTh6OMGncdUZGRy6AILuzY6pBJ/GPafkOS5ClpA96iwm9HRiyx1GDl4AQbMyNoXQ04lX21kJWUJWmSF7oGQYkacTe4ZkcvgCCJqX2zG3pRcLlDrHRcjqO2QPTywk8HRmu8nKAQygxT6NZm5Lb15qZyNkCVklhexIUTsil7jT28Wv3CFiY48kDmIAzbY+Pkk825oLXnozLypNvNaekCVkFeLQOOa29GqnI43DGECzvdfZQtjp1AtKm+MiZPUZskfLi0VtYQ5Rp1f5WWJzb+a4ADTdmrjk+jdzRJ2O57jaE7KEbMTntrjgpXe7MwdwKANossr2VoJO555V0hwXIau/kD0yeQQhh3pbE80czAAabVkMc1u46BWlzHERsvoL2QMjueCFi/ZmDeJwBtBoL7a1E3GoN18pc1yErL5C9nAZc1v4sR2pNg5oAA36qKuZgMOPvKiEi1+ErI5CdupIUTOCC164ao4rb6jY1JM5LgDXty4+USxgbgtKvPhFyOonZA+OzSfccE3V6ekc1gCu6+1OqYQbrun5SF/8ImT1EbJHpWJRw9wWbmBLXyMHNoCfWBWbLOYSbLieqDSxsL2VkCVkQ/w2tpS5LTQwxzVoIIc2gJ9Y2M5GrOGGnonkxS9CVvshe2RSEaGGRtlmTOXgBnCZJ9pIqKGRc1w2QpaQDc0Fr9pi5rbQyDmunMEc3gDqbYhPrP/+kUhDo+a4ohyELCEbgrmt8cxtoWmqbA4OcQDi/S7MbaGpc1x2QpaQDeIFrykjRU0RF7zQNPuHZ4nNvZM5yAEdWxuXVP+GjThDk+a4WjnCP8dFyGo3ZA+NHk6YoVl2DcjgMAd07I2OzG2heZ4L9xwXIavNkD3qLCbI0LI5rjtMHOiADq2ITSHI0IK3smni1faELCHbQgdK8ogxtMieIZkc6oAOvdyWuS20zIIoOyFLyLZgbmsiF7wQHNvNVg52QEc+6WYixBAUL7W1EbKEbDM+KZhaImq54IUg2Zc7RGzskcQBD+jA+vgk8QxzWwiSeVFpopKQJWSbfMFrbD4BhqDamZbGIQ/owLudLQQYguqFNjZClpBtwtvY8mJRW0h4Icjys8TmPikc9ICGre6eLOYRXgjBxa+F7a2ELCHbOAdHDSO6EJo5rswBHPaAhlV2sBJeCIlnQz3HRchqI2SPTB5BcCGktiaZOfABDVoaw9wWQuvVUL6VJWS1EbK1xbnEFkJqb9ZgDn1AYzYkJIoX2nLBC6Hl/5U4QpaQva7DE5jbQnjsSLVz+AMasqirmdBCWLwYqjkuQlblITt1JHNbCJv9w4aKzb2Y4wK04PO4JLGgtYPIQnjmuFo5RGV7QpaQvfqCF3NbCLPq/v2JAEAD3uqUSmAhrJ4PxcUvQla9IXtUKiasEIE5rmyxpa+REABUbFX35PppJOIKYZ3jigrBHBchq96QPVCSR1QhInYPziQGABV7tZ2NsEJEPNPaTsgSsiXi8KQiggoRtd2YShAAKuSJNhFUiKiX29kIWb2HbO0I5rYQWftyh4hNPbj4Bahqbis+STzXhrktRPjiVzDnuAhZ9YXsofEFhBQUocrmIA4AFXm/s4WQgiK8EKw5LkJWZSFbPlLUMLcFpcxxDc8Sm3snEwiACqyJSxbzoggoKOTiVyv/xS9CVnche3D0cAIKirJrQAaRAKjAGx2sBBQU5blgzHERsuoJ2SPOEYQTFGlLoolQABRsRUwK4QRFeqWdlZDVS8jWMrcFhdozlDkuQMleYm4LCuX/dTlCVgche7iskGCCou0w2wgGQIE+7srcFpTtpZa8lSVklR+yR6eOFLVFzG1B4Re/8oaITT2Z4wKUZH18onimtYNYguLnuCoJWe2G7MFx+YQSVGFnWhrxACjIu52Y24LG57gIWWWH7JHyYlFTwNwWVPJWNj9LbO6TQkAACrC6e1L9b9sTSVDPHJeVkNVayB4oZW4L6rJ70AAiAlCAyvZc8IK6PNvaTshqKWSPTGJuC+q0NdlMSAARtMRgJIygjzkuQla5IVtbzAUvqNPe7MFiYw8ufgGRsCEhsf57Q6IIajS/qXNchKwyQ/bQBOa2oPI5LqudqAAi4MOuZoIIqvZiUy5+EbLKC9mjU0pEbREXvKDyi1/Dh4pNPZMJCyCMPo9LEvOjmNuC2ue40ho/x0XIKi9kD41hbgvaUJ3Rn7gAwuitjqmEEDTh+TZ2QlaNIXtEKiaAoB35WWJLPyOBAYTBytiU+gkjIgha0ag5LkJWWSF7oCSP+IGm7BmcSWQAYfBKOy54QVueacwcFyGrnJA9MokLXtCm7SYroQGE0OJoE+EDTXq5oTkuQlYhITu1RNSO4IIXtGlfzmCxiTkuICTWJySK51pzwQtavfjlEJXtCVnFh+yh8QUEDzStyu4gOoAQ+FsX5ragbS+0tROySg7Zo+UjRU0hoQOtz3FliU29UwgPIIjWdE+qf2NF7EDL5kaliYUdrISsUkP24OhhhA50YdeAAcQHEESvd7ASOtCFZ683x0XIRjZkjzhHiNqC7AtEDvRia6KJAAGCYHlMCoEDXXnlWnNchGxkQ/bASOa2oC97hw4iQoAgeKmtnbiBrvh/tY6QVVDIHi5jbgs6neOy2AgRoAU+7srcFvTpxbY2QlYRITu1RBwoyj1P1ECXc1x5Q8WmnsxxAc2xLi6pfiieqIFu57gI2ciH7OGx+XwXC13bmZZGlADN8E5nC0EDfc9xtbERspEM2aPlxaK2MPs7Yga6nuPKzxKb+zLHBTTFZ92T66eIiBnoeo6rVdr3C9sTshEL2YOlw+sIGSBb7B40kDgBmmBhe+a2gItzXI7vCNkIhOyRyUXfEjDAFXNcyRYCBWgEr8FIwAA/muOyEbLhDtkDRblHiBfgiotf2YPFxh5ECnAjG+ITxfNtuOAFXDXHdYKQDaMj4wu2EC7AT1VZ7cQKcAMfdjETLsC1Ln61tVUTsmFSW5j9EdECXOOt7LAssbl3MsECXMPauOT6IXiiBbjGHFer9A8I2fD5WW1h9rDagpxDxAvwY7sy+hMtwDW82TGVYAF+slyQfmBe6/RcNXWgFkL24icGxcW/qinKeai2IPtrAga4JD9LbOlnIlyAK6yMTSFagB9J/3peVPoD7xmKf6W2/tNMyP4QtHn/XVuQ8xoRA1y0Z0gm8QJc4ZV2NsIF+OEtbOWCjmn/pdbu01zIXv52tjivV21h9jpCBsgW201WAgZISBSfdjMRL8DFH0D4fEHbtB5q7z3Nhuzl72cLckfUFOQcJWag64tfuUPEpp5EDPRtfXyieLY1F7ygc1HpR+a2Si/0N5IWWk/rIVvvZEHBPx0ozHmspjDnG6IGerXTkUbMQNfe68zcFvQcsGnf/DUq/dHKDpm/0VLj6SJkL39uUFrwv7WFOe8SNdDrxS/muKBXa+KSxbwoYga6/Q727bltMv9Hi22nq5ANqCnKTawtyOaHFKC/Oa6BA4ga6NJrHawEDfT4GcGmuW3T+2m56XQZsvUqK2+uKcodXVuYfZLAgZ5sTTQTNtCVZTHMbUFnb2Cj0k/MbZVeKioqbtJ6z+k3ZC85M2H4v9QW5bprCnP+TuRAD/ZmDSJuoCsvtrUTN9DLG9i//zUqfValIfOf9dJxug/ZgMMFOW1qC7IXETrQgx0WG4EDXfioK3Nb0M2PGnzw17b9W+ut34jYqxwszDHXFObsIHag6TmuvKFiU88kQgeati4+UTzD3Ba0v0awfX6rdKNeu414vZaKip8fKMwtqy3M/oLogWbnuNLTiR1o2judUokcaPk72NNzW6VP8Par+Lmem41ovYFDo/P+rbYw5y+1BdnnCR9o0Za+RoIHmvRZ92T/LxcRPNDiG9jv5kalPzWvQ+a/0mqEbKMcKMztWFuQ/QnhA63ZPWgg0QNNWtjORvBAi5e5PlrQKrM9bUbINu/72RHZ/WsLc3YTQNCSbcZUwgea4jUYCR5o7SLXrnmt09NpMUI2GN/P/qK2KHtKTUGOjwiCJua4coYQP9CMDfGJ4vk2zG1BMwFbNy8qXVpnKL6FBiNkg+pYSe6/1xTkLKgtzPmeGILaVVntRBA04YMuZuIHWgjY7+e2Tp+3oFXm72guQja0+7OFed1qC7OXEkNQs/3Dh4rNvZMJIaja2rhkMT+KuS2ofI2gVbp3fuv+XWgsQjbcF8KG1BRk7yeKoFbVGRnEEFTtzY7MbUHNc1pp+/7aJn0QTUXIRvD72eH/WFuYfU9tQc6XhBHUaOsdJoIIqrQiNoUYglqXCM7+NSr9rg9ajb2VliJklfF2tqDgP2uLcl6sLci+QBxBTfYMySSKoEovt2VuC2r7hCDtwtzW6S+80C7jP2gnQlahP3eb172mMOczAglqst1kJYygKp90MxFGUNtlrpXPtM6IpZUIWTX4WW1RTl5tQc4hIglqsC93iNjYI4lAgiqsj08SzzC3BfVc5Dowt1V6Dm1EyKrOkeLiX9UU5j5YW5D9NbEExc9xOdKIJKjCe50tBBLU8Ab263lR6Q+8Zyj+FU1EyKo8aPP+u7Yg5zViCYqWnyU290khlKBoa7oniXlEEpT/Fnbhgo5p/0UDEbKaUluc16u2MHsd0QSl2pU5gFiCor3W3kooQcmXuT5f0DatB81DyGr6+9mawpyimoKco4QTFDnHlWQmmKBIy2KMxBKUOqd1ZG6r9EL/GU/nELK6cLKg4J8OFOY8VlOY8w3xBEXNcWUNIpqgOBsSEsULbbngBaUFbNo3f41Kf7SyQ+ZvaBtCVp+fG5QW/G9tYc47BBSUZEeqjXiCoizqytwWFHeZ6625bTL/h5YhZCHEP9QU5SbWFmRvIaKgBPuHDRWbezHHBWVYF58kFrR2EE5QymcEm+a2Te9HuxCyuFpl5c01RbmjawuzTxJTiLTq/v2JKCjC251SiSdE/iJXVPqJua3SS0VFxU00CyGLGzjz/9q7++CoynuB46PiyzA6Ojo6ozM6o3N2NyFRxECIgBqyeSUk52zCBsh5dgnniVuoQ+XOre3cvtzZ2jut7dzWdm5t5+ZsEgWtmvrWolhKW4oVqRAwQUEkCudJBB25IlZluAicO7G1tyKYt305u/v94/N3ZnbPPuc7zzzPLyvbLlGW+VNHimMEFTI3jst0d9xWTUgho14orRy+CU5IIZM7sMdsn3FvT0n4YhqFkMUY7LdEwJHiWaIKmTLQsoCYQkY9wrgtZPYc7NqOgpCfJiFkMQFDUtQ6UuwirJAJO6vnEVTIiD/exLgtZGwawc5OzaimQQhZJEs8PmlQRv5FSfMQcYV02htZ5PbN4uIX0jxuqyzoPhBg3BbSfg723YTPuHNDeXwS7UHIIgXevCN6mWo3f6Es8ziRhXR5taGBuEJarZ1aR1ghnTuwH9s+4+eJovCltAYhizQYlJFiZZnriSykZRxXW6vbP6eKwEJabJkZdBM+4gppu8y1rksLT6EtCFlk4vzs7WZISTFAbCHV9jQ3EVlIi8eLGbeFtFzk2mMHQjotQcgi8+dnz1NSfN2xxPsEF1Jpx9waQgsp9fz0KgILqQ7Ywwmf8bXekti5NAQhCw95e1nkCscSXUqKE0QXUuH1xWFiCyn1UOF8QgupCtgTtt9IdGnhy2kGQhZenj8ro9OUNDcSXkjJOK7aeoILKbF+Wg2xhdRMI9CMDZ3+0FQagZBFNl0Ia48udCxzH/GFpI7jii5y+2YzjgvJta2swu32NxJdSPI4LX1vQguFaQJCFll7frbtAiXNf1eW+JAIQ7LsbjSILyTVb25g3BaSOonggw6f8a212orzaQFCFrmwO2tZV6l28aCyzJOEGCY+jst0+29lHBeS4y+lQdf2sRuLZBwh0E92aMaq1YVNV/LuJ2SRk//uNlrqSLGZGMNEDYSbiTAkRc+UeiIMybjMtanb3zSDdz0hi9x3lmoXUSXFEEGGiXglWEeIYUI2llQTYJjoRa5BWzME73ZCFnnmQCw22ZGR/1CWeYQow3i8Yba4L83i4hfGZ/vNFe7qAsZtYdw7sEdsn3H3mpLYZN7phCzyOmij1ygpeggzjMeuefOJMozLb6fWEmMY7y7so13F+tW8wwlZ4B9ULDpHSbOXOMOYLn4tWez2za4kzDAmW2cG3U4ueGHsl7m2dhXos3hnE7LAGc/POlK0O5Z4i0jDaL0WChFnGJMni+cRZhjLOK0DCS1kDb+jeE+DDwEjOmhZF6l28UNHiqOEGka0tNXdUV5NoGFUNs2oGt5ZI84wioDVjyb8oXt6isIX8m4GIYuxHzdYbl2npPg1sYaRvL4wTKRhVB4uZNwWRnWZ60k7EL6WdzEIWUyY0x6pcKToJ9jwheO4qucRavhCf7iJcVsY8RhBn11glPPuBSGL5OrpOWdQml9W0jxItOF09oqFbh/juHAG226ucO8PcMELZ7jI5TPe6fCFlrnx+Nm8c0HIImXeW9l2ibLMnzpSHCPecKrdDY1EG07r6RvqCDacbgf2mO0z7u0pCV/MOxaELNJmvyUCjhTPEm/4zDiutla375Yqwg2fsaW00k0wbguf34V9pruw2cc7FYQsMmZIilpHil1EHD61Z0ET8YbPeKyIcVv4zDSCnZ2aUc07FIQsvCEen6TazZVKmocIOQx7uaKGgMMn/jyjknDDpzuw7yZ8xp0byuOTeHeCkIXnvHlH9DLVbv5CWeZxYi7Px3G1Mo4Lf/NQQQMRxw7sxx1+475EUfhS3pUgZOF5gzJSrCxzPUGX33bV1RNyee5302qIOC5zrevSwlN4N4KQRRYGrTCUFANEXZ5e/IoudvtmM44rX/XODLrdfnZj8/gfGuyxAyGddyEIWWT7+dnzlBRfdyzxPnGXh+O4DIOoy1O/uZ5xW3kasIdtX+iu3pLYubwDQcgiZ7y9LHKFIyOdSooTBF4e7coubXX7b2McV77ZXFrp2j6iLs8C9oSthewuLXw57zwQssjd+bMyOk1JcyORlz8Gws3EXZ55dEo9YZdP0wg0Y0OnPzSVdxwIWeTP+dn26ELHMvcRenkyjquyjsDLExtKqoi7vBmnpe9NaKEw7zQQssjT87NtFzjt4tvKEh8Se7ltr7nQfWkWkZfrtpdVuKsCXPDKg0kEH9i+0DfXaivO510GQhbszlrWVUqK1coyTxJ9uevV+gZiL8c9e2MtkZfTRwj0kx2asWp1YdOVvLtAyAKf+3e30VJHis1EX45e/Fqy2O2bU0nw5agtM4Nup6+R4Mvdy1ybuv1NM3hXgZAFvthZSkYiSooh4i/3vBYKEX056snr5xF7uXmRa7BDC5m8m0DIAmNwIBabPCjN7yrLPEIA5pClre6O8hrCL8dsmlFJ9OXeDuwR22fcvaYkNpl3EghZYNxBG71GSdFDBObQOK5FYeIvxzxcOJ/wy61d2Ee6ivWreQeBkAWSRMWic5Q0ewnB3LCzZh4BmCN+f1M18Zc7l7m2dhXos3jngJAFUnR+1mmPSMcSbxGD2e2NyCK3bzYRmO22lVW49/sZt5UD47QOJLSQNbzG8p4BIQuk2EHLuki1ix86UhwlCrN4HFeDTgxmuadvqCMCszpg9aMJf+ienqLwhbxbQMgC6T5usNy6TknzKaIwey9+9d/COK5s9eLMSjfhIwaz+L9yPWEHwtfyLgEhC2SY0x6pcKToJw6zz54FTURhlnqsqJ4gzM5jBH12gVHOuwOELOAlPT3nDErzy0qaBwnE7LIjyDiubPPc9CqCMOt2YI13OnyhZW48fjbvDBCygEe9t7LtEiXFTxwpjhGJWXLxq7WFOMwyDxYwbiuLdmCPdfj1H/eUhC/mHQFCFsgS+y0RcCxzLaGYJeO46uYTiFli3Y21xGH27MI+013Y7OOdAEIWyFJDUtQ6UuwiFr1t75LhcVxBQtHjesuCbre/kUj0/jSCnZ2aUc07AIQskAvi8Umq3VyppHmIaPSu3YZBLHrcr69n3JbHd2DftX2hr2woj09i7QchC+SYN++IXuZI8XNlmccJR49e/LqtmmD0qM2llcMjmwhGb+7AftzhN+5LFIUvZa0HIQvkuEEZKVaWuZ5w9J6BlgVEo0c9OoVxWx69zLWuSwtPYW0HIQvkXdAKQ0kxQEB6yytVdYSjx2y4qZpg9BxjT2egqZG1HIQskN/nZ89TMvI1xxLvE5EeGcclFhGPHrK9rMJdFWggHL0TsIdtX+iu3pLYuazhIGQBfOLtZZErHBnpVFKcICYz79X5jUSkRzw7lXFbHgnYE7YWsru08OWs2SBkAZx+/qyMTlPS3EhMZta+tsVu3y2VhGSGbZlZ6XYybivz0wg0Y0OnPzSVNRogZIFRUbeLFscy9xGVmbOnKURMZtgTxfMIyYyO09L32lrTAtZkgJAFxnF+tu0Cp118W1niQ8IyM16eW0NQZsjzMyqJycxNIvjA9oW+uVZbcT5rMUDIAhObbmBZVykpVivLPElcptfri8JEZYb8soALXuk/QqCftDX9gdWFTVey9gKELJBUQzJa6kixmcBMr5218wjLNPv9tBrCMv2XuTZ1Bpqns9YChCyQSmcpGYkoKYaIzPTYG1nkvjQrSGCmybayoNvNuK10XuQa7NBCJmsrQMgCaXMgFps8KM3vKss8Qmym3u4GnchMk6dvqCMw0+OjDr/+nTUlscmsqQAhC2QoaKPXKEs8Smym2NJWt//WKkIzxV4sDboJAjMdu7CPdBXrV7OGAoQs4I1xXbHoHCXNXqIzdQbCzcRmiv2qiHFbKb7MtbWrQJ/FmgkQsoAnz8867RHpWOItwjNF47iCtQRnijw3vYrYTN04rQO2L7R0eI1gnQQIWcDTDlrWRUqaP3CkOEp8JnkcV2sL0ZkC22+ucB8smE9wJj1g9aO2X/9+T1H4QtZGgJAFsuu4wXLrOiXNpwjQ5NpV10B8Jtm6abVEZ/L/K9cTdiB8LWshQMgCWc1pj1Q4UvQTocmxL7rY7Z/DOK5k6S0Lul3+RuIzeccI+uwCo5y1DyBkgdzR03POYLtYrqR5kBiduNcMgwhNkqeuZ9xWcnZgjXcSPv1Lbjx+NmseQMgCOem9lW2XKCl+4khxjCCdmB3l1YToBL0wo2r4Jj0hOrEd2GMdfv3HPSXhi1njAEIWyAv7LRFwLHMtQTqBcVwtC4jRCXpkSj0hOrHLXE93Fzb7WNMAQhbIS0NS1DpS7CJMx+eVqnkE6Tj98aYaQnT8AbuzUzOqWcMAQhZAPD5JSXGnkuYh4nRs9oqFbt8sLn6NedxWWdB9IMAFr3Gcg33X9oW+sqE8Pom1CyBkAfyTN++IXuZI8XNlmceJ1NF7dX4jcTpGa6cybmuMO7Af25r+s0RR+FLWKoCQBfAFBmWkWFnmeiJ1lOO42lrd/jlVBOoobZkZdBM+4nQMl7nWdWnhKaxNACELYCxB2x7VlRQDxOooxnE1h4jUUXq8iAteo2Ps6Qw0NbIWAYQsgPGfnz1PycjXHEu8T7COMI5rbg2hOoLnp1cRqCMH7OGET/9qb0nsXNYggJAFkARvL4tcMWiJhJLiBNF6em8saiFWR/BQ4XxC9cwBeyKh6R1dWvhy1hyAkAWQivmzMjpNSXMj4Xp6O2vrCdYzWD+NcVtnnEagGRs6/aGprDEAIQsgDdTtosWxzH3E6ynjuKKL3L7ZjOM61bayCrfbz7itz4/T0vfaWtMC1hSAkAWQ9vOzbRc4MvItZYkPidj/t1vXiddTrLmhjnD97CSCD2y//o212orzWUsAQhZAJqcbWNZVSpqrlGWeJGSHx3GZ7o5bGcf1qb+UVrq2j93Yvx0h0E/amv7A6sKmK1k7AEIWgIcMyWipI8VmYtZ094Sbidi/65nCuK2/X+ba1Blons5aARCyALzrLNVuCiXFUL7H7CvBuryP2I0l1ezCasZgwqe3sjYAhCyALHEgFps8aIm7lWUeydtxXGaL+9Ks/L34tf3mCnd1oCGfI/ajDr/+nTUlscmsCQAhCyArgzZ6jbLEo/kas7vqG/I2ZH97Y20eX+bSH+4q1q9mDQAIWQC5MK4rFp2jpNmbdxe/lix2++ZU5l3Ebp0ZdDvz8IKXrelbuwr0WfzmAUIWQA6enx2UpuVY4q18itnXQkbehexT19fl2zitA7YvtHT4Ged3DhCyAHLYQcu6SEnzB44UR/MiZpea7o7y6ryJ2BdmVA7vTObLEYKjtl//fk9R+EJ+2wAhCyCfjhsst65zpHgyH2L29YUL8iZkHy6sz5P/ymU8bgfC1/JbBghZAHnsTSs615GiP9djdmf1vJyP2D/cVJMPxwj67AKjnN8uQMgCwN/09Jwz2C6WK2kezNWQ3SsWun05PI5r280V7v2BxlzegX0n4dO/5MbjZ/ObBQhZAPic91a2XaKsyL2OFMdyMWZfnd+YsyH7zNTaXN2BPZbQjB/1lIQv5jcKgA8BwIj2WyLgSPFMzo3jamt1+27JvXFcW0or3UQujtvy6U93Fzb7+E0CIGQBjNmQFLWOFLtyKWb3NDflXMg+XlyfawG7s1MzqvkNAiBkAUxMPD5JSXGnkuahXInZlytqciZi/zyjKpfOwb7b4TNWbCiPT+K3B4CQBZC86QZ3RC9zpLhPWebxrB/HtbglZ0L2oYL5ubAD+7Gt6T9LFIUv5bcGgJAFkDLq9iVFyjLXZ/04rtr6rI/Y9dNqcuEy17ouLTyF3xYAQhZA2gy2R3UlxUDWXvyKLnb7ZmfvOK7esqDb7W/I4og19iQ0vYHfEgBCFkCmzs+e51jiLscS72djzO7W9awN2d9cPy9bA/Zwwqd/tbckdi6/IQCELICMe3tZ5IpBSySUFCeyald2aavbf1tV1kXs5tJK1/ZlXcCeSGh6R5cWvpzfDABCFoDn7JfRaUqaG7MpZgdaFmRdyD46JbvGbdmasaHTH5rKbwQAIQvA+xfCZCTsWOa+rBnHVVmXNRH7p+lVWTROS9/b6TOa+U0AIGQBZNn52bYLHBn5lrLEh14P2TfMhe5Ls7wfsdtvrnBXBRqyYRLBB7Zf/8ZabcX5/BYAELIAsne6gWVdpaS5SlnmSS/H7K76Bs+H7G+n1nr8CIF+0vYZ968ubLqSZx8AIQsgZwzJaKkjxWbPXvxastjtm1Pp2YjdMjPodnr6gpexqTPQPJ1nHQAhCyBXnaXaTaGkGPJizL7WZHg2ZJ8snufVi1yDCZ/eyrMNgJAFkBcOxGKTBy1xt7LMI56K2aWt7o7yGs9F7KYZlV6M2I9svxFfUxKbzDMNgJAFkIdBG71GSfMRT43jWuS9cVwPF8732GUu/eGuYv1qnmEAhCwAxnXFonOUNHu9ErOv1MzzTMT+4aZqL13m2tpVoM/imQVAyALAKednB6VpOZZ4K+PjuCKL3L7ZmY/YbWUV7v3+Bi+M0zrQ4TPahr8jnlMAhCwAnMFBy7pISXGPI8XRTMbsqw2NGQ/ZZzI9bsunH+3QjO/1FIUv5NkEQMgCwGiPGyy3rnOkeDJj47jaWt3+W6oyFrEvzgy6CV8m/yuX8bgdCF/LswiAkAWAcXrTis51pOjPRMzuWdCUsZB9rKg+U8cI+uwCo5xnDwAhCwDJ0NNzzqAVWaakeTDdMbsjmP5xXM9Nr8rEDuw7tt+IufH42TxzAAhZAEiy91a2XaKsyL2OFMfSdvGrtSXtIftgwfx07sAeS2jGj3pKwhfzjAEgZAEgxfZbIuBI8Uy6YnZXXX3aIvZ302rSuQu7pruw2cczBYCQBYA0G5Ki1pFiV6pDdu+S4XFcwZRHbG9Z0O32N6ZjGsHOTs2o5hkCQMgCQCbF45NUe+QrSpqHUhmzr+lGykP21zfUpXoH9t0On7FiQ3l8Es8OAEIWALwy3eCO6GWOFPcpyzyeknFcS1vd/tuqUxaxm0srXduXsh3Yjzs0478SReFLeVYAELIA4FHq9iVFyjLXpyJmB1oWpCxkH51Sn6rLXOu6tPAUng0AhCwAZIlBSzQqKQaSHbOvVNYlPWL/VFKdgog19iQ0vYFnAQAhCwDZeX72PMcSdzmWeD9p47jMhUmN2O1lFe6qQEMyA/aw7Tf+tbckdi7PAABCFgCy3NvLIlcoKWwlxYlkxOyr9Q1JC9lnb0zWuC3jhO0z/rtLC1/Odw6AkAWAHLNfRqcpaW6c8MWvtsVu3y2VE47YLTMr3c4kjNuyNWNDpz80le8YACELALl+IUxGwo5l7pvQOK6m0IRD9onieRMcp6Xv7fQZzXynAAhZAMir87NtFwy2m99UlvhwPCGrLPPky3Nrxh2xz8+odG1NPznOSQQfJPzGv63VVpzPdwmAkAWAvJ1uYF2lLPHAcJiONWZfXxQed8j+snD+OI4Q6Cdtn3H/6sKmK/nuABCyAIBPDMloqSPF5rHG7M6a+jFH7O+njWfclrGpM9A8ne8KACELADidsxxLmEqKoVFf/IouPv7SrOCoI3ZbWdC93994YgwXuQZtn7GY7wYACFkAGNGBWGyykpHvKMs8MpqY3d3YOOqQffqGutHuwn5k+434mpLYZL4TACBkAWCMQRu9RknzkRFjdmnr8f5bq0aM2BdLg25C04+PPI3A+GVXsX413wEAELIAMCFKLpmtpNn7RTE7EG46OlLI/qqo/n9HuMy1tatAn8VnDgCELAAk9fzsYLtY6ljirTPF7MvB2jNG7HPTq75onNaBDp/RNvw3+JwBgJAFgJQ4aFkXKSnucaQ4emrI7o0sOnS6iN1+c4W7KtB4+PMBqx/t0Izv9RSFL+SzBQBCFgDSc9xguXWdY4knTo3ZXfUNfz01ZNfdWPvhaXZhH7MD4Wv5LAGAkAWAjHjTis51pOj/p4tfh/tmV/4jYnvLgm7Cp//1nwK2zy4wyvnsAICQBYDM6+k5Z9CKLFPSPPjJf/xa0Lz705B9rKh+4O+TCN6x/UbMjcfP5jMDAEIWADzlvZVtlzhS/FhJ8dErc2v+54XSqkOfzIPVjP/sKQlfzGcEAIQsAHjafksEXm9ZYP+qeH5Xd2Gzj88EAJLj/wDlYX8fNDP+tQAAAABJRU5ErkJggg==;" vertex="1" parent="1">
          <mxGeometry x="290" y="-1090" width="80" height="80" as="geometry" />
        </mxCell>
        <mxCell id="Z11w9rOS_5Ds6-d-HtvD-27" value="CleverCloud" style="text;html=1;align=center;verticalAlign=middle;resizable=0;points=[];autosize=1;strokeColor=none;fillColor=none;" vertex="1" parent="1">
          <mxGeometry x="517.5" y="-1120" width="90" height="30" as="geometry" />
        </mxCell>
        <mxCell id="Z11w9rOS_5Ds6-d-HtvD-28" value="Production" style="sketch=0;outlineConnect=0;fontColor=#232F3E;gradientColor=none;strokeColor=#232F3E;fillColor=#ffffff;dashed=0;verticalLabelPosition=bottom;verticalAlign=top;align=center;html=1;fontSize=12;fontStyle=0;aspect=fixed;shape=mxgraph.aws4.resourceIcon;resIcon=mxgraph.aws4.mysql_db_instance;" vertex="1" parent="1">
          <mxGeometry x="330" y="-990" width="170" height="170" as="geometry" />
        </mxCell>
        <mxCell id="Z11w9rOS_5Ds6-d-HtvD-29" value="Development" style="sketch=0;outlineConnect=0;fontColor=#232F3E;gradientColor=none;strokeColor=#232F3E;fillColor=#ffffff;dashed=0;verticalLabelPosition=bottom;verticalAlign=top;align=center;html=1;fontSize=12;fontStyle=0;aspect=fixed;shape=mxgraph.aws4.resourceIcon;resIcon=mxgraph.aws4.mysql_db_instance;" vertex="1" parent="1">
          <mxGeometry x="630" y="-990" width="170" height="170" as="geometry" />
        </mxCell>
        <mxCell id="Z11w9rOS_5Ds6-d-HtvD-42" value="" style="endArrow=classic;startArrow=classic;html=1;rounded=0;flowAnimation=1;exitX=0.5;exitY=0;exitDx=0;exitDy=0;exitPerimeter=0;strokeColor=#336600;strokeWidth=2;" edge="1" parent="1" source="Z11w9rOS_5Ds6-d-HtvD-8" target="Z11w9rOS_5Ds6-d-HtvD-28">
          <mxGeometry width="50" height="50" relative="1" as="geometry">
            <mxPoint x="160" y="-680" as="sourcePoint" />
            <mxPoint x="280" y="-910" as="targetPoint" />
            <Array as="points">
              <mxPoint x="140" y="-905" />
            </Array>
          </mxGeometry>
        </mxCell>
        <mxCell id="Z11w9rOS_5Ds6-d-HtvD-43" value="" style="endArrow=classic;startArrow=classic;html=1;rounded=0;flowAnimation=1;strokeColor=#336600;strokeWidth=2;" edge="1" parent="1" target="Z11w9rOS_5Ds6-d-HtvD-29">
          <mxGeometry width="50" height="50" relative="1" as="geometry">
            <mxPoint x="1150" y="-380" as="sourcePoint" />
            <mxPoint x="1472" y="-890" as="targetPoint" />
            <Array as="points">
              <mxPoint x="1150" y="-905" />
            </Array>
          </mxGeometry>
        </mxCell>
        <mxCell id="Z11w9rOS_5Ds6-d-HtvD-45" value="Cloud Firestore" style="shape=image;verticalLabelPosition=bottom;labelBackgroundColor=default;verticalAlign=top;aspect=fixed;imageAspect=0;image=data:image/png,iVBORw0KGgoAAAANSUhEUgAAASwAAADhCAYAAAByfIirAAAABGdBTUEAALGPC/xhBQAAACBjSFJNAAB6JgAAgIQAAPoAAACA6AAAdTAAAOpgAAA6mAAAF3CculE8AAAABmJLR0QAAAAAAAD5Q7t/AAAACXBIWXMAABNwAAATcAGGLvnpAAAAB3RJTUUH4gMcFRAuRs782wAAK7FJREFUeNrtnXmUHHd177+/quoezSbNjISk0ewzcrwbhxC8QhyTkECekbwFg40dbGOsBYOdR3IO54RscJK8nJPwkkDAZHsvIZsxdsgLeUnAS2x5wfCwQ4BAgm3ZkmxLmrXXqt9y3x/V3dPT093TS1VX9/T9+OhI6qmuvlXq+vr+7u8uAkzk0ONXjcLog0a515PM7oWwXCvW803h9HwalvMFcdnfeVHbyDDtgIjagG6HHr9qnJT7B2rl5FUyccoi5QJCwIr1IrZ114ozsONXEO/7fXHJ/SpqWxkmapyoDehm6Mj+HpKZX/cWj+2Ty68ARBBCAASY7Apcmd5KRv1KbNvoMQD3RW0vw0SNFbUBXQ3p1+vU/DvVymsQgC9WeYQAjIJcOrFVp5c+RE9duz1qcxkmaliwIoSUd4FKLYzA6ApHCJB2oZKn3gQ3+c6o7WWYqGHBihBS7g+Ryq6LJIqiX4CATi/FdHrpDnry2p1R28wwUcKCFRF09Jds0t40aQVAlIjUKgIAjIRKnv5RchPXR203w0QJC1ZUnHq+n5ScgNE1bNUKmMyybdJLB+mJ/TNRm84wUcGCFRUyM0zaGwWZmg4no6ASJ8+hbOJ9RBS19QwTCSxYUaG8UVLuCLAqPkJU+yVgsivQ6aX34on9Z0VtPsNEAQtWVBg5QVr2AauiVMOboFOnp8lNvo/oEU76ZboOFqyIIC1nSHl2faojYNwEdHrx3TjyO+dHfQ0M02pYsCKCtJqFketcq2rLQv+NBjp1eoK81Afp6zdxpQLTVbBgRQB96wM9pL3p4oTRWpaFQvgJEMZNQqfmr0Fm6ZKor4VhWgkLVhSkFraR8saJfMGqLX6VQwCCDHTy5IhxE3fSN26OR305DNMqWLCiQLmT0HLML3Ze/2NR5r+1BwiQzMCkF96B9MKbo74chmkVLFhRYNQEaW+gOKUBQHlxqvgzgk7ND5nsymF6+l19UV8Sw7QCFqwIIKOmSLlOsfyIGluTrR5X8LLeBi/5jqiviWFaAQtWFGhvL2lZKBysVazyFHtbOnW6z2RXDtOT14xEfVkMEzYsWC2G/v1gnGR2BtpDpYavVdMaio+DAKksdOLkpfAy+6K+NoYJGxasVpOeHyAt9xR2CLE+D6sS5YVLwGQWYya7fBs9yU3+mM0NC1arke4O0t4ulClgrjW9YU1jUgiQltCp0xfBS10X9eUxTJiwYLUaI0dJedsAWuNdVRKrWl4XEDDpJcdkVw7TE/uno75EhgkLFqwWQ1pOkfZ6i18T69Os1iz/KsWx1vzdSOjkqfPIy7wn6mtkmLBgwWo1Ws5Be0JUCbhXo7JoCZj0Ikxm8VY6so/bzzCbEhasFkJ0Svgelt8WGaizLCdHRdEiDZM8PUcyczM3+WM2IyxYreSbH+ktLXouph7xKn+s3+TPpBffgyf2nxv15TJM0LBgtRI3OUTaGyvXFrl8nhUqDqcofc9aL+vUFHmpA/TMjdx+htlUsGC1Eu3uhPIKbZGr5lxVeG3dVJ11ouU3+TOZpRvgrlwU9SUzTJCwYLUSLcdJewPYILy00cqwmmgB8Jv8JU5uJzd5Bz3zHm4/w2waWLBaCBk1TVrGUSU9odYwVqXj8l4WuUmY9MI+ZFe4/QyzaeAYRyvRcg5aAhAN7Q6WIrDaoEYIFJLn/T8TdGp+m9U3cgc9/bNHxEV/mw3z0lb+9R4hdHZCkHwjyOyGsFIk7H8D8J3BH/+MG+ZnM90De1gtgv79QJy0N+enNKyykXdVrfi59D1rjxEgL+03+fPSbw/z2hIP3dFnyaWDdvbYP8cS3/qb+Mo3PhVPfOtPneyxfxE686nkQ3dMhXpzma6BBatVJE5uJ61+CKRrfkulDPja30vQydMD5KXuoieuHgrlsh45ZAlSd9vpF38nvvT0mbHEt51Y6r8QS35b9Cw+uT2W/M5tQmc+nXjojl3h3Fimm2DBahVG7YD2RlAhoXPDQHqVn1X1smQGOnnqUij3nWFcljDqYiv7yl2xxLfilk5DCAEIC4CAIIlY8ntwUt9/hyB519JTv8GzFJmmYMFqFUaNk3K3YaMtwhqpJlqlx5jUfNy4iQ/Qk9fsCPKSEv96T0zo5Pud1A92Cp0ta4UQBCf9A9juqzfZmaPnBPn5TPfBgtUqtJwm5cWBtUXN5WikzUy110llYVLzb4LMBuplCZ26yHJPvtPyTkEIUTH7XhgXTvrFSUunbjn5na+wl8U0DAtWiyDlzpIKfqOuUtB+rSgKmNSCY7IrB+jI/rEgPjfxyKFeoZIH7PTREQFV9VghBGz3NVjuazf0vnb/eYHfBKZrYMFqAfSfv+CQlrN+DWGZZVPxn5sshq70dtIuTOr0G6Hcm4O4JmHkT1jua/st76TfYX6jLhMk4WRemrBU8o6Vxz5iB2ED032wYLWCpWN9pOUYmdp3CIvZqLd7tfet/i5g0gsw2eWb6ci+uWYuJ/HI4X6hknfY6Rf7BGq8JiFguydheSdvECpxcQB3lelCWLBagcyMQHmj5YqeN6JsUfQGr1X2siR04uRZJDO3UvqvGr4cYdyfsrLHr7S8UzV5V4X3kYSTfn6HpVbuWPnX/84lQ0zdsGC1Ai1HSXvDAFUNuFftKIraf1buuIKXlV0GZZdvxDf/uqEdu8QjhweFSnzAzhztE6hTgIWA7Z2EnT1xFXtZTCOwYLUCLSdIe2WnMzezZVZN4Cqe1yjo5Okpkplb6RvvrfvfXxj3HVb2lbfYcrEu76rwfjJwMi8N+17WPT1NXD7ThbBgtQDScoa0V1egudHUhmqeW8HLyizDZJZvRmb5knpsSjx8506hEh920i9uQb3eVZExlpyH7Z64ylLJKxo7CdOtsGC1AiNnUdQWOWhqqTNcA2no5MnXkUzfTl97d6zmzyG138qe+FFLLTXkXa2ex8DJHN0qVOJQ4pEP9odyU5hNCXdrCBn6tzt6zIl/myazUa5ScJ9Z3Lmh/M8EyG+l/E471vtnAB7d6JyJhw+MCu/0HU76edv3rpowWAhY3iLs7LGfIKf/7QC+ENzVh4c+9uEBGDUFMlthOcdh2a/YY78ro7arm2APK2zSi9tIeeMwtS+hghhMUXi90s/JQCdPjZCXPkBPXb9hLEmQvMHOHHuDpVaa8q5W7TJw0i/0WnLpQOLRu4aaO1u46JfvcvSLd/4sMot/T8nXHqLEK/+E5GuPILv8GX30IJcbtRAWrLDR3nbS3vZyO4TR1qgIGC8Jk1n8aajsFdWOTD5854SQy7fYmZeFCKgWEkLAUiuws8cvEzr905Heiiro43c7UO5BpBc+RyvHr0Dy5E6k5wcp8doMJV65FV7y8/rowR+O2s5ugQUrbLQch/YCKXquNIyi8HNR/s8VjyOCTp7cRl7q5+nI/qFyxz5DWcDI2+3My6+39AqCaj7oXw/BzhztsbyFA4lHPjgSzFmDQx+724GXPozMwscpdWqr33zRtxwgwEuBkicvhEx/XL9812DU9nYDLFghQ1qeRcrb0ux5RIU/1/Pe9R0eBIybgk4tXAEjyxZGn/3Ih84Uavm9duYlBOZdFQwQsFQCdvblS4VOXxPsyZtDH7/bgUwfRnr+1yl1erB80q8AZAbkJt4Moy6M2uZugAUrbIw6i3T1uOxGnlGlCTpBoZMnY+Smbqcnrt5e/Pry1/4HYOQtdurFGUslEKR3VXwdTuaYY8mFOxMPH9wT7NkbvB++WB1EZuHXKD0/UL1CgQCZGYSWZ0dtdzfAghUi9OxtcdJyBiaclIaaZxVuZKfMQKdOXQLl7i9+3U49f67wFm60Mi+HF3ATAkIn4aRfeIPQ6XeH9Ck1o49/2IFMH0J64ROVPas1FwBoCRh5RtS2dwMsWGHirgxCyz2NFj23Ep2ad4ybvJ2euHonAKw8+asCxrvFSh+bFDqNMLcIhADs7Alhy/lbEo8cGo/sHhy/24GXOYT0wscpdXqg5tpPMoDRM2b5NzlNKGRYsMJEeTtIZnaCzIZN+ypR74zCDc+3bqfS/4ORLnRq/k359jNW9vib4C3chPTLIFTO6woGAWEysDMvnSdU6oYwP6kS+vg9Drz0QWQWfr0usQIA0oCRU5Q6NRCF7d0EC1aYaLmHlDtUboew1SkNtQifTp22TDZxu3n86jNh5PuRfHGUVBpE/rvDFC4hhO9leadvTzx8sKXLK1+skoeQma9xGVgCEaDVbmhve31vZOqFBStMjJoiXX2HsJGYUygIgJQLlXhtr3b1b1Dm9FU6eQyG/OcxXA8rZ4LJws68dKbQqfe99v0jLblsX6xSB5FZ/DilNgqwV4JARg7DqLbYNNjMsGCFCGlvlrRsWIZar18CJrVgqxe+u1+f/PZOo7IwhMIvolZ4Wcdhu6/e2Hf8L84N+2r1ibsdyNRBP8+qzmXgupOpPhg1HbbN3Q4LVkgQPSZIy+kwi55DsTurQK+8IsTCSRgSObGiNaIVJhZ5cDJHJy2VuOXVH3wjtBtXiFnVvBtYDQEYJWD03nDvDsOCFRbf/FwftNyw6LmtIAAJAxjAcQEhfYEqXhYSwvWyilopv6v/pT8KxcsqLAPr3Q2shlGA0a/Xp36p5u4XTP2wYIWFmxoi5e0pfhgijVHVQtYAaQMIQGjASROMwRovqzieFdrSkCSc9NFJS63cvvL4RwMdWOGnLhSWgU16VkWQAYychJfkEp0QYcEKC+3tKm2LnKctdcvA966KRMjOeVmmgpcVGrlWypZ36kYhFwJrpVyUuhCsWAG+YGm1C0bxTmGIsGCFhZbjpLya/28btvdFFV/3f0JZA2TXHiUM4GTIdx5Mq70s5Q+skMu3rzz2C00vs1Z3A0MQq/y91HIIRgUy95EpDwtWSJCWM9Cy6oNWtaNCrZ9Tr13lhKaMd5VnjZdVKlph3kAhYLunYLsn9gm5fGkzp2qFWAEEaLcPWs2EeVu6HRassNBy1i96bssF4Foy672rPML4sax88N2Y9ekNoXlZyA+sWL5t+bFfaGgsWF6sKFSx8q31A+9qNqQPYMCCFQr03btiq0XPLf5sKv/nimiAVkxVd8lxActdjWUZ0zovy/IWYGePX2XLpbfU+/ZVsZr/OEIVqxxGA0bNkfcZfq5Cgm9sGCRODpD2xojCLXquVSyqHpc2gEsbnqAQyyoNwLfEyzo6JNTSXSuPfqjmgRXFnhVS8+GLFZDbKVRTZv4Hfc2fjCkHC1YYyOx2aLkL1F5tkUvFhTSBkrU9yLYHWB6KloYt9LLkMuzM8bdaOvW2Wt6iT7TYs8rjC9YeKLftuqduFliwwsDIOVJ+H/dWUvdyMFWDd1U4YS6WVeRltapkBzBwMi/2Wd78wcSjHxqqdqQ+cY8DN3WQ0vOt86yKb5OWIzBqtKUf2kWwYIWBlnMbFT0X00hKQ7PLwXq8qzy2LIllEa0uC8NuP6NWYGWPv1no5E9VOkqf+HlfrDLzH0e69WIFEGBUP4yaavEHdw0sWCFAWs3V0xa57vOXe20D72pdrClhAK9OlSEgliZAl/GyEI6XVWy3lX65R7jzdyYevWvdksv3rJKReVYFjLJ5pzA8WLAChr59yCEjZ9AGKQ0VtUPW713lsaSfm1XsZYVVGF0QK+SGv3pJIH3scqFS7yo+bs0yMBLPKk8+tYGLoMOCBSto0gv9JDNjYRU9b+RdocrPC7+nDKAaVxcn43tZYRZGF4tVvp5RE0DJlx1yT9+afPTwbiC/DEweiF6scvipDdPm5EebnpTErIcFK2hkdgTKG22mLXIlatGBDcWiCe8qjyUBO1sh+z2ANIc1YlWy9NReCmblhTdAJm4g+kMLbuIA0gufaAuxyhuv5Th5qaGoTdmMcNP8oNFyNF/0XLokrEe3St9dMXheIXZFZV4D4ItVE95VHidD0D0CxvGFRBDBIn9yIYnGF8PrxCrvXRmCNoAmAUqcsNA/fqv+z+d2CLXwQWoXscpZTkbuEFrtBvBq1NZsNliwgkbLSVJeb5CnDCI0RADgNe9d5bGU72Xpfl9UhMgJl/BFp/j3mm3cSKxyfyfjwe7NnAu5cA6l5+32Eauc9UYPg9TZAJ6N2prNBi8JA4a0N0NaBtLDaaNsgbq8KwJoRfuBoIBwMgSoYAqjaxYrEuiZPANbdm6zkD7VZmKVQ0sLRs9FbcZmhAUrYMio2Y0Gp7a6kR8BgEugdLAPt6UBJ7uai1UojK4zllWvWPVNTALuMtpSrFZ3CmepFZM7ugwWrACh596/Bcqrqy1yo+JVt3eV0H4bmYBxslj1shoo2dlIrEypWI1PAtmlNhWr/EVpQMsZ89ovck1hwLBgBUlmaRtpbwwm3Iepnv9xh+Vd5RHaXxqW7ubVUrJTi2el14jVBOAutbdYAX5qg/bGoNyhqE3ZbLBgBYlyd5CW24vbIofeSXQj78rkYlchPuNO1k91KBRGF5fsbGB3XtCommc1sdf3rNp2GVjm+ozcDq12RW3HZoMFK0iMHIPytoU56ble74oyJjTvqnBtpj4vq1SsTM6TKhYrXSxWE5Od4VmtXiGg1SCMmozaks0GC1aAkFbTpL2eln1eFe+KAN+rSpragklNYrt++5m8SOW9LFO01bkmGI9axKrdA+xVMCoG4nbJQcOCFST+pOfQTl8xFlTp+IwBZVrzoK8ZWFHiYZkSG8uJ1Zrym4JnNdGZYsU1haHBghUQdPTX7NW2yMEHrtZlrFfryABUHSwRFrbrx7JKC6OpZGlYzrPK//LFag69450qVjmMBrSc1ac/1lAveqY8LFhBcer7faTlBJlw2yKXUtG7Sht/dFcLEUVN/lY9raLYlln9XedTIMp6VtMQ3krnihWQ7z46juzKtqhN2UywYAWFlxyF9iY3esgaatZXr3elczuDEeQtOrlWygY5gSra8SsUMK+pDcwnnAr0jM91TurChhDIqJ0wakfUlmwmWLCCQqvxfFvkIFMaqolVRe+qntbHQZNr8rc2luV7UqtLv7ViZXKeVe/EJNDpnlXxjdByG4waj9qSzQQXPweFUdOkZaA9kGpNYVjnXSVbuywtpdBKeYu/TIQBSJAf2itdHhJ8z6pTdwOrYdQWGN4pDBIWrIAgLWehvbI/q+Zo1dPRYEPviiL2rorsiGUIblz4+arCbzmTt7u48V/P+Bx6O3Y3sBqFnUIugg4QXhIGAC3ea5HMzpByEdQOYWPeFfk1g21A8cAKP2aF1Qx2kxerveidmILwEptMrHLkBqua5d9gxyAgWLCC4PnHe6G9yUZ3CEuzwKsF1YEq3lWygcESYZHzslBmLJgBEB+bQ+/EZOfvBla9BxowaoJSp2seAMtUhwUrCLzUMGlvTzMPXrXau0pitca7UsE15wsKO9dKmUoEq2dsDn2Tm1ysgNyFq2kodyJqUzYLLFhBoL3dpLyRVuYRrGsfkzSAbBPvqohYliCKNGnL+Bz6Jqc37zJwDQTSchtIj0VtyWaBBSsItBwjLfsBBD94YoOlIAGBDJYIC1utNvnrGZtF38QkhLfZAuxVMLIHRvOcwoBgwQoA0nIG2osFft4alogF7yqAwRJhEXeB3j2z6J+chJDd4FnlEYBWgFFcUxgQLFgBQFrmip7Da35V0bsKcLBEWMSmZtE/PQ0hk10kVjmMBLQ3Y5Y+wTuFAcCC1ST0ncNxaG8m6BrCmr2rRLCDJYLGnpuBffYUIDd5gL0SZACtJik1Pxi1KZsBFqxmSZwaJO2Ng8oLViM+17pynHLHAH7r41T7ioA9Nwv7nGlAd6FnlcffKdwNI7dHbcpmgAWrWZQ7QkruDGQ+exkqpjFQrgSnTXXAnp1hsQKQG6w6DK32RG3JZoAFq1m0twfaGwoqpaFm3Wtj78oXqylAJRD2QI6OQMterikMBhasJiEtp0kHM+m52lJwzZy/FgyWaBRrZhr2OTOATnW5Z5VHAEYLGMU1hQHAgtUsRk6TlgKoLfeqpmB6tZ8JgLLhD5ZoBGtmGs65M4Dp9mVgCYXBqp/n561J+AY2Af37wRhpdSFKUhrqTRotWztY6bgIWh/XgjUzDScfs2px19W2hwxg5Ix59VkerNokLFjNkF7oh5Zj9aY0FI9z30is1i0TWzhYolasmWk4580ChpeBZfHbJY9CucNRm9LpsGA1g3JHSHujrXhIKT8uq0Vju2rFmp6Cc84UoLspg71+SMsRGDUatR2dDgtWM2g5SsodClJBqnpX6fbyrqzpqVzMKs27gVUhwKgBGDUVtSWdDgtWE5D2JklmAotLVBKrNTuDbeJdWdOT/jKQeBlYE0bZMJpTG5qE65uawa8hDET0Kw6UyKczpNug9XEOa2rS96y6Pim0VvLtkrkIulnYw2oC0nKGNhic2ojErAvEG7RN62NrcgLOeXP+MpDFqnb8dsln6lc+MhC1KZ0MC1aD0HO3byHtTfuTnps8V6XX28y7sqYm4Zw/x8vARvBrCqegXK4pbAIWrEbJLA1Be2P5YHOjDftKZWidd6XJj11FjDU1AefcaT91gfOsGoDyO4VcU9gELFiNorwd+cGpjVJNrAreVRsMlrAmJ+GctxegDHtWDUOAUX0gMxm1JZ0MC1aj+G2Rt9ZyKJX5ezUJKghXGwyW8GNW0wBxgL1ptGdDe1xT2AQsWA1CRk6T9npqPh7VhapsxnuUgyWIcmI1AxDnWTXP6mBVCqkVUTfAgtUgpOWcX0MYwLnKLAWhom0f4wfY9wLI1NHzhqmK0X5N4cmPBtLdoxthwWoAeuFjtt8WuXpKQ03nqtS9IRGdd2VNjPsBdkqyZxUkfrvkMcj0UNSmdCosWI0w/3wfKTke9G5ZIdAe1WAJIl+szp8DkGGxCgEycge03B21HZ0KC1YjeOkR0t4oVQhC17qCKrsUBIBkBIMlKBdgv4CXgeFBgFaDMHo8aks6FS7NaQTtjZL2Rpo5RcWloGtaH7sqDrBzi5hwMSoG4u6jjcIeViNoOUHKa7joeV0XhmJPK2mAVuZl5j2r8/cCyLJYhcrqTmHUlnQqLFgNQEb+MIy0qx5TYyvkNWLlGqCVrY8JsCbH4Jw/C4BrA1sCaUCrGTP/y/GoTelEWLDqhF78ZYu0miEtN9wfLI1R0QbZorTSQu+KCNbkeK5FTJrLbVqFMYCRE5RdqSnpmFkLC1a9nP5BH7Q3STUWPVcTqjWCliWgVc358jGrC/YCIssB9pZCIKN2QssdUVvSibBg1YuXHibljvpb/o3nYK31vsjPu2qFXuVTF86b8bsucOpCiyFAyyEYNRa1JZ0IC1a9aG/UyMxIqbrU46SsO7ZV3hURrIkJzrOKGqO2wOizozajE2HBqhctx6C9/kbfvj7oTn5zvrBXZXnP6oK9gOA8q+jI7RSSPidqSzoRFqw6ISNnSMuG8tfWT3Ymf1cwE7J4FDLYZwDwMjByjAa0mtUnP1pz8Tzjw4JVJ6TlHOUGp1KJW1Tz9OY8JlczGKZeFXtWcFms2gHSgFFj8NK8U1gnLFh1QN8+HG+kLXL5Yak57yrM1sdEsCbG4FyQi1lxnlV7QATS7k4YuTNqUzoNFqx6SJ4ahPLGqMqDXzrVuaJYhe1dFXYDOc+q/SBAy21cU1g/LFj1oNztpOXrmglYF5aRYXpXhWXgGYDlcoC9HTGyB0bxnMI6YcGqB+3tIeUNNyoABbHSOe8qDPLLwPNnwQH2dkUAWgOGi6DrhQWrDkjLadJeQ90i1wTokyF5V9zPqnMgBRg1Z5Y+wR1T6oAFqw58wZJrEtyp3iBUWIMlipeBXG7T/pABjJqg9AIPVq0DFqwaIToioL3ZfEpDze/L/VcgRcG3Ps4vA8/jPKuOgQjQahTK48GqdcCCVSvPfq6XtJyiMrttlbysda+H4V2VelYsVh0CgYwcAvFg1XpgwaqVbGKIlLenUi5TsSe1zqvKH5MM2Lsq5Fnthd/PipeBHYVWfTBqOmozOgkO+NWK3xY5N+m58pKworflkR9sD4rSrgssVh2GAIwSMHpv1JZ0Euxh1YqWZ5GW27BRI74yEMEXKxWQqKwpZOY8q47FKMCoGUP/3NysuC6CBatGSKsZUp5VbwssAgCPgKAGSxDBGh/LpS5wW+OOxp9TOEOvfaXh+QDdBgtWDRCR36XBrO4Q1uLUUH42fVCDJQqeVU6sOMDe2ZABjNwDmR2O2pROgQWrFp69tZekOw1de9FzQdA8CmawxJplIOdZbRbIqO3cfbR2WLBqwU0MkcqOlfZxL1vYXBzjIgBBDJYoLANz023Ys9okFIqguZlfjfAuYS0obwcpd6TcDmFVR8cNoPXxmnKbNGDYs9pU+N1HuaawRtjDqgXtjRvl7xDWDAFodrBEcZ4VtzXehOQHq6pZk/pdfhZrgG9SDeSKnuN1yUWzgyUK5Tb5fla8DNyUGA1ob5qWjzc8J6CbYMGqAdKyvhrC/M5gow5RYRmYz7Nisdq0kAG0HIX2eKewBliwNoBe+KhD2pvJt0WuKZ0hbRr3rorzrAS3Ne4GSMsRGDUatR2dAAvWRswf7SMlx6loSVZtkjNpQDTa+pjzrLoQAozs55rC2uBdwo3w0iOkvdFST6eip5Uxfu5VvZR6Vrwb2D0YbcNobpdcA+xhbYT2Rkl5wzW5TAYQjcSu8mJ1QV6s2LPqHgo7hVwEXQMsWBtAWk6S8vpqEqFMA62Pi8WK2xp3J0b7RdAnP9pQ++1uggVrA0jLaWOkveEGoc55V3WdvNiz4nKbroUI0HIPealtUZvS7rBgbQApf9IzbaRYqTq9qzXlNtwptLshkJGvg1a7o7ak3WHBqgL9v5v7ycgz8kNIK8qRJoh62ses8aw4z4ohwKhBEBdBbwTvElbDTW4n5U2vSWkoc5ioZ7DEmt1A9qyYHFrFYfRs1Ga0O+xhVUPLUdLeSNWCwHq8q+JlIIsVU4B3CmuFBasaRo1ttEMoah0sQQRrbI/vWVm8DGRKoNxO4fyvxqI2pZ1hwaqCke6MkVmnYrxdUm07g4WY1V7AYs+KKYNfUzhJ2aWtUZvSzrBgVYG0v0NYqehZpAygN/CuCp7VLCeFMpUhAoyehPamojalnWHBqgB951CclDdNWpVPj5LkB9urnqRoGcjTbZiqEMjIARg9EbUl7QzvElYicWoraW+ccrGmUq2xkht4V2sC7ByzYmpAyxiIdwqrwR5WJZS7nZS3o5xXJCRBpDcQqz2jfvM9FiumJnI7hVpxu+QqsGBVQss9RnlD6wSLcu1jKnlXBFjje/ykUN4NZOpBK0B7s/r0x+JRm9KusGBVINcWeV0xqvAIolJzPiJYY6O51AWPxYqpDzKAURNwV7imsAIsWBUg5c2Qlms3CClX4FxOh4hgje7mmBXTBAQy6nXQakfUlrQrLFhlIHrQMlrOGKUAWlUs4RJEtowQEfwA++v3smfFNAEBWg7BqPGoLWlXeJewHM890EtaTlGu6Dmf6W6V866IYO1hz4oJCKN6YBR3H60Ae1jlyCaHSHl7isVHZMx674qQWwZy1wUmCPI1hTxYtRIsWOVQ3m5TmPQMX5hKWx8TwRofhXPhGYAtWayYYPC7j86Z5d/k1U8ZWLDKQMrbQ0oO5AVKZA1E8WAJIli7d8E5d4Y9KyZY/CLoCUqd4sGqZWDBKgNpOUPai0EAMOu9K2vPbtgXzLFnxQSP3y55FNrbHrUp7QgLVglEBNLq3HzRs8gaiHzr43yA/fVnQDiKxYoJAQIZHqxaCRasUp57Xz9puddoDWjyvSvAF6tdO2HzMpAJG616YTR3bSgDB/ZKySZHjPL2EGlYGfJjV4RcbeAMwJ4VEyoCMMri7qPlYQ+rFO3tJu1thzKwUiYXYN/p1wayWDGtwGjA6AvN6Y9x99ESWLBKIOVNGS8zaKUNhGf8ZeD5s5zBzrSO/E6hm+DuoyWwYJVAWp5BrttjJbXffO/CMyBimsWKaR1+u+TdMGpX1Ka0GyxYJZCSZ2HFFdbI63IxK05dYFoPGTkEo7j7aAksWCVQKrPX7t3mx6xsyT3YmQggQLm9UPKMqC1pN3iXsARjOdP22dMQMcVixUQCGUAuJG316vPnRW1Lu8EeVglZI57JLqaTKq2iNoXpMogAldbInJIyO+8eUcn0P0dtU7vBHlYJhnCjTqorVFYcjvVZV8YG7LgdZ11nwkVlDbyEMjpL3yXCpwDxNyPXPbUQtV3thmj+FJuThfsv2woyN1o2HY4N2GfF+m3Lcvh2McFiJMFLKMiUOUGG/gQQ9w5dePbL1hl/GrVpbQk/gVVIf+XtyC4uTkDgFjsm3h8bsCdj/RaExbeNaQ6jCTKpIZN6wSj6O1jWHwjQs8PXPsWB0yrwk1cDy//3Jyy1kjxLWLjN6RHvjQ3Yr3N6bQheKTJ1QoYgUwZeQmWMwj+B8LsAPTly/dMyats6ARasOlh48M02tL5cwPy8s8V6a3zQ7rO3sGoxNUC5ONWK0so1z4DwB8KyHhi+9sl01KZ1EixYDbBw38V9AN5mObjb2WJdEhu0YxyYZyqhXQMvoY3K6P8gI/5Y2NafD1/zxKmo7epEWLCaYOG+S0ZAZp8VEx+O9dsXxAZscGCeyWMkwVtRkBlzigzuBeFeAfPS8PVfi9q0joWfrgBY+MIl0wDdacfEe2ID9gQH5rsb0gSZ0vCSetlIehDC+qwz0Pe1rT/9VR21bZ0OP1UBsXDfRRZInCNsHLbj4vrYgD3i9NkQfIe7BjIElTbwEjqtPfMwhPX7wrIeHr7miBe1bZsFfpwCZvGLl8WMUhdZFu62e+2fiQ/aPQ4H5jc3uYC6u6KM8eg5IvGbAP3DyHVPpaI2bbPBghUSC1+4ZACgfcLCoViv9UYOzG9OtGvgJTVU2nyfDP2RsO2/HL7mieNR27VZYcEKmfm/vXi7sPAuy8Yhp88+Oz5gCyvGt73TKWSop81x0vhLYVn32hb919arn4zatE0NPzktgOhFLNz3rmkhcMCOW++NDdijHJjvTIoC6ikj8fcA/bYVjz07tO9xzlBvAfzEtJDF+y+1iOgNAB2ye8S++IA9zIH5zoCM30nBS2pXe+YhkPi01RP76tA7H8tEbVs3wY9KBCzcd3EcwKXCwi/aPdZb44N2zOnl+Fa7ojIG3ooyyjXPgcQnhWM/MHz1kUTUdnUjLFgRsvjFy4ZIqf3CEQdifdYbYwO2xYH59kF7Bl5CQ2XMUdL4LID/PXL9UxxQjxAWrDZg4f5Ld8GY91oObnP67DPjg7bgjPnoMJJyO3/6VaPo8xDij+M7Rv5j4IovU9S2dTv8VLQJS196M4ynpiFw2LLxc/EBa3tswObAfAsh47d88RI6bRR9GZb125bjfH1o32McUG8T+GloM5b+zxWOyWTfBIEDucD8IAfmwyXfmthLaKk9ehyETwpLfIU7KbQf/Bi0KYsPXt5DUr1VWDhs91g/Hh+0tzhbLP4XC5J8y5eENto13yBDfyhs+8Hha55YjNo0pjz89W9zFu6/dBDGXCts3OP0WufGBzkwHwRGEtwVBZU2x4jwZ8K2/3D46iMnoraLqQ4LVgdARFi8/9JxkLnJcsTtsX57jlvZNIZRBJnQkGk9bxT+CsBnhGN/d/jqIxyn6gD4G99BLH/17dCLS2eC6A4rJm6ODVg74v02hM3/jBuxmqFuUkaaBwHxabt3y9e2/bdHeJ5bB8Hf9A5k6e/fYhvXuxjA3XaPeHt8wO7jwHwFCJAZDW9FS+2ZZwDrk8K2vjR89RE3atOY+uGveAez+MVL+0ibtwkLh+we6y3xQTvOgflVimb9fZsMfh/AF0euf2o+aruYxuGv9iZg8YHLt5GS1wlL3OP0WmfFtzqWHe/ef9o1AXVDn4Ow/mT42ieOCXZBOx7+F9wkLN53MQiYgsDPWTZui/XbE90WmDc6F1BP6QWj8CCE+D0h6Fs862/z0D3f5i5h+R+usHQ6ew4EPmA54t3xAWt7bJMH5v0MdQOZ0hkt6cu5xM+nh699kmf9bTI277e4y1n+8o/bOpP9MZC5x45bV8YH7d5NF5hfnfWn/Fl/4lO5Tgqcob5J2UxfX6YMC/dfOgCitwtBd9k94qL4oBPbDIF57Rp4K9qorPkeET4rhPj88LVPno7aLiZcOvxry9TKwn0Xb4fAzwoLB50t1nnxQRt2T+dlzBe1Jn6FND4DgT9DzH5pZN+RqE1jWgALVpex+MDlM6TUnZaDm2J99p7YYGcE5kkTvJSGTOglo+jvYFmfdrYOfH3rT/4LB9S7iPb/pjKBs/jApRYZugBEhywH18YH7OF2DcyTIci0gfRn/T0EYf1PgB4due4pDqh3Ie33DWVaxsIXLokBuBygj9gxcWV8q93TNoH51YC6US59HYTfgsA/8ay/7qYdvppMxCw+ePlWUmqfEDhs91g/Eh+07SgD89o18BKaVMZ8jwz9ibDtvxi+5olXor5PTPSwYDEFFr942S4y5gYh6ANOn3VWfMAWrQzMFwXUT5DGn8MSnzULL72w4/3cRp3xYcFi1pD50mXIeGYaoMPCwk2xfntXPOTAPGm/h7pM6qRReABCfBKgZ0eu4wx1Zi0sWExZlv/xSlunMz8CYw5bcWt/vN8aDDowXzTrL6td8xCE+LQVi311aN9j2aivn2lPWLCYqiw+eHkPKX0lYA7Zcesn4wN23OmzIZpZKa4JqJtnAPF7QlhfGr72iWTU18u0NyxYTE0s3HfRICDe5beyERfEBx2rrsC8AEC5gHpSQ6XN86TpXgj8r5Hrn3416utjOgMWLKYuFh+4bA8pfZOwcLvdI/Y6vbZwtlgQtijrdRH5MSrtGqiMgcqaV0jjr2GJe3t27Ppe/489yLP+mJphwWLqZukfrxSUyc6SNtdB4Hph4UzLEf2WI0SxaBH5PdRJUcZoOgrClwDx53Zf73e3/czDOurrYDoPFiymYRa+eIkQEDvJmB8B4UcBOhvCGgdoJ4AlEL0EiOch8DSEeMayreND+4+wUDEN8/8BZFzR4BwI8jkAAAAldEVYdGRhdGU6Y3JlYXRlADIwMTgtMDItMjVUMDk6NTI6MTUrMDA6MDB1TmtBAAAAJXRFWHRkYXRlOm1vZGlmeQAyMDE4LTAyLTA2VDEwOjE0OjM5KzAwOjAw2z9ymgAAAE10RVh0c29mdHdhcmUASW1hZ2VNYWdpY2sgNi44LjktOSBRMTYgeDg2XzY0IDIwMTctMDctMzEgaHR0cDovL3d3dy5pbWFnZW1hZ2ljay5vcmdTYVXGAAAAGHRFWHRUaHVtYjo6RG9jdW1lbnQ6OlBhZ2VzADGn/7svAAAAGXRFWHRUaHVtYjo6SW1hZ2U6OkhlaWdodAAzMjkx3TXpHAAAABh0RVh0VGh1bWI6OkltYWdlOjpXaWR0aAAyNDAw0oilDQAAABl0RVh0VGh1bWI6Ok1pbWV0eXBlAGltYWdlL3BuZz+yVk4AAAAXdEVYdFRodW1iOjpNVGltZQAxNTE3OTEyMDc5tHTjJgAAABJ0RVh0VGh1bWI6OlNpemUAMjI5S0JCCNIguAAAAEZ0RVh0VGh1bWI6OlVSSQBmaWxlOi8vL29wdC9wbmdfYmF0Y2hfMS9maXJlYmFzZS0xLWxvZ28tcG5nLXRyYW5zcGFyZW50LnBuZ/nx/esAAAAASUVORK5CYII=;" vertex="1" parent="1">
          <mxGeometry x="502.5" y="-740" width="120" height="90" as="geometry" />
        </mxCell>
        <mxCell id="Z11w9rOS_5Ds6-d-HtvD-47" value="" style="curved=1;endArrow=classic;html=1;rounded=0;exitX=0.5;exitY=0;exitDx=0;exitDy=0;exitPerimeter=0;entryX=0;entryY=0.5;entryDx=0;entryDy=0;flowAnimation=1;strokeWidth=2;strokeColor=#FF00FF;" edge="1" parent="1" source="Z11w9rOS_5Ds6-d-HtvD-8" target="Z11w9rOS_5Ds6-d-HtvD-45">
          <mxGeometry width="50" height="50" relative="1" as="geometry">
            <mxPoint x="320" y="-470" as="sourcePoint" />
            <mxPoint x="370" y="-520" as="targetPoint" />
            <Array as="points">
              <mxPoint x="310" y="-510" />
              <mxPoint x="370" y="-560" />
              <mxPoint x="410" y="-700" />
            </Array>
          </mxGeometry>
        </mxCell>
        <mxCell id="Z11w9rOS_5Ds6-d-HtvD-48" value="" style="curved=1;endArrow=classic;html=1;rounded=0;entryX=1;entryY=0.5;entryDx=0;entryDy=0;exitX=0.5;exitY=0;exitDx=0;exitDy=0;exitPerimeter=0;flowAnimation=1;strokeWidth=2;strokeColor=#FF00FF;" edge="1" parent="1" source="Z11w9rOS_5Ds6-d-HtvD-20" target="Z11w9rOS_5Ds6-d-HtvD-45">
          <mxGeometry width="50" height="50" relative="1" as="geometry">
            <mxPoint x="740" y="-650" as="sourcePoint" />
            <mxPoint x="790" y="-700" as="targetPoint" />
            <Array as="points">
              <mxPoint x="830" y="-580" />
              <mxPoint x="790" y="-650" />
              <mxPoint x="740" y="-700" />
            </Array>
          </mxGeometry>
        </mxCell>
      </root>
    </mxGraphModel>
  </diagram>
</mxfile>
